<?xml version="1.0" encoding="UTF-8" standalone="no"?>
<svg
   xmlns:dc="http://purl.org/dc/elements/1.1/"
   xmlns:cc="http://creativecommons.org/ns#"
   xmlns:rdf="http://www.w3.org/1999/02/22-rdf-syntax-ns#"
   xmlns:svg="http://www.w3.org/2000/svg"
   xmlns="http://www.w3.org/2000/svg"
   xmlns:sodipodi="http://sodipodi.sourceforge.net/DTD/sodipodi-0.dtd"
   xmlns:inkscape="http://www.inkscape.org/namespaces/inkscape"
   inkscape:version="1.0 (4035a4fb49, 2020-05-01)"
   sodipodi:docname="indicator-trashindicator.svg"
   id="svg24"
   version="1"
   height="16"
   width="16">
  <metadata
     id="metadata30">
    <rdf:RDF>
      <cc:Work
         rdf:about="">
        <dc:format>image/svg+xml</dc:format>
        <dc:type
           rdf:resource="http://purl.org/dc/dcmitype/StillImage" />
        <dc:title></dc:title>
      </cc:Work>
    </rdf:RDF>
  </metadata>
  <defs
     id="defs28" />
  <sodipodi:namedview
     inkscape:document-rotation="0"
     inkscape:current-layer="svg24"
     inkscape:window-maximized="1"
     inkscape:window-y="0"
     inkscape:window-x="0"
     inkscape:cy="-2.2600472"
     inkscape:cx="-2.9465774"
     inkscape:zoom="22.627417"
     showgrid="false"
     id="namedview26"
     inkscape:window-height="1002"
     inkscape:window-width="1920"
     inkscape:pageshadow="2"
     inkscape:pageopacity="0"
     guidetolerance="10"
     gridtolerance="10"
     objecttolerance="10"
     borderopacity="1"
     bordercolor="#666666"
     pagecolor="#ffffff" />
  <path
     d="m 7.800802,1.0001014 a 6.9999494,0.99999277 0 0 0 -6.8007316,0.9999928 6.9999494,0.99999277 0 0 0 0,0.00196 6.9999494,0.99999277 0 0 0 0.00684,0.040039 L 3.0000559,14.000008 A 4.9999638,0.99999277 0 0 0 8.00002,15 4.9999638,0.99999277 0 0 0 12.999984,14.000008 L 14.993133,2.0420861 a 6.9999494,0.99999277 0 0 0 0.0068,-0.041992 6.9999494,0.99999277 0 0 0 -6.999949,-0.9999928 6.9999494,0.99999277 0 0 0 -0.199218,0 z M 8.66603,5.5039749 C 9.624407,5.4537939 9.818366,5.9326828 9.818366,5.9326828 L 10.070318,6.39264 10.75586,5.9893234 9.922858,7.610405 8.062519,7.568415 8.617203,7.244199 7.858419,5.8535835 C 7.69101,5.5833643 7.354516,5.5147193 7.354516,5.5147193 7.478176,5.5380643 8.66603,5.5039743 8.66603,5.5039749 Z M 7.159205,5.6670597 c 0.256902,0.00818 0.553037,0.208458 0.843744,0.8300723 L 7.06741,8.081105 5.7939812,7.310603 6.412141,6.174869 c 0,0 0.318896,-0.5214462 0.747064,-0.5078093 z m 3.397437,1.7070193 0.649409,1.116203 c 0,0 0.718972,1.393431 -1.053703,1.277334 L 9.282237,8.143604 Z M 6.118197,7.721732 7.051785,9.388713 6.495148,9.068403 5.7432001,10.461947 C 5.607281,10.750902 5.7256201,11.08499 5.7256201,11.08499 5.6824555,10.963472 5.0351952,9.928748 5.0351952,9.928748 4.4956368,9.107791 4.7891055,8.685593 4.7891055,8.685593 L 5.0381272,8.223682 4.3496555,7.826224 Z m 3.10447,1.572255 v 0.660151 h 1.541005 c 0.309737,-0.01815 0.533199,-0.288083 0.533199,-0.288083 -0.08108,0.09794 -0.637691,1.188467 -0.637691,1.188467 -0.428149,0.888664 -0.92675,0.829096 -0.92675,0.829096 H 9.222667 v 0.816401 L 8.272479,10.950225 Z m -3.024392,0.705073 1.792956,0.0059 0.02539,1.528309 -1.255851,0.04199 c 0,0 -1.5243701,-0.02914 -0.562495,-1.576162 z"
     style="opacity:1;fill:#dfdfdf;fill-opacity:1;stroke:none;stroke-width:0.499996px;stroke-linecap:butt;stroke-linejoin:miter;stroke-opacity:1"
     id="path1094" />
  <g
     transform="matrix(0.12959418,0,0,0.14582989,9.0019155,11.054307)"
     id="Group"
     style="fill:none;fill-rule:evenodd;stroke:none;stroke-width:0.0924382" />
</svg>
