<?xml version="1.0" encoding="UTF-8" standalone="no"?>
<svg
   xmlns:dc="http://purl.org/dc/elements/1.1/"
   xmlns:cc="http://creativecommons.org/ns#"
   xmlns:rdf="http://www.w3.org/1999/02/22-rdf-syntax-ns#"
   xmlns:svg="http://www.w3.org/2000/svg"
   xmlns="http://www.w3.org/2000/svg"
   xmlns:xlink="http://www.w3.org/1999/xlink"
   xmlns:sodipodi="http://sodipodi.sourceforge.net/DTD/sodipodi-0.dtd"
   xmlns:inkscape="http://www.inkscape.org/namespaces/inkscape"
   height="64"
   width="64"
   version="1.1"
   id="svg46"
   sodipodi:docname="drive-multidisk.svg"
   inkscape:version="1.0 (4035a4fb49, 2020-05-01)">
  <path
     d="m 9.6191408,3.6945583 c -0.77804,0 -1.404297,0.615738 -1.404297,1.380859 L 5.4062498,46.721901 c 0,0.0769 0.00931,0.151199 0.021484,0.22461 h -0.02539 l 0.46875,7.376953 c 0,0.07624 0.00952,0.149843 0.021484,0.222656 h -0.02539 l 0.46875,7.378906 c 0,0.76514 0.626226,1.38086 1.404296,1.38086 H 56.71875 c 0.77806,0 1.404297,-0.61572 1.404297,-1.38086 l 0.46875,-7.378906 h -0.01563 c 0.01197,-0.07281 0.02148,-0.146422 0.02148,-0.222656 l -0.519531,-6.605469 0.04883,-0.771484 h -0.01563 c 0.01217,-0.07342 0.02344,-0.147701 0.02344,-0.22461 L 54.857422,5.0754173 c 0,-0.765111 -0.626227,-1.380859 -1.404297,-1.380859 z"
     style="opacity:0.5;fill:#000000;fill-opacity:1;filter:url(#filter928)"
     id="path32-97" />
  <metadata
     id="metadata52">
    <rdf:RDF>
      <cc:Work
         rdf:about="">
        <dc:format>image/svg+xml</dc:format>
        <dc:type
           rdf:resource="http://purl.org/dc/dcmitype/StillImage" />
        <dc:title />
      </cc:Work>
    </rdf:RDF>
  </metadata>
  <defs
     id="defs50">
    <linearGradient
       inkscape:collect="always"
       id="linearGradient881">
      <stop
         style="stop-color:#d7d8db;stop-opacity:1"
         offset="0"
         id="stop877" />
      <stop
         style="stop-color:#e4e5e7;stop-opacity:1"
         offset="1"
         id="stop879" />
    </linearGradient>
    <linearGradient
       gradientTransform="translate(0.23231,3.800665)"
       inkscape:collect="always"
       xlink:href="#linearGradient881"
       id="linearGradient883"
       x1="30.253611"
       y1="49.966713"
       x2="32.887238"
       y2="6.420105"
       gradientUnits="userSpaceOnUse" />
    <linearGradient
       gradientTransform="matrix(1.0176304,0,0,1,-0.33169659,-3.800685)"
       gradientUnits="userSpaceOnUse"
       y2="6.420105"
       x2="32.887238"
       y1="49.966713"
       x1="30.253611"
       id="linearGradient883-0"
       xlink:href="#linearGradient881"
       inkscape:collect="always" />
    <filter
       height="1.2043759"
       y="-0.10218793"
       width="1.2290262"
       x="-0.11451308"
       id="filter928"
       style="color-interpolation-filters:sRGB"
       inkscape:collect="always">
      <feGaussianBlur
         id="feGaussianBlur930"
         stdDeviation="2.5381492"
         inkscape:collect="always" />
    </filter>
  </defs>
  <sodipodi:namedview
     inkscape:document-rotation="0"
     pagecolor="#ffffff"
     bordercolor="#666666"
     borderopacity="1"
     objecttolerance="10"
     gridtolerance="10"
     guidetolerance="10"
     inkscape:pageopacity="0"
     inkscape:pageshadow="2"
     inkscape:window-width="1920"
     inkscape:window-height="1020"
     id="namedview48"
     showgrid="false"
     inkscape:zoom="8.4189903"
     inkscape:cx="34.499403"
     inkscape:cy="41.226337"
     inkscape:window-x="0"
     inkscape:window-y="25"
     inkscape:window-maximized="1"
     inkscape:current-layer="svg46" />
  <linearGradient
     id="a"
     gradientTransform="matrix(.46814289 0 0 .46034744 .90886 4.2024)"
     gradientUnits="userSpaceOnUse"
     x1="10.09375"
     x2="122.719"
     y1="107.36093"
     y2="107.36093">
    <stop
       offset="0"
       stop-color="#1a1a1a"
       id="stop2" />
    <stop
       offset=".11054216"
       stop-color="#2c2c2e"
       id="stop4" />
    <stop
       offset=".29001436"
       stop-color="#2b2b2d"
       id="stop6" />
    <stop
       offset=".5118711"
       stop-color="#2a2b2d"
       id="stop8" />
    <stop
       offset=".75173318"
       stop-color="#2b2b2d"
       id="stop10" />
    <stop
       offset=".89659214"
       stop-color="#323232"
       id="stop12" />
    <stop
       offset="1"
       stop-color="#171717"
       id="stop14" />
  </linearGradient>
  <linearGradient
     id="b"
     gradientUnits="userSpaceOnUse"
     x1="31.144557"
     x2="31.373111"
     y1="48.629539"
     y2="6.531113">
    <stop
       offset="0"
       stop-color="#bbbec4"
       id="stop17" />
    <stop
       offset="1"
       stop-color="#dddfe2"
       id="stop19" />
  </linearGradient>
  <linearGradient
     id="c"
     gradientTransform="matrix(.95242666 0 0 1.8845167 -396.56392 -970.31479)"
     gradientUnits="userSpaceOnUse"
     x1="451.02078"
     x2="451.02078"
     y1="544.14978"
     y2="543.0885">
    <stop
       offset="0"
       stop-color="#197cf1"
       id="stop22" />
    <stop
       offset="1"
       stop-color="#20bcfa"
       id="stop24" />
  </linearGradient>
  <linearGradient
     id="d"
     gradientUnits="userSpaceOnUse"
     x1="52.000314"
     x2="52.000314"
     y1="56.345066"
     y2="52.345085">
    <stop
       offset="0"
       stop-color="#040404"
       id="stop27" />
    <stop
       offset="1"
       stop-color="#121212"
       stop-opacity=".908163"
       id="stop29" />
  </linearGradient>
  <path
     d="m 5.86662,53.046595 0.4685953,7.37846 c 0,0.76514 0.6269927,1.38113 1.4058361,1.38113 H 56.76917 c 0.778833,0 1.405856,-0.61599 1.405856,-1.38113 l 0.468595,-7.37846 z"
     fill="url(#a)"
     id="path32"
     style="fill:#1a1a1a;fill-opacity:1;stroke-width:1.0005" />
  <path
     d="m 10.0832,9.795165 h 43.83316 c 0.77807,0 1.40446,0.61599 1.40446,1.3811 l 3.27717,41.64744 c 0,0.76512 -0.62635,1.38113 -1.40441,1.38113 H 7.27456 c -0.77806,0 -1.40442,-0.61601 -1.40442,-1.38113 l 2.80865,-41.64732 c 0,-0.76512 0.62637,-1.38122 1.40441,-1.38122 z"
     fill="url(#b)"
     id="path34"
     style="fill:url(#linearGradient883);fill-opacity:1" />
  <path
     style="fill:#525252;fill-opacity:1;stroke-width:1.00895"
     id="path32-9"
     fill="url(#a)"
     d="m 5.40201,45.445245 0.4765465,7.37846 c 0,0.76514 0.6376315,1.38113 1.4296905,1.38113 h 49.860032 c 0.792049,0 1.429711,-0.61599 1.429711,-1.38113 l 0.476547,-7.37846 z" />
  <path
     style="fill:url(#linearGradient883-0);fill-opacity:1;stroke-width:1.00878"
     id="path34-9"
     fill="url(#b)"
     d="M 9.6928678,2.193815 H 54.298822 c 0.791788,0 1.429221,0.61599 1.429221,1.3811004 l 3.334948,41.6474396 c 0,0.76512 -0.637393,1.38113 -1.42917,1.38113 H 6.8347104 c -0.7917774,0 -1.4291804,-0.61601 -1.4291804,-1.38113 L 8.2636975,3.5750354 c 0,-0.7651204 0.6374132,-1.3812204 1.4291703,-1.3812204 z" />
</svg>
