<?xml version="1.0" encoding="UTF-8" standalone="no"?>
<svg
   xmlns:dc="http://purl.org/dc/elements/1.1/"
   xmlns:cc="http://creativecommons.org/ns#"
   xmlns:rdf="http://www.w3.org/1999/02/22-rdf-syntax-ns#"
   xmlns:svg="http://www.w3.org/2000/svg"
   xmlns="http://www.w3.org/2000/svg"
   xmlns:sodipodi="http://sodipodi.sourceforge.net/DTD/sodipodi-0.dtd"
   xmlns:inkscape="http://www.inkscape.org/namespaces/inkscape"
   width="32"
   height="32"
   viewBox="0 0 8.4666665 8.4666669"
   version="1.1"
   id="svg8"
   inkscape:version="1.0 (4035a4fb49, 2020-05-01)"
   sodipodi:docname="folder-music.svg">
  <defs
     id="defs2">
    <filter
       height="1.234"
       y="-0.117"
       width="1.2005714"
       x="-0.10028571"
       id="filter851"
       style="color-interpolation-filters:sRGB"
       inkscape:collect="always">
      <feGaussianBlur
         id="feGaussianBlur853"
         stdDeviation="1.17"
         inkscape:collect="always" />
    </filter>
  </defs>
  <sodipodi:namedview
     id="base"
     pagecolor="#ffffff"
     bordercolor="#666666"
     borderopacity="1.0"
     inkscape:pageopacity="0.0"
     inkscape:pageshadow="2"
     inkscape:zoom="14.459008"
     inkscape:cx="14.184593"
     inkscape:cy="26.331525"
     inkscape:document-units="px"
     inkscape:current-layer="layer1"
     inkscape:document-rotation="0"
     showgrid="false"
     units="px"
     inkscape:window-width="1920"
     inkscape:window-height="1002"
     inkscape:window-x="0"
     inkscape:window-y="0"
     inkscape:window-maximized="1" />
  <metadata
     id="metadata5">
    <rdf:RDF>
      <cc:Work
         rdf:about="">
        <dc:format>image/svg+xml</dc:format>
        <dc:type
           rdf:resource="http://purl.org/dc/dcmitype/StillImage" />
        <dc:title></dc:title>
      </cc:Work>
    </rdf:RDF>
  </metadata>
  <g
     inkscape:label="Capa 1"
     inkscape:groupmode="layer"
     id="layer1">
    <path
       transform="matrix(0.26458333,0,0,0.26458333,0.25321455,3.9047208)"
       d="m 1.0429688,-8.75 v 2 2 20 H 29.042969 v -20 -2 H 9.0429688 v -2 z"
       style="opacity:0.5;fill:#000000;fill-opacity:1;stroke-width:3.48758;filter:url(#filter851)"
       id="rect840-0" />
    <path
       id="rect840-7"
       style="opacity:1;fill:#ffc86a;fill-opacity:1;stroke-width:0.922756"
       d="m 0.52916668,1.5896163 v 0.529167 0.529166 5.291667 H 7.9375 V 2.6479493 2.1187833 H 2.6458333 v -0.529167 z" />
    <path
       id="path859"
       style="opacity:0.15;fill:#000000;fill-opacity:1;stroke-width:0.932096"
       d="M 2 6 L 2 8 L 2 10 L 30 10 L 30 8 L 10 8 L 10 6 L 2 6 z "
       transform="scale(0.26458333)" />
    <path
       inkscape:connector-curvature="0"
       id="path4"
       d="M 5.510626,3.4395833 3.8026482,3.8807893 C 3.6743293,3.9151411 3.5708027,4.051714 3.5708027,4.1844347 V 6.2887896 C 3.4406836,6.2207202 3.2735593,6.1932077 3.1003067,6.2381821 2.7876705,6.3193378 2.5919574,6.5815457 2.658974,6.8238498 2.7259907,7.0661539 3.034098,7.2012916 3.3467339,7.120134 3.5961531,7.0553889 3.7679371,6.8725658 3.7953575,6.6793882 l 0.00729,-1.9888777 1.621461,-0.4338449 V 5.8259604 C 5.2939888,5.7578909 5.1268649,5.7303778 4.9536134,5.7753527 4.6409769,5.856509 4.4447779,6.1187146 4.5117943,6.3610204 4.5788107,6.6033243 4.886919,6.7384625 5.1995545,6.6573048 5.4489742,6.592559 5.6207578,6.4097373 5.648178,6.2165589 l 0.00729,-2.5888075 c 2.7e-6,-0.09954 -0.061652,-0.1741665 -0.14484,-0.1881681 z"
       class="ColorScheme-Text"
       style="color:#4d4d4d;opacity:0.3;fill:#000000;fill-opacity:1;stroke:none;stroke-width:0.23151" />
  </g>
</svg>
