<?xml version="1.0" encoding="UTF-8" standalone="no"?>
<svg
   xmlns:dc="http://purl.org/dc/elements/1.1/"
   xmlns:cc="http://creativecommons.org/ns#"
   xmlns:rdf="http://www.w3.org/1999/02/22-rdf-syntax-ns#"
   xmlns:svg="http://www.w3.org/2000/svg"
   xmlns="http://www.w3.org/2000/svg"
   xmlns:sodipodi="http://sodipodi.sourceforge.net/DTD/sodipodi-0.dtd"
   xmlns:inkscape="http://www.inkscape.org/namespaces/inkscape"
   sodipodi:docname="application-x-desktop.svg"
   inkscape:version="0.92.5 (2060ec1f9f, 2020-04-08)"
   id="svg8"
   version="1.1"
   viewBox="0 0 8.4666665 8.4666669"
   height="32"
   width="32">
  <defs
     id="defs2">
    <filter
       inkscape:collect="always"
       style="color-interpolation-filters:sRGB"
       id="filter978"
       x="-0.117"
       width="1.234"
       y="-0.10028572"
       height="1.2005714">
      <feGaussianBlur
         inkscape:collect="always"
         stdDeviation="0.30956249"
         id="feGaussianBlur980" />
    </filter>
  </defs>
  <sodipodi:namedview
     inkscape:window-maximized="1"
     inkscape:window-y="24"
     inkscape:window-x="65"
     inkscape:window-height="1056"
     inkscape:window-width="1855"
     units="px"
     showgrid="false"
     inkscape:document-rotation="0"
     inkscape:current-layer="layer1"
     inkscape:document-units="px"
     inkscape:cy="16.245823"
     inkscape:cx="3.3811817"
     inkscape:zoom="9.0045629"
     inkscape:pageshadow="2"
     inkscape:pageopacity="0.0"
     borderopacity="1.0"
     bordercolor="#666666"
     pagecolor="#ffffff"
     id="base" />
  <metadata
     id="metadata5">
    <rdf:RDF>
      <cc:Work
         rdf:about="">
        <dc:format>image/svg+xml</dc:format>
        <dc:type
           rdf:resource="http://purl.org/dc/dcmitype/StillImage" />
        <dc:title></dc:title>
      </cc:Work>
    </rdf:RDF>
  </metadata>
  <g
     id="layer1"
     inkscape:groupmode="layer"
     inkscape:label="Capa 1">
    <path
       style="opacity:0.5;fill:#000000;fill-opacity:1;stroke:none;stroke-width:2.29352999;filter:url(#filter978)"
       d="M 1.0583334,0.5291668 V 7.9374999 H 7.4083333 V 2.1166666 l -1.5875,-1.5874998 z"
       id="path926-2"
       inkscape:connector-curvature="0" />
    <path
       style="opacity:1;fill:#f5f5f5;fill-opacity:1;stroke:none;stroke-width:2.29352999"
       d="M 1.0583334,0.52916675 V 7.9374999 H 7.4083333 V 2.1166666 l -1.5875,-1.58749985 z"
       id="path926"
       inkscape:connector-curvature="0" />
    <path
       inkscape:connector-curvature="0"
       style="opacity:0.2;fill:#000000;fill-opacity:1;stroke:none;stroke-width:2.29352999"
       d="M 5.8208333,0.52916675 V 2.1166669 h 1.5875 z"
       id="path926-1" />
    <path
       inkscape:connector-curvature="0"
       id="path4"
       d="m 4.1223392,7.4083334 c -0.2458942,0 -0.4438216,-0.1982158 -0.4438216,-0.4444688 V 6.7555053 A 1.6644476,1.6668751 0 0 1 3.1535788,6.4518028 L 2.9732329,6.5559824 C 2.7602817,6.6791089 2.4898143,6.6064631 2.3668669,6.3932018 L 2.2558729,6.2009653 C 2.1329258,5.9877037 2.2054658,5.7168421 2.4184168,5.5937156 L 2.5979889,5.489846 A 1.6644476,1.6668751 0 0 1 2.5688853,5.1858334 1.6644476,1.6668751 0 0 1 2.5979889,4.8818211 L 2.4184168,4.7779512 C 2.2054658,4.6548247 2.1329258,4.3839631 2.2558729,4.1707018 L 2.3668669,3.9784653 C 2.4898143,3.7652037 2.7602817,3.6925582 2.9732329,3.8156847 L 3.1523402,3.9192442 A 1.6644476,1.6668751 0 0 1 3.6785176,3.616627 V 3.4078025 c 0,-0.246253 0.1979274,-0.4444691 0.4438216,-0.4444691 h 0.2219884 c 0.2458945,0 0.4438216,0.1982161 0.4438216,0.4444691 V 3.6174019 A 1.6644476,1.6668751 0 0 1 5.3130878,3.9198641 L 5.4934342,3.8156847 C 5.7063848,3.6925582 5.9768523,3.7652037 6.0997996,3.9784653 L 6.2107937,4.1707018 C 6.3337408,4.3839631 6.2612005,4.6548247 6.0482498,4.7779512 L 5.8686776,4.8818211 a 1.6644476,1.6668751 0 0 1 0.029103,0.3040123 1.6644476,1.6668751 0 0 1 -0.029103,0.3040126 l 0.1795722,0.1038696 c 0.212951,0.1231265 0.285491,0.3939881 0.1625439,0.6072497 L 6.0997996,6.3932018 C 5.9768523,6.6064631 5.7063848,6.6791089 5.4934342,6.5559824 L 5.3143263,6.4524227 A 1.6644476,1.6668751 0 0 1 4.7881492,6.7551952 v 0.2086694 c 0,0.246253 -0.1979271,0.4444688 -0.4438216,0.4444688 z m 0.1109941,-1.270155 c 0.5252696,0 0.951113,-0.4264642 0.951113,-0.9525 0,-0.5260356 -0.4258434,-0.952345 -0.951113,-0.952345 -0.5252696,0 -0.9511128,0.4263094 -0.9511128,0.952345 0,0.5260358 0.4258432,0.9525 0.9511128,0.9525 z"
       style="opacity:0.5;fill:#000000;fill-opacity:1;stroke-width:0.0793171" />
  </g>
</svg>
