<?xml version="1.0" encoding="UTF-8" standalone="no"?>
<svg
   xmlns:dc="http://purl.org/dc/elements/1.1/"
   xmlns:cc="http://creativecommons.org/ns#"
   xmlns:rdf="http://www.w3.org/1999/02/22-rdf-syntax-ns#"
   xmlns:svg="http://www.w3.org/2000/svg"
   xmlns="http://www.w3.org/2000/svg"
   xmlns:sodipodi="http://sodipodi.sourceforge.net/DTD/sodipodi-0.dtd"
   xmlns:inkscape="http://www.inkscape.org/namespaces/inkscape"
   sodipodi:docname="application-pdf.svg"
   inkscape:version="0.92.5 (2060ec1f9f, 2020-04-08)"
   id="svg8"
   version="1.1"
   viewBox="0 0 8.4666665 8.4666669"
   height="32"
   width="32">
  <defs
     id="defs2">
    <filter
       inkscape:collect="always"
       style="color-interpolation-filters:sRGB"
       id="filter978"
       x="-0.117"
       width="1.234"
       y="-0.10028572"
       height="1.2005714">
      <feGaussianBlur
         inkscape:collect="always"
         stdDeviation="0.30956249"
         id="feGaussianBlur980" />
    </filter>
  </defs>
  <sodipodi:namedview
     inkscape:window-maximized="1"
     inkscape:window-y="24"
     inkscape:window-x="65"
     inkscape:window-height="1056"
     inkscape:window-width="1855"
     units="px"
     showgrid="false"
     inkscape:document-rotation="0"
     inkscape:current-layer="layer1"
     inkscape:document-units="px"
     inkscape:cy="33.181681"
     inkscape:cx="4.1892948"
     inkscape:zoom="9.0045629"
     inkscape:pageshadow="2"
     inkscape:pageopacity="0.0"
     borderopacity="1.0"
     bordercolor="#666666"
     pagecolor="#ffffff"
     id="base" />
  <metadata
     id="metadata5">
    <rdf:RDF>
      <cc:Work
         rdf:about="">
        <dc:format>image/svg+xml</dc:format>
        <dc:type
           rdf:resource="http://purl.org/dc/dcmitype/StillImage" />
        <dc:title></dc:title>
      </cc:Work>
    </rdf:RDF>
  </metadata>
  <g
     id="layer1"
     inkscape:groupmode="layer"
     inkscape:label="Capa 1">
    <path
       style="opacity:0.5;fill:#000000;fill-opacity:1;stroke:none;stroke-width:2.29352999;filter:url(#filter978)"
       d="M 1.0583334,0.5291668 V 7.9374999 H 7.4083333 V 2.1166666 l -1.5875,-1.5874998 z"
       id="path926-2"
       inkscape:connector-curvature="0" />
    <path
       style="opacity:1;fill:#d00d0d;fill-opacity:1;stroke:none;stroke-width:2.29352999"
       d="M 1.0583334,0.52916675 V 7.9374999 H 7.4083333 V 2.1166666 l -1.5875,-1.58749985 z"
       id="path926"
       inkscape:connector-curvature="0" />
    <path
       inkscape:connector-curvature="0"
       style="opacity:0.2;fill:#000000;fill-opacity:1;stroke:none;stroke-width:2.29352999"
       d="M 5.8208333,0.52916675 V 2.1166669 h 1.5875 z"
       id="path926-1" />
    <path
       sodipodi:type="inkscape:offset"
       inkscape:radius="0"
       inkscape:original="M -6.0507812 -9.1503906 L -6.0507812 -1.4355469 L -4.0625 -1.4355469 L -4.0625 -4.1132812 L -2.7480469 -4.1132812 C -1.7661947 -4.1132812 -1.0138889 -4.3295899 -0.49023438 -4.7636719 C 0.036865219 -5.201199 0.30078125 -5.8251682 0.30078125 -6.6347656 C 0.30078125 -7.4409179 0.036865219 -8.0600586 -0.49023438 -8.4941406 C -1.0138889 -8.9316677 -1.7661947 -9.1503906 -2.7480469 -9.1503906 L -6.0507812 -9.1503906 z M 1.7050781 -9.1503906 L 1.7050781 -1.4355469 L 3.8027344 -1.4355469 C 4.9602864 -1.4355469 5.8294271 -1.5182292 6.4082031 -1.6835938 C 6.9869791 -1.8524034 7.4830729 -2.1374783 7.8964844 -2.5371094 C 8.2582194 -2.885064 8.5274251 -3.2854818 8.703125 -3.7402344 C 8.8788249 -4.1984321 8.9667969 -4.7185601 8.9667969 -5.3007812 C 8.9667969 -5.8761122 8.8788249 -6.3909505 8.703125 -6.8457031 C 8.5274251 -7.3004557 8.2582194 -7.7028266 7.8964844 -8.0507812 C 7.486518 -8.4504123 6.9932997 -8.7330729 6.4179688 -8.8984375 C 5.8460829 -9.0672472 4.9740668 -9.1503906 3.8027344 -9.1503906 L 1.7050781 -9.1503906 z M 10.490234 -9.1503906 L 10.490234 -1.4355469 L 12.480469 -1.4355469 L 12.480469 -4.7070312 L 15.658203 -4.7070312 L 15.658203 -6.2109375 L 12.480469 -6.2109375 L 12.480469 -7.6464844 L 15.859375 -7.6464844 L 15.859375 -9.1503906 L 10.490234 -9.1503906 z M -4.0625 -7.7089844 L -2.9609375 -7.7089844 C -2.5750868 -7.7089844 -2.2765571 -7.6157227 -2.0664062 -7.4296875 C -1.8562554 -7.2436523 -1.7519531 -6.9792752 -1.7519531 -6.6347656 C -1.7519531 -6.2902561 -1.8562554 -6.0234646 -2.0664062 -5.8339844 C -2.2765571 -5.6479492 -2.5750868 -5.5546875 -2.9609375 -5.5546875 L -4.0625 -5.5546875 L -4.0625 -7.7089844 z M 3.6953125 -7.6464844 L 4.4082031 -7.6464844 C 5.2246907 -7.6464844 5.8462457 -7.4465061 6.2734375 -7.046875 C 6.7006293 -6.6472439 6.9140625 -6.0655924 6.9140625 -5.3007812 C 6.9140625 -4.532525 6.7001682 -3.9460449 6.2695312 -3.5429688 C 5.8423394 -3.1398926 5.2212456 -2.9394531 4.4082031 -2.9394531 L 3.6953125 -2.9394531 L 3.6953125 -7.6464844 z "
       style="font-style:normal;font-weight:normal;font-size:10.58333302px;line-height:1.25;font-family:sans-serif;letter-spacing:0px;word-spacing:0px;fill:#ffffff;fill-opacity:1;stroke:none;stroke-width:0.26458332"
       id="text992"
       d="m -6.0507812,-9.1503906 v 7.7148437 H -4.0625 v -2.6777343 h 1.3144531 c 0.9818522,0 1.734158,-0.2163087 2.25781252,-0.6503907 0.5270996,-0.4375271 0.79101563,-1.0614963 0.79101563,-1.8710937 0,-0.8061523 -0.26391603,-1.425293 -0.79101563,-1.859375 -0.52365452,-0.4375271 -1.27596032,-0.65625 -2.25781252,-0.65625 z m 7.7558593,0 v 7.7148437 h 2.0976563 c 1.157552,0 2.0266927,-0.082682 2.6054687,-0.2480469 0.578776,-0.1688096 1.0748698,-0.4538845 1.4882813,-0.8535156 0.361735,-0.3479546 0.6309407,-0.7483724 0.8066406,-1.203125 0.1756999,-0.4581977 0.2636719,-0.9783257 0.2636719,-1.5605468 0,-0.575331 -0.087972,-1.0901693 -0.2636719,-1.5449219 C 8.5274251,-7.3004557 8.2582194,-7.7028266 7.8964844,-8.0507812 7.486518,-8.4504123 6.9932997,-8.7330729 6.4179688,-8.8984375 5.8460829,-9.0672472 4.9740668,-9.1503906 3.8027344,-9.1503906 Z m 8.7851559,0 v 7.7148437 h 1.990235 v -3.2714843 h 3.177734 v -1.5039063 h -3.177734 v -1.4355469 h 3.378906 V -9.1503906 Z M -4.0625,-7.7089844 h 1.1015625 c 0.3858507,0 0.6843804,0.093262 0.8945313,0.2792969 0.2101508,0.1860352 0.3144531,0.4504123 0.3144531,0.7949219 0,0.3445095 -0.1043023,0.611301 -0.3144531,0.8007812 -0.2101509,0.1860352 -0.5086806,0.2792969 -0.8945313,0.2792969 H -4.0625 Z m 7.7578125,0.0625 h 0.7128906 c 0.8164876,0 1.4380426,0.1999783 1.8652344,0.5996094 0.4271918,0.3996311 0.640625,0.9812826 0.640625,1.7460938 0,0.7682562 -0.2138943,1.3547363 -0.6445313,1.7578124 -0.4271918,0.4030762 -1.0482856,0.6035157 -1.8613281,0.6035157 H 3.6953125 Z"
       transform="matrix(0.20577215,0,0,0.20577215,3.2241656,7.7037289)" />
  </g>
</svg>
