<?xml version="1.0" encoding="UTF-8" standalone="no"?>
<svg
   xmlns:dc="http://purl.org/dc/elements/1.1/"
   xmlns:cc="http://creativecommons.org/ns#"
   xmlns:rdf="http://www.w3.org/1999/02/22-rdf-syntax-ns#"
   xmlns:svg="http://www.w3.org/2000/svg"
   xmlns="http://www.w3.org/2000/svg"
   xmlns:xlink="http://www.w3.org/1999/xlink"
   xmlns:sodipodi="http://sodipodi.sourceforge.net/DTD/sodipodi-0.dtd"
   xmlns:inkscape="http://www.inkscape.org/namespaces/inkscape"
   sodipodi:docname="application-x-srt.svg"
   inkscape:version="0.92.5 (2060ec1f9f, 2020-04-08)"
   id="svg8"
   version="1.1"
   viewBox="0 0 8.4666665 8.4666669"
   height="32"
   width="32">
  <defs
     id="defs2">
    <filter
       inkscape:collect="always"
       style="color-interpolation-filters:sRGB"
       id="filter978"
       x="-0.117"
       width="1.234"
       y="-0.10028572"
       height="1.2005714">
      <feGaussianBlur
         inkscape:collect="always"
         stdDeviation="0.30956249"
         id="feGaussianBlur980" />
    </filter>
    <linearGradient
       gradientTransform="matrix(0.57142858,0,0,0.57142858,1.8142859,2.6080357)"
       gradientUnits="userSpaceOnUse"
       y2="4.2333331"
       x2="7.4083333"
       y1="4.2333331"
       x1="1.0583334"
       id="linearGradient1221"
       xlink:href="#linearGradient1219"
       inkscape:collect="always" />
    <linearGradient
       id="linearGradient1219"
       inkscape:collect="always">
      <stop
         id="stop1215"
         offset="0"
         style="stop-color:#666699;stop-opacity:1;" />
      <stop
         id="stop1217"
         offset="1"
         style="stop-color:#bb4479;stop-opacity:1" />
    </linearGradient>
  </defs>
  <sodipodi:namedview
     inkscape:window-maximized="1"
     inkscape:window-y="24"
     inkscape:window-x="65"
     inkscape:window-height="1056"
     inkscape:window-width="1855"
     units="px"
     showgrid="false"
     inkscape:document-rotation="0"
     inkscape:current-layer="layer1"
     inkscape:document-units="px"
     inkscape:cy="10.304391"
     inkscape:cx="3.2701269"
     inkscape:zoom="9.0045629"
     inkscape:pageshadow="2"
     inkscape:pageopacity="0.0"
     borderopacity="1.0"
     bordercolor="#666666"
     pagecolor="#ffffff"
     id="base" />
  <metadata
     id="metadata5">
    <rdf:RDF>
      <cc:Work
         rdf:about="">
        <dc:format>image/svg+xml</dc:format>
        <dc:type
           rdf:resource="http://purl.org/dc/dcmitype/StillImage" />
        <dc:title></dc:title>
      </cc:Work>
    </rdf:RDF>
  </metadata>
  <g
     id="layer1"
     inkscape:groupmode="layer"
     inkscape:label="Capa 1">
    <path
       style="opacity:0.5;fill:#000000;fill-opacity:1;stroke:none;stroke-width:2.29352999;filter:url(#filter978)"
       d="M 1.0583334,0.5291668 V 7.9374999 H 7.4083333 V 2.1166666 l -1.5875,-1.5874998 z"
       id="path926-2"
       inkscape:connector-curvature="0" />
    <path
       style="opacity:1;fill:#f5f5f5;fill-opacity:1;stroke:none;stroke-width:2.29352999"
       d="M 1.0583334,0.52916675 V 7.9374999 H 7.4083333 V 2.1166666 l -1.5875,-1.58749985 z"
       id="path926"
       inkscape:connector-curvature="0" />
    <path
       inkscape:connector-curvature="0"
       style="opacity:0.2;fill:#000000;fill-opacity:1;stroke:none;stroke-width:2.29352999"
       d="M 5.8208333,0.52916675 V 2.1166669 h 1.5875 z"
       id="path926-1" />
    <path
       inkscape:connector-curvature="0"
       d="M 6.35,2.9104167 H 2.1166667 V 7.14375 H 6.35 Z M 6.1988097,3.0616071 V 3.363988 H 5.8964288 V 3.0616071 Z m 0,3.6285714 v 0.302381 H 5.8964288 V 6.6901785 Z M 5.5940476,3.0616071 V 3.363988 H 5.2916667 V 3.0616071 Z m 0,3.6285714 v 0.302381 H 5.2916667 V 6.6901785 Z M 4.9892858,3.0616071 V 3.363988 H 4.686905 V 3.0616071 Z m 0,3.6285714 v 0.302381 H 4.686905 V 6.6901785 Z M 4.384524,3.0616071 V 3.363988 H 4.0821431 V 3.0616071 Z m 0,3.6285714 v 0.302381 H 4.0821431 V 6.6901785 Z M 3.7797621,3.0616071 V 3.363988 H 3.4773811 V 3.0616071 Z m 0,3.6285714 v 0.302381 H 3.4773811 V 6.6901785 Z M 3.1750001,3.0616071 V 3.363988 H 2.8726191 V 3.0616071 Z m 0,3.6285714 v 0.302381 H 2.8726191 V 6.6901785 Z M 2.5702381,3.0616071 V 3.363988 H 2.2678572 V 3.0616071 Z m 0,3.6285714 v 0.302381 H 2.2678572 v -0.302381 z"
       style="opacity:1;fill:#000000;fill-opacity:1;stroke:none;stroke-width:1.41559994"
       id="rect833-6" />
    <rect
       y="3.6663692"
       x="2.4190478"
       height="2.7214282"
       width="3.6285715"
       id="rect1061"
       style="opacity:1;fill:url(#linearGradient1221);fill-opacity:1;stroke:none;stroke-width:0.224793;stroke-miterlimit:4;stroke-dasharray:none" />
    <path
       inkscape:connector-curvature="0"
       id="path1175"
       d="M 2.4190477,3.666369 V 6.3877974 L 6.0476191,3.666369 Z"
       style="fill:none;stroke:none;stroke-width:0.15119px;stroke-linecap:butt;stroke-linejoin:miter;stroke-opacity:1" />
    <g
       transform="matrix(0.11337269,0,0,0.11337269,2.4895933,4.8201358)"
       style="font-size:10.58329964px;line-height:1.25;font-family:Digital-7;-inkscape-font-specification:Digital-7;opacity:1;fill:#000000;fill-opacity:1;stroke-width:0.26458299"
       id="text846-9"
       aria-label="ABC">
      <path
         inkscape:connector-curvature="0"
         id="path848-2"
         style="font-style:normal;font-variant:normal;font-weight:normal;font-stretch:normal;font-family:'Liberation Sans';-inkscape-font-specification:'Liberation Sans';fill:#000000;fill-opacity:1;stroke-width:0.26458299"
         d="M 10.721989,6.1478696 9.8900006,4.0188074 H 6.5723842 L 5.7352287,6.1478696 H 4.7120386 L 7.683424,-1.1333165 h 1.121375 l 2.924877,7.2811861 z M 8.2311924,-0.38917828 8.1846838,-0.24448473 Q 8.0554931,0.18442829 7.8022794,0.85621977 L 6.8721066,3.248831 H 9.5954459 L 8.6601055,0.84588451 Q 8.5154119,0.48931827 8.3707184,0.03973474 Z" />
      <path
         inkscape:connector-curvature="0"
         id="path850-3"
         style="font-style:normal;font-variant:normal;font-weight:normal;font-stretch:normal;font-family:'Liberation Sans';-inkscape-font-specification:'Liberation Sans';fill:#000000;fill-opacity:1;stroke-width:0.26458299"
         d="m 18.251221,4.0963218 q 0,0.9715138 -0.707965,1.5141146 -0.707965,0.5374332 -1.968866,0.5374332 h -2.955883 v -7.2811861 h 2.645825 q 2.563143,0 2.563143,1.76732832 0,0.64595338 -0.361734,1.08520158 -0.361733,0.4392483 -1.02319,0.5891095 0.868162,0.1033525 1.338416,0.5839418 0.470254,0.4754217 0.470254,1.2040571 z m -1.41593,-3.34345457 q 0,-0.58910945 -0.403075,-0.84232316 -0.403075,-0.25321371 -1.167884,-0.25321371 H 13.605524 V 1.9620919 h 1.658808 q 0.790647,0 1.178219,-0.2945547 0.39274,-0.2997224 0.39274,-0.91466997 z m 0.418578,3.26594017 q 0,-1.2867391 -1.80867,-1.2867391 h -1.839675 v 2.6251544 h 1.91719 q 0.904334,0 1.317745,-0.3358958 0.41341,-0.3358957 0.41341,-1.0025195 z" />
      <path
         inkscape:connector-curvature="0"
         id="path852-7"
         style="font-style:normal;font-variant:normal;font-weight:normal;font-stretch:normal;font-family:'Liberation Sans';-inkscape-font-specification:'Liberation Sans';fill:#000000;fill-opacity:1;stroke-width:0.26458299"
         d="m 22.902085,-0.43568693 q -1.209225,0 -1.881016,0.78031165 -0.671792,0.77514398 -0.671792,2.12906218 0,1.3384154 0.69763,2.1549004 0.702797,0.8113174 1.896519,0.8113174 1.529617,0 2.299594,-1.5141146 l 0.806149,0.4030749 q -0.449583,0.940508 -1.266068,1.4314326 -0.811318,0.4909245 -1.886184,0.4909245 -1.100704,0 -1.906854,-0.4547511 Q 20.189081,5.3365522 19.765335,4.4890614 19.346757,3.636403 19.346757,2.4736869 q 0,-1.74149017 0.940509,-2.72850689 0.940508,-0.98701671 2.604483,-0.98701671 1.162716,0 1.943028,0.45475115 0.780312,0.45475116 1.147213,1.34875059 l -0.93534,0.31005761 q -0.253214,-0.63561809 -0.816485,-0.97151383 -0.558104,-0.33589575 -1.32808,-0.33589575 z" />
    </g>
    <g
       aria-label="ABC"
       id="text846"
       style="font-size:10.58329964px;line-height:1.25;font-family:Digital-7;-inkscape-font-specification:Digital-7;fill:#ffffff;fill-opacity:1;stroke-width:0.26458299"
       transform="matrix(0.11337269,0,0,0.11337269,2.4895933,4.7431198)">
      <path
         inkscape:connector-curvature="0"
         d="M 10.721989,6.1478696 9.8900006,4.0188074 H 6.5723842 L 5.7352287,6.1478696 H 4.7120386 L 7.683424,-1.1333165 h 1.121375 l 2.924877,7.2811861 z M 8.2311924,-0.38917828 8.1846838,-0.24448473 Q 8.0554931,0.18442829 7.8022794,0.85621977 L 6.8721066,3.248831 H 9.5954459 L 8.6601055,0.84588451 Q 8.5154119,0.48931827 8.3707184,0.03973474 Z"
         style="font-style:normal;font-variant:normal;font-weight:normal;font-stretch:normal;font-family:'Liberation Sans';-inkscape-font-specification:'Liberation Sans';fill:#ffffff;fill-opacity:1;stroke-width:0.26458299"
         id="path848" />
      <path
         inkscape:connector-curvature="0"
         d="m 18.251221,4.0963218 q 0,0.9715138 -0.707965,1.5141146 -0.707965,0.5374332 -1.968866,0.5374332 h -2.955883 v -7.2811861 h 2.645825 q 2.563143,0 2.563143,1.76732832 0,0.64595338 -0.361734,1.08520158 -0.361733,0.4392483 -1.02319,0.5891095 0.868162,0.1033525 1.338416,0.5839418 0.470254,0.4754217 0.470254,1.2040571 z m -1.41593,-3.34345457 q 0,-0.58910945 -0.403075,-0.84232316 -0.403075,-0.25321371 -1.167884,-0.25321371 H 13.605524 V 1.9620919 h 1.658808 q 0.790647,0 1.178219,-0.2945547 0.39274,-0.2997224 0.39274,-0.91466997 z m 0.418578,3.26594017 q 0,-1.2867391 -1.80867,-1.2867391 h -1.839675 v 2.6251544 h 1.91719 q 0.904334,0 1.317745,-0.3358958 0.41341,-0.3358957 0.41341,-1.0025195 z"
         style="font-style:normal;font-variant:normal;font-weight:normal;font-stretch:normal;font-family:'Liberation Sans';-inkscape-font-specification:'Liberation Sans';fill:#ffffff;fill-opacity:1;stroke-width:0.26458299"
         id="path850" />
      <path
         inkscape:connector-curvature="0"
         d="m 22.902085,-0.43568693 q -1.209225,0 -1.881016,0.78031165 -0.671792,0.77514398 -0.671792,2.12906218 0,1.3384154 0.69763,2.1549004 0.702797,0.8113174 1.896519,0.8113174 1.529617,0 2.299594,-1.5141146 l 0.806149,0.4030749 q -0.449583,0.940508 -1.266068,1.4314326 -0.811318,0.4909245 -1.886184,0.4909245 -1.100704,0 -1.906854,-0.4547511 Q 20.189081,5.3365522 19.765335,4.4890614 19.346757,3.636403 19.346757,2.4736869 q 0,-1.74149017 0.940509,-2.72850689 0.940508,-0.98701671 2.604483,-0.98701671 1.162716,0 1.943028,0.45475115 0.780312,0.45475116 1.147213,1.34875059 l -0.93534,0.31005761 q -0.253214,-0.63561809 -0.816485,-0.97151383 -0.558104,-0.33589575 -1.32808,-0.33589575 z"
         style="font-style:normal;font-variant:normal;font-weight:normal;font-stretch:normal;font-family:'Liberation Sans';-inkscape-font-specification:'Liberation Sans';fill:#ffffff;fill-opacity:1;stroke-width:0.26458299"
         id="path852" />
    </g>
  </g>
</svg>
