<?xml version="1.0" encoding="UTF-8" standalone="no"?>
<svg
   xmlns:dc="http://purl.org/dc/elements/1.1/"
   xmlns:cc="http://creativecommons.org/ns#"
   xmlns:rdf="http://www.w3.org/1999/02/22-rdf-syntax-ns#"
   xmlns:svg="http://www.w3.org/2000/svg"
   xmlns="http://www.w3.org/2000/svg"
   xmlns:xlink="http://www.w3.org/1999/xlink"
   xmlns:sodipodi="http://sodipodi.sourceforge.net/DTD/sodipodi-0.dtd"
   xmlns:inkscape="http://www.inkscape.org/namespaces/inkscape"
   sodipodi:docname="application-rar.svg"
   inkscape:version="1.0 (4035a4fb49, 2020-05-01)"
   id="svg8"
   version="1.1"
   viewBox="0 0 8.4666665 8.4666669"
   height="32"
   width="32">
  <defs
     id="defs2">
    <linearGradient
       inkscape:collect="always"
       id="linearGradient842">
      <stop
         style="stop-color:#ecd7c5;stop-opacity:1"
         offset="0"
         id="stop838" />
      <stop
         id="stop846"
         offset="0.72917265"
         style="stop-color:#ecd7c5;stop-opacity:1" />
      <stop
         style="stop-color:#e4c5aa;stop-opacity:1"
         offset="0.72917265"
         id="stop848" />
      <stop
         style="stop-color:#e4c5aa;stop-opacity:1"
         offset="1"
         id="stop840" />
    </linearGradient>
    <linearGradient
       inkscape:collect="always"
       xlink:href="#linearGradient842"
       id="linearGradient844"
       x1="4.2306323"
       y1="0.53192043"
       x2="4.2281427"
       y2="7.9494543"
       gradientUnits="userSpaceOnUse"
       spreadMethod="pad"
       gradientTransform="translate(0,-8.4666667)" />
    <filter
       inkscape:collect="always"
       style="color-interpolation-filters:sRGB"
       id="filter857"
       x="-0.108"
       width="1.216"
       y="-0.108"
       height="1.216">
      <feGaussianBlur
         inkscape:collect="always"
         stdDeviation="0.333375"
         id="feGaussianBlur859" />
    </filter>
  </defs>
  <sodipodi:namedview
     inkscape:window-maximized="1"
     inkscape:window-y="0"
     inkscape:window-x="0"
     inkscape:window-height="1002"
     inkscape:window-width="1920"
     units="px"
     showgrid="false"
     inkscape:document-rotation="0"
     inkscape:current-layer="layer1"
     inkscape:document-units="px"
     inkscape:cy="13.143636"
     inkscape:cx="6.5055535"
     inkscape:zoom="12.734375"
     inkscape:pageshadow="2"
     inkscape:pageopacity="0.0"
     borderopacity="1.0"
     bordercolor="#666666"
     pagecolor="#ffffff"
     id="base" />
  <metadata
     id="metadata5">
    <rdf:RDF>
      <cc:Work
         rdf:about="">
        <dc:format>image/svg+xml</dc:format>
        <dc:type
           rdf:resource="http://purl.org/dc/dcmitype/StillImage" />
        <dc:title></dc:title>
      </cc:Work>
    </rdf:RDF>
  </metadata>
  <g
     id="layer1"
     inkscape:groupmode="layer"
     inkscape:label="Capa 1">
    <rect
       transform="matrix(1,0,0,-1,-6.6531609,0.32536061)"
       style="opacity:0.5;mix-blend-mode:normal;fill:#000000;fill-opacity:1;stroke:none;stroke-width:2.4773;filter:url(#filter857)"
       id="rect833-7"
       width="7.4083333"
       height="7.4083333"
       x="7.1823277"
       y="-7.6121392"
       rx="0.52073359"
       ry="0.52073359" />
    <rect
       y="-7.9375"
       x="0.5291667"
       height="7.4083333"
       width="7.4083333"
       id="rect833"
       style="opacity:1;fill:url(#linearGradient844);fill-opacity:1;stroke:none;stroke-width:2.4773"
       transform="scale(1,-1)"
       rx="0.53438455"
       ry="0.53438455" />
    <rect
       style="opacity:0.5;fill:#ffffff;fill-opacity:1;stroke-width:1.45149"
       id="rect850"
       width="1.0583334"
       height="3.175"
       x="3.7041667"
       y="0.5291667" />
    <rect
       ry="0"
       rx="0"
       style="opacity:1;fill:#b265cb;fill-opacity:1;stroke:none;stroke-width:1.00098"
       id="rect833-9"
       width="4.2333336"
       height="2.1166668"
       x="0"
       y="1.5875" />
    <g
       transform="matrix(0.20184033,0,0,0.20184033,1.1431215,2.5615253)"
       style="font-style:normal;font-weight:normal;font-size:10.5833px;line-height:1.25;font-family:sans-serif;fill:#ffffff;fill-opacity:1;stroke:none;stroke-width:0.264583"
       id="text875"
       aria-label="Rar">
      <path
         id="path877"
         style="stroke-width:0.264583;fill:#ffffff;fill-opacity:1"
         d="M 0.02261812,0.58306113 Q 0.35851386,0.69674892 0.67373909,1.068818 0.99413195,1.4408872 1.3145248,2.0920082 L 2.3738883,4.2003999 H 1.2525133 L 0.26549658,2.2211988 Q -0.1169078,1.4460548 -0.47864168,1.1928411 -0.83520793,0.93962738 -1.4553231,0.93962738 H -2.592201 V 4.2003999 h -1.0438606 v -7.7152668 h 2.3564378 q 1.32291243,0 1.9740334,0.5529361 0.651121,0.552936 0.651121,1.6691434 0,0.72863539 -0.3410634,1.20922468 Q 0.66857147,0.39702657 0.02261812,0.58306113 Z M -2.592201,-2.6570409 v 2.73884224 h 1.3125772 q 0.75447348,0 1.13687786,-0.346231 0.38757201,-0.35139862 0.38757201,-1.02835774 0,-0.6769591 -0.38757201,-1.0180225 -0.38240438,-0.346231 -1.13687786,-0.346231 z" />
      <path
         id="path879"
         style="stroke-width:0.264583;fill:#ffffff;fill-opacity:1"
         d="m 6.0739092,1.291026 q -1.1523808,0 -1.5967967,0.263549 -0.4444159,0.2635489 -0.4444159,0.899167 0,0.5064274 0.3307281,0.8061498 0.3358958,0.2945547 0.9095023,0.2945547 0.7906469,0 1.2660686,-0.5581037 Q 7.0195849,2.4330715 7.0195849,1.5028987 V 1.291026 Z M 7.9704282,0.89828637 V 4.2003999 H 7.0195849 V 3.3219033 Q 6.6940244,3.8490013 6.2082675,4.102215 5.7225106,4.3502611 5.0197133,4.3502611 q -0.8888318,0 -1.4159297,-0.4960922 -0.5219303,-0.5012598 -0.5219303,-1.3384154 0,-0.9766814 0.6511209,-1.4727736 0.6562886,-0.49609215 1.953363,-0.49609215 h 1.3332477 v -0.0930173 q 0,-0.6562886 -0.4340807,-1.01285484 -0.428913,-0.36173388 -1.2092246,-0.36173388 -0.4960922,0 -0.9663462,0.11885542 -0.4702541,0.11885541 -0.9043347,0.35656624 V -1.3237931 q 0.5219303,-0.2015375 1.0128548,-0.2997224 0.4909246,-0.1033525 0.956011,-0.1033525 1.2557333,0 1.8758485,0.6511209 0.6201152,0.651121 0.6201152,1.97403347 z" />
      <path
         id="path881"
         style="stroke-width:0.264583;fill:#ffffff;fill-opacity:1"
         d="m 13.282749,-0.69851031 q -0.160197,-0.0930173 -0.351399,-0.13435829 -0.186035,-0.0465086 -0.41341,-0.0465086 -0.80615,0 -1.240231,0.52709793 -0.428913,0.5219303 -0.428913,1.50377937 V 4.2003999 H 9.8927853 v -5.787742 h 0.9560107 v 0.89916705 q 0.299723,-0.52709795 0.780312,-0.78031165 0.480589,-0.2583813 1.167884,-0.2583813 0.09819,0 0.21704,0.015503 0.118855,0.010335 0.263549,0.036173 z" />
    </g>
  </g>
</svg>
