<?xml version="1.0" encoding="UTF-8" standalone="no"?>
<svg
   xmlns:dc="http://purl.org/dc/elements/1.1/"
   xmlns:cc="http://creativecommons.org/ns#"
   xmlns:rdf="http://www.w3.org/1999/02/22-rdf-syntax-ns#"
   xmlns:svg="http://www.w3.org/2000/svg"
   xmlns="http://www.w3.org/2000/svg"
   xmlns:xlink="http://www.w3.org/1999/xlink"
   xmlns:sodipodi="http://sodipodi.sourceforge.net/DTD/sodipodi-0.dtd"
   xmlns:inkscape="http://www.inkscape.org/namespaces/inkscape"
   inkscape:version="1.0 (4035a4fb49, 2020-05-01)"
   sodipodi:docname="application-x-blender.svg"
   id="svg6314"
   version="1"
   height="32"
   width="32">
  <metadata
     id="metadata6320">
    <rdf:RDF>
      <cc:Work
         rdf:about="">
        <dc:format>image/svg+xml</dc:format>
        <dc:type
           rdf:resource="http://purl.org/dc/dcmitype/StillImage" />
        <dc:title></dc:title>
      </cc:Work>
    </rdf:RDF>
  </metadata>
  <defs
     id="defs6318">
    <filter
       inkscape:collect="always"
       style="color-interpolation-filters:sRGB"
       id="filter1994"
       x="-0.117"
       width="1.234"
       y="-0.10028571"
       height="1.2005714">
      <feGaussianBlur
         inkscape:collect="always"
         stdDeviation="1.17"
         id="feGaussianBlur1996" />
    </filter>
    <filter
       height="1.216"
       y="-0.108"
       width="1.216"
       x="-0.108"
       id="filter1106"
       style="color-interpolation-filters:sRGB"
       inkscape:collect="always">
      <feGaussianBlur
         id="feGaussianBlur1108"
         stdDeviation="0.27"
         inkscape:collect="always" />
    </filter>
    <linearGradient
       gradientTransform="matrix(0.61536342,0,0,0.61536342,6.1537977,6.1544605)"
       gradientUnits="userSpaceOnUse"
       y2="17.423519"
       x2="20.340271"
       y1="22.07387"
       x1="17.312513"
       id="linearGradient1116"
       xlink:href="#linearGradient1114"
       inkscape:collect="always" />
    <linearGradient
       id="linearGradient1114"
       inkscape:collect="always">
      <stop
         id="stop1110"
         offset="0"
         style="stop-color:#0e548b;stop-opacity:1;" />
      <stop
         id="stop1112"
         offset="1"
         style="stop-color:#1478c7;stop-opacity:1" />
    </linearGradient>
  </defs>
  <sodipodi:namedview
     inkscape:document-rotation="0"
     inkscape:current-layer="svg6314"
     inkscape:window-maximized="1"
     inkscape:window-y="0"
     inkscape:window-x="0"
     inkscape:cy="11.667789"
     inkscape:cx="8.7902358"
     inkscape:zoom="13.906433"
     showgrid="false"
     id="namedview6316"
     inkscape:window-height="1002"
     inkscape:window-width="1920"
     inkscape:pageshadow="2"
     inkscape:pageopacity="0"
     guidetolerance="10"
     gridtolerance="10"
     objecttolerance="10"
     borderopacity="1"
     bordercolor="#666666"
     pagecolor="#ffffff" />
  <rect
     width="24"
     height="28"
     rx="0"
     ry="0"
     x="4"
     y="2"
     id="rect4897-1"
     style="opacity:0.5;vector-effect:none;fill:#000000;fill-opacity:1;stroke:none;stroke-width:0.472578;stroke-linecap:butt;stroke-linejoin:miter;stroke-miterlimit:4;stroke-dasharray:none;stroke-dashoffset:0;stroke-opacity:1;filter:url(#filter1994)" />
  <rect
     style="opacity:1;vector-effect:none;fill:#e5e5e5;fill-opacity:1;stroke:none;stroke-width:0.472578;stroke-linecap:butt;stroke-linejoin:miter;stroke-miterlimit:4;stroke-dasharray:none;stroke-dashoffset:0;stroke-opacity:1"
     id="rect4897"
     y="2"
     x="4"
     ry="0"
     rx="0"
     height="28"
     width="24" />
  <circle
     transform="matrix(0.61536342,0,0,0.61536342,5.733933,5.5569359)"
     fill="#408ef4"
     cx="20.71068"
     cy="19.97377"
     r="3"
     id="circle8-4"
     style="opacity:0.5;fill:#000000;fill-opacity:1;filter:url(#filter1106)" />
  <circle
     style="fill:url(#linearGradient1116);fill-opacity:1;stroke-width:0.615363"
     id="circle8"
     r="1.8460903"
     cy="17.846365"
     cx="18.461065"
     fill="#408ef4" />
  <path
     d="m 15.765245,8.0005508 a 1.2000818,1.1992818 0 0 0 -0.681467,2.1597812 l 1.362934,1.048041 H 9.8159313 a 1.2003396,1.1994781 0 1 0 0,2.398956 H 12.82304 l -4.9132929,3.567184 a 1.2000818,1.1992818 0 1 0 1.4098075,1.939838 L 11.831487,17.291096 A 6.3997796,6.3954721 0 0 0 11.815867,17.603585 6.3997796,6.3954721 0 0 0 18.214685,24 a 6.3997796,6.3954721 0 0 0 6.40002,-6.396415 6.3997796,6.3954721 0 0 0 -2.782356,-5.273857 1.2000818,1.1992818 0 0 0 -0.08533,-0.07331 L 16.546469,8.2589555 A 1.2000818,1.1992818 0 0 0 15.765245,8.0005508 Z m 2.695821,6.1536342 a 3.6921805,3.6921805 0 0 1 3.69218,3.69218 3.6921805,3.6921805 0 0 1 -3.69218,3.692181 3.6921805,3.6921805 0 0 1 -3.692181,-3.692181 3.6921805,3.6921805 0 0 1 3.692181,-3.69218 z"
     style="fill:#f4792b;fill-opacity:1;stroke-width:0.615363"
     id="path2-3" />
</svg>
