<?xml version="1.0" encoding="UTF-8" standalone="no"?>
<svg
   xmlns:dc="http://purl.org/dc/elements/1.1/"
   xmlns:cc="http://creativecommons.org/ns#"
   xmlns:rdf="http://www.w3.org/1999/02/22-rdf-syntax-ns#"
   xmlns:svg="http://www.w3.org/2000/svg"
   xmlns="http://www.w3.org/2000/svg"
   xmlns:sodipodi="http://sodipodi.sourceforge.net/DTD/sodipodi-0.dtd"
   xmlns:inkscape="http://www.inkscape.org/namespaces/inkscape"
   sodipodi:docname="application-x-bittorrent.svg"
   inkscape:version="1.0.1 (3bc2e813f5, 2020-09-07)"
   id="svg8"
   version="1.1"
   viewBox="0 0 8.4666665 8.4666669"
   height="32"
   width="32">
  <defs
     id="defs2">
    <filter
       inkscape:collect="always"
       style="color-interpolation-filters:sRGB"
       id="filter33278"
       x="-0.081249999"
       width="1.1625"
       y="-0.069642858"
       height="1.1392857">
      <feGaussianBlur
         inkscape:collect="always"
         stdDeviation="0.21497395"
         id="feGaussianBlur33280" />
    </filter>
  </defs>
  <sodipodi:namedview
     inkscape:window-maximized="1"
     inkscape:window-y="0"
     inkscape:window-x="0"
     inkscape:window-height="1000"
     inkscape:window-width="1920"
     units="px"
     showgrid="false"
     inkscape:document-rotation="0"
     inkscape:current-layer="layer1"
     inkscape:document-units="px"
     inkscape:cy="16.245823"
     inkscape:cx="0.60481151"
     inkscape:zoom="9.0045629"
     inkscape:pageshadow="2"
     inkscape:pageopacity="0.0"
     borderopacity="1.0"
     bordercolor="#666666"
     pagecolor="#ffffff"
     id="base" />
  <metadata
     id="metadata5">
    <rdf:RDF>
      <cc:Work
         rdf:about="">
        <dc:format>image/svg+xml</dc:format>
        <dc:type
           rdf:resource="http://purl.org/dc/dcmitype/StillImage" />
        <dc:title />
      </cc:Work>
    </rdf:RDF>
  </metadata>
  <g
     id="layer1"
     inkscape:groupmode="layer"
     inkscape:label="Capa 1">
    <path
       style="opacity:0.5;fill:#000000;fill-opacity:1;stroke:none;stroke-width:2.29352999;filter:url(#filter33278)"
       d="M 1.0583334,0.5291668 V 7.9374999 H 7.4083333 V 2.1166666 l -1.5875,-1.5874998 z"
       id="path926-2"
       inkscape:connector-curvature="0" />
    <path
       style="opacity:1;fill:#f5f5f5;fill-opacity:1;stroke:none;stroke-width:2.29352999"
       d="M 1.0583334,0.52916675 V 7.9374999 H 7.4083333 V 2.1166666 l -1.5875,-1.58749985 z"
       id="path926"
       inkscape:connector-curvature="0" />
    <path
       inkscape:connector-curvature="0"
       style="opacity:0.2;fill:#000000;fill-opacity:1;stroke:none;stroke-width:2.29352999"
       d="M 5.8208333,0.52916675 V 2.1166669 h 1.5875 z"
       id="path926-1" />
    <circle
       style="opacity:1;fill:#00a441;fill-opacity:1;stroke:none;stroke-width:0.13838971;stroke-miterlimit:4;stroke-dasharray:none;stroke-opacity:0;paint-order:stroke fill markers"
       id="path823"
       cx="4.2333336"
       cy="5.2916665"
       r="2.1166668" />
    <path
       d="m 3.9669266,3.5144843 c -0.01749,5.141e-4 -0.035689,0.00314 -0.054449,0.00778 C 3.5566214,3.610498 3.2551473,3.7831699 2.9873678,4.05219 2.7947593,4.245614 2.6633433,4.4401569 2.5711146,4.6682329 2.5049055,4.8319065 2.4726369,4.9569223 2.4491841,5.1411228 c -0.012857,0.1011349 -0.012857,0.3767244 0,0.4778082 0.022146,0.1737493 0.053317,0.2986064 0.1119772,0.4485797 0.1015268,0.2593712 0.2534076,0.4785358 0.480457,0.6931797 0.3201035,0.3026062 0.6879696,0.472313 1.1358406,0.5239727 0.062105,0.00714 0.1443378,0.00873 0.5724706,0.011086 L 4.9763094,7.2729428 C 5.1794749,7.1790949 5.4051487,7.076233 5.5695503,6.9304183 l -0.5638671,0.00489 C 4.2102985,6.942193 4.2323064,6.9361273 4.073977,6.905744 3.8353362,6.8601063 3.6117209,6.7574162 3.4100368,6.600833 3.338745,6.5454928 3.1863792,6.3962231 3.1342246,6.3307016 3.0252086,6.193523 2.9461485,6.0530319 2.8908744,5.8981025 2.7857423,5.6034915 2.7759527,5.2430973 2.8648394,4.9418745 2.9210976,4.7514355 3.0149291,4.5761332 3.1457579,4.4171528 3.2028891,4.3477896 3.3345434,4.2190329 3.4066531,4.1619887 3.5786504,4.0259849 3.7816893,3.925234 3.9844659,3.8752808 c 0.027608,-0.00682 0.061177,-0.017807 0.074625,-0.024474 0.032039,-0.015848 0.064408,-0.048834 0.081849,-0.083433 0.012409,-0.024632 0.014051,-0.033323 0.014051,-0.074323 0,-0.04249 -0.00133,-0.049088 -0.016298,-0.07857 -0.033849,-0.067056 -0.096007,-0.102368 -0.1717836,-0.099954 z m 0.239776,0.4396609 c -0.029863,5.141e-4 -0.067424,0.00579 -0.1180228,0.016032 C 3.8748598,4.0134127 3.6779887,4.1039424 3.5023289,4.2397347 3.4343175,4.2923027 3.2951707,4.4277238 3.2429048,4.492179 3.0664253,4.7097536 2.9653917,4.9518422 2.9377267,5.2233153 c -0.00775,0.075864 -0.00643,0.2608713 0.00239,0.3347112 0.03887,0.3253212 0.1777417,0.6018105 0.4223967,0.8411369 0.1855545,0.1814803 0.4022618,0.3081468 0.6325921,0.3697787 0.064402,0.017226 0.1047063,0.025376 0.1998345,0.040405 l 0.069974,0.011029 0.7837088,0.0016 c 0.2842616,5.464e-4 0.5063976,-5.12e-4 0.6438197,7.882e-4 C 5.7992432,6.7135646 5.8994086,6.6131527 5.9816017,6.4844119 L 4.269938,6.4643035 4.2124281,6.4534843 C 4.0895261,6.4303673 4.0062646,6.4034766 3.9073074,6.3550685 3.6989563,6.2530792 3.5104935,6.068731 3.4061231,5.8646474 3.2776469,5.6133779 3.2577078,5.2934383 3.3533839,5.0167923 3.3858605,4.9227466 3.4599816,4.7918572 3.5251487,4.7134316 3.7121801,4.4881815 3.9455715,4.3496801 4.2049879,4.309908 4.2696099,4.299988 4.3082199,4.28201 4.3416767,4.246342 c 0.035539,-0.037904 0.047283,-0.070633 0.044714,-0.1245871 -0.0016,-0.032999 -0.00481,-0.047561 -0.01553,-0.068887 -0.016773,-0.033426 -0.054607,-0.068607 -0.092331,-0.085826 -0.019818,-0.00907 -0.041994,-0.01339 -0.071858,-0.012912 z M 4.3877333,4.4298473 C 4.2366112,4.4298927 4.1212528,4.4555136 3.9899904,4.5170907 3.8817938,4.5678987 3.8010434,4.6258873 3.7075025,4.7200394 3.5950419,4.8332257 3.5284618,4.9375137 3.4822099,5.0728772 3.4156189,5.26774 3.4159529,5.4929881 3.4830264,5.6896104 c 0.088402,0.2591035 0.3068109,0.4811525 0.5718045,0.5814351 0.062326,0.023577 0.098851,0.033429 0.1801468,0.04873 l 0.069975,0.013178 0.9362017,0.0016 c 0.4687512,8.164e-4 0.7096784,0.0016 0.8293441,0.00321 0.060433,-0.1107829 0.1114423,-0.2271879 0.152019,-0.3482056 l -0.8818118,-4.4e-5 C 4.7080472,5.9894207 4.3423985,5.9876411 4.3199271,5.9845176 4.2413646,5.9735381 4.1571213,5.9447878 4.0935366,5.9073621 4.0202787,5.8641769 3.933575,5.7831984 3.883989,5.7117055 3.8210605,5.6208582 3.7875325,5.5055394 3.7874771,5.3795582 c -4.5e-5,-0.1666584 0.053305,-0.2964709 0.1714501,-0.4169598 0.058499,-0.059658 0.110448,-0.097464 0.1799908,-0.1309975 0.089442,-0.04308 0.143346,-0.054488 0.2860411,-0.060352 0.079327,-0.00325 0.092549,-0.00497 0.1119577,-0.014711 0.075282,-0.03796 0.1154802,-0.123375 0.093174,-0.198067 -0.016005,-0.053848 -0.05047,-0.09307 -0.1014754,-0.1157816 -0.020665,-0.00919 -0.034671,-0.0108 -0.1101726,-0.012383 -0.0104,-2.199e-4 -0.020638,-2.646e-4 -0.03072,-2.646e-4 z"
       style="fill:#ffffff;fill-opacity:1;stroke-width:0.01133514"
       id="path2-3"
       inkscape:connector-curvature="0"
       sodipodi:nodetypes="ccccccccccccsccccccccccscccccccccccccccccccccccccccccccccccccccccccccccccccc" />
  </g>
</svg>
