<?xml version="1.0" encoding="UTF-8" standalone="no"?>
<svg
   xmlns:dc="http://purl.org/dc/elements/1.1/"
   xmlns:cc="http://creativecommons.org/ns#"
   xmlns:rdf="http://www.w3.org/1999/02/22-rdf-syntax-ns#"
   xmlns:svg="http://www.w3.org/2000/svg"
   xmlns="http://www.w3.org/2000/svg"
   xmlns:sodipodi="http://sodipodi.sourceforge.net/DTD/sodipodi-0.dtd"
   xmlns:inkscape="http://www.inkscape.org/namespaces/inkscape"
   width="32"
   height="32"
   viewBox="0 0 8.4666665 8.4666669"
   version="1.1"
   id="svg8"
   inkscape:version="1.0 (4035a4fb49, 2020-05-01)"
   sodipodi:docname="application-vnd.oasis.opendocument.database.svg">
  <defs
     id="defs2">
    <filter
       inkscape:collect="always"
       style="color-interpolation-filters:sRGB"
       id="filter4299"
       x="-0.117"
       width="1.234"
       y="-0.10028571"
       height="1.2005714">
      <feGaussianBlur
         inkscape:collect="always"
         stdDeviation="0.3095625"
         id="feGaussianBlur4301" />
    </filter>
  </defs>
  <sodipodi:namedview
     id="base"
     pagecolor="#ffffff"
     bordercolor="#666666"
     borderopacity="1.0"
     inkscape:pageopacity="0.0"
     inkscape:pageshadow="2"
     inkscape:zoom="12.734375"
     inkscape:cx="-0.59280698"
     inkscape:cy="14.013841"
     inkscape:document-units="px"
     inkscape:current-layer="layer1"
     inkscape:document-rotation="0"
     showgrid="false"
     units="px"
     inkscape:window-width="1920"
     inkscape:window-height="1002"
     inkscape:window-x="0"
     inkscape:window-y="0"
     inkscape:window-maximized="1" />
  <metadata
     id="metadata5">
    <rdf:RDF>
      <cc:Work
         rdf:about="">
        <dc:format>image/svg+xml</dc:format>
        <dc:type
           rdf:resource="http://purl.org/dc/dcmitype/StillImage" />
        <dc:title></dc:title>
      </cc:Work>
    </rdf:RDF>
  </metadata>
  <g
     inkscape:label="Capa 1"
     inkscape:groupmode="layer"
     id="layer1">
    <rect
       y="0.5291667"
       x="1.0583334"
       height="7.4083333"
       width="6.3499999"
       id="rect833-0"
       style="opacity:0.5;fill:#000000;fill-opacity:1;stroke:none;stroke-width:2.29353;filter:url(#filter4299)" />
    <rect
       style="opacity:1;fill:#e5e5e5;fill-opacity:1;stroke:none;stroke-width:2.29353"
       id="rect833"
       width="6.3499999"
       height="7.4083333"
       x="1.0583334"
       y="0.5291667" />
    <path
       style="fill:#e81d62;fill-opacity:1;stroke-width:0.423333"
       d="m 4.2329228,2.1166667 c -0.7103109,0 -1.3170653,0.2191046 -1.5684831,0.5291667 -0.021112,0.02603 -0.040293,0.05213 -0.056224,0.079374 -0.015136,0.025891 -0.027838,0.052523 -0.038032,0.079374 a 1.6933333,0.84666669 0 0 0 -0.00744,0.024803 c -0.00581,0.018198 -0.012272,0.036005 -0.015712,0.05457 a 1.6933333,0.84666669 0 0 0 -0.00744,0.079378 c 9.31e-5,0.027512 0.00368,0.055403 0.00909,0.082682 a 1.6933333,0.84666669 0 0 0 0.023152,0.079374 1.6933333,0.84666669 0 0 0 0.038862,0.078549 1.6933333,0.84666669 0 0 0 0.053742,0.076894 1.6933333,0.84666669 0 0 0 1.5684831,0.5291666 1.6933333,0.84666669 0 0 0 1.568483,-0.5291666 1.6933333,0.84666669 0 0 0 8.468e-4,0 1.6933333,0.84666669 0 0 0 0.045475,-0.066146 c 0.0027,-0.00429 0.00654,-0.0081 0.00909,-0.0124 a 1.6933333,0.84666669 0 0 0 0.027283,-0.056224 c 0.00394,-0.00886 0.00902,-0.017542 0.0124,-0.026458 a 1.6933333,0.84666669 0 0 0 0.014048,-0.04713 c 0.00326,-0.012416 0.00694,-0.024723 0.00909,-0.037206 a 1.6933333,0.84666669 0 0 0 0.00744,-0.071107 1.6933333,0.84666669 0 0 0 -0.00909,-0.085163 C 5.9014954,2.7972928 5.8615167,2.7198955 5.80225,2.6466589 5.55079,2.3367789 4.9441204,2.1174921 4.2337669,2.1174921 Z M 2.6644397,3.81 C 2.5823137,3.9200672 2.5400125,4.0379055 2.5395901,4.1564387 2.5395901,4.6665554 3.29778,5.08 4.2329234,5.08 5.1680668,5.08 5.9262569,4.6665554 5.9262569,4.1564387 5.9258329,4.0379055 5.8835326,3.9200667 5.8014058,3.81 5.5427492,4.1588267 4.9225329,4.4445768 4.2329228,4.445 3.5433128,4.4445768 2.9230965,4.1588267 2.6644397,3.81 Z m 0,1.27 C 2.5823137,5.1900672 2.5400125,5.3079055 2.5395901,5.4264388 2.5395901,5.9365554 3.29778,6.35 4.2329234,6.35 5.1680668,6.35 5.9262569,5.9365554 5.9262569,5.4264388 5.9258329,5.3079055 5.8835326,5.1900668 5.8014058,5.08 5.5427492,5.4288268 4.9225329,5.7145768 4.2329228,5.715 3.5433128,5.7145768 2.9230965,5.4288268 2.6644397,5.08 Z"
       id="path12" />
  </g>
</svg>
