<?xml version="1.0" encoding="UTF-8" standalone="no"?>
<svg
   xmlns:dc="http://purl.org/dc/elements/1.1/"
   xmlns:cc="http://creativecommons.org/ns#"
   xmlns:rdf="http://www.w3.org/1999/02/22-rdf-syntax-ns#"
   xmlns:svg="http://www.w3.org/2000/svg"
   xmlns="http://www.w3.org/2000/svg"
   xmlns:sodipodi="http://sodipodi.sourceforge.net/DTD/sodipodi-0.dtd"
   xmlns:inkscape="http://www.inkscape.org/namespaces/inkscape"
   sodipodi:docname="application-x-trash.svg"
   inkscape:version="1.0 (4035a4fb49, 2020-05-01)"
   id="svg8"
   version="1.1"
   viewBox="0 0 8.4666665 8.4666669"
   height="32"
   width="32">
  <defs
     id="defs2">
    <filter
       height="1.2005714"
       y="-0.10028571"
       width="1.234"
       x="-0.117"
       id="filter4299"
       style="color-interpolation-filters:sRGB"
       inkscape:collect="always">
      <feGaussianBlur
         id="feGaussianBlur4301"
         stdDeviation="0.3095625"
         inkscape:collect="always" />
    </filter>
  </defs>
  <sodipodi:namedview
     inkscape:window-maximized="1"
     inkscape:window-y="0"
     inkscape:window-x="0"
     inkscape:window-height="1002"
     inkscape:window-width="1920"
     units="px"
     showgrid="false"
     inkscape:document-rotation="0"
     inkscape:current-layer="layer1"
     inkscape:document-units="px"
     inkscape:cy="16"
     inkscape:cx="10.031902"
     inkscape:zoom="25.46875"
     inkscape:pageshadow="2"
     inkscape:pageopacity="0.0"
     borderopacity="1.0"
     bordercolor="#666666"
     pagecolor="#ffffff"
     id="base" />
  <metadata
     id="metadata5">
    <rdf:RDF>
      <cc:Work
         rdf:about="">
        <dc:format>image/svg+xml</dc:format>
        <dc:type
           rdf:resource="http://purl.org/dc/dcmitype/StillImage" />
        <dc:title />
      </cc:Work>
    </rdf:RDF>
  </metadata>
  <g
     id="layer1"
     inkscape:groupmode="layer"
     inkscape:label="Capa 1">
    <rect
       style="opacity:0.5;fill:#000000;fill-opacity:1;stroke:none;stroke-width:2.29353;filter:url(#filter4299)"
       id="rect833-0"
       width="6.3499999"
       height="7.4083333"
       x="1.0583334"
       y="0.5291667" />
    <rect
       y="0.5291667"
       x="1.0583334"
       height="7.4083333"
       width="6.3499999"
       id="rect833"
       style="opacity:1;fill:#e5e5e5;fill-opacity:1;stroke:none;stroke-width:2.29353" />
    <path
       d="m 4.1806285,2.381277 a 1.85207,0.26458142 0 0 0 -1.7993603,0.2645815 1.85207,0.26458142 0 0 0 0,5.159e-4 1.85207,0.26458142 0 0 0 0.00181,0.010594 L 2.910431,5.8208354 A 1.3229071,0.26458142 0 0 0 4.2333381,6.0854166 1.3229071,0.26458142 0 0 0 5.5562454,5.8208354 l 0.527354,-3.163867 a 1.85207,0.26458142 0 0 0 0.0018,-0.01111 1.85207,0.26458142 0 0 0 -1.8520699,-0.2645815 1.85207,0.26458142 0 0 0 -0.05271,0 z M 3.7524924,2.4076318 4.0638407,3.1246371 4.2839806,2.6109771 4.4077448,3.0894974 4.5904197,2.661878 4.9224384,2.6975345 5.1526552,2.8365431 5.3983748,3.2039598 5.6676072,3.0150838 5.6474536,3.7059929 5.3673694,5.5926857 c 5.47e-5,0.03516 -0.031518,0.068492 -0.088883,0.09896 -0.057365,0.030467 -0.1405213,0.058089 -0.243136,0.081132 -0.2052293,0.046086 -0.4887943,0.074421 -0.8020125,0.074414 -0.313218,9e-6 -0.596783,-0.028328 -0.8020124,-0.074414 -0.1026147,-0.023043 -0.1857706,-0.050664 -0.2431359,-0.081132 -0.057365,-0.030468 -0.088935,-0.0638 -0.088883,-0.09896 L 2.8192228,3.7059929 3.2073099,3.2370326 3.5380368,3.5377873 3.0737273,2.8329258 Z m 0.6570611,1.1652951 c 0,0 -0.3142865,0.00902 -0.3470047,0.00284 0,0 0.089031,0.018162 0.1333242,0.089658 l 0.2007615,0.3679334 -0.14676,0.085782 0.4922145,0.01111 L 4.9624874,3.701339 4.7811044,3.80805 4.7144424,3.6863529 c 0,0 -0.051319,-0.1267058 -0.3048888,-0.1134291 z M 4.0108726,3.6160764 C 3.8975866,3.6124688 3.8132118,3.7504342 3.8132118,3.7504342 L 3.6496571,4.0509305 3.9865851,4.2547925 4.2341132,3.8356998 C 4.157197,3.6712309 4.0788444,3.6182413 4.0108726,3.6160764 Z M 4.9097778,4.0677253 4.5725915,4.2713289 4.8028084,4.7010153 C 5.2718283,4.7317324 5.0816006,4.363054 5.0816006,4.363054 Z M 3.7354393,4.1597083 3.2675125,4.1873553 3.4496707,4.292516 3.3837837,4.4147299 c 0,0 -0.077647,0.1117065 0.065112,0.3289182 0,0 0.1712543,0.2737706 0.1826749,0.3059222 0,0 -0.031311,-0.088394 0.00465,-0.1648467 L 3.8351746,4.516015 3.9824514,4.600764 Z m 0.821391,0.4159924 -0.251404,0.4382129 0.251404,0.4100496 V 5.2079574 h 0.1348745 c 0,0 0.1319218,0.015761 0.2452028,-0.2193648 0,0 0.1472687,-0.2885353 0.1687224,-0.3144488 0,0 -0.059124,0.071419 -0.1410755,0.076222 H 4.5568303 Z M 3.7566264,4.7622515 C 3.5021305,5.1715653 3.9054535,5.1792774 3.9054535,5.1792774 l 0.3322771,-0.01111 -0.00672,-0.404365 z"
       style="opacity:0.5;fill:#000000;fill-opacity:1;stroke:none;stroke-width:0.132291px;stroke-linecap:butt;stroke-linejoin:miter;stroke-opacity:1"
       id="path900" />
  </g>
</svg>
