<?xml version="1.0" encoding="UTF-8" standalone="no"?>
<svg
   xmlns:dc="http://purl.org/dc/elements/1.1/"
   xmlns:cc="http://creativecommons.org/ns#"
   xmlns:rdf="http://www.w3.org/1999/02/22-rdf-syntax-ns#"
   xmlns:svg="http://www.w3.org/2000/svg"
   xmlns="http://www.w3.org/2000/svg"
   xmlns:sodipodi="http://sodipodi.sourceforge.net/DTD/sodipodi-0.dtd"
   xmlns:inkscape="http://www.inkscape.org/namespaces/inkscape"
   sodipodi:docname="application-x-trash.svg"
   inkscape:version="1.0.1 (3bc2e813f5, 2020-09-07)"
   id="svg8"
   version="1.1"
   viewBox="0 0 8.4666665 8.4666669"
   height="32"
   width="32">
  <defs
     id="defs2">
    <filter
       inkscape:collect="always"
       style="color-interpolation-filters:sRGB"
       id="filter854"
       x="-0.081249999"
       width="1.1625"
       y="-0.069642858"
       height="1.1392857">
      <feGaussianBlur
         inkscape:collect="always"
         stdDeviation="0.21497395"
         id="feGaussianBlur856" />
    </filter>
  </defs>
  <sodipodi:namedview
     inkscape:window-maximized="1"
     inkscape:window-y="0"
     inkscape:window-x="0"
     inkscape:window-height="1000"
     inkscape:window-width="1920"
     units="px"
     showgrid="false"
     inkscape:document-rotation="0"
     inkscape:current-layer="layer1"
     inkscape:document-units="px"
     inkscape:cy="10.304391"
     inkscape:cx="-2.2826135"
     inkscape:zoom="9.0045629"
     inkscape:pageshadow="2"
     inkscape:pageopacity="0.0"
     borderopacity="1.0"
     bordercolor="#666666"
     pagecolor="#ffffff"
     id="base"
     inkscape:snap-page="false" />
  <metadata
     id="metadata5">
    <rdf:RDF>
      <cc:Work
         rdf:about="">
        <dc:format>image/svg+xml</dc:format>
        <dc:type
           rdf:resource="http://purl.org/dc/dcmitype/StillImage" />
        <dc:title></dc:title>
      </cc:Work>
    </rdf:RDF>
  </metadata>
  <g
     id="layer1"
     inkscape:groupmode="layer"
     inkscape:label="Capa 1">
    <path
       style="opacity:0.5;fill:#000000;fill-opacity:1;stroke:none;stroke-width:2.29352999;filter:url(#filter854)"
       d="M 1.0583334,0.5291668 V 7.9374999 H 7.4083333 V 2.1166666 l -1.5875,-1.5874998 z"
       id="path926-2"
       inkscape:connector-curvature="0" />
    <path
       style="opacity:1;fill:#f5f5f5;fill-opacity:1;stroke:none;stroke-width:2.29352999"
       d="M 1.0583334,0.52916675 V 7.9374999 H 7.4083333 V 2.1166666 l -1.5875,-1.58749985 z"
       id="path926"
       inkscape:connector-curvature="0" />
    <path
       inkscape:connector-curvature="0"
       style="opacity:0.2;fill:#000000;fill-opacity:1;stroke:none;stroke-width:2.29352999"
       d="M 5.8208333,0.52916675 V 2.1166669 h 1.5875 z"
       id="path926-1" />
    <path
       d="m 4.1806285,3.1750268 a 1.85207,0.26458142 0 0 0 -1.7993603,0.2645815 1.85207,0.26458142 0 0 0 0,5.159e-4 1.85207,0.26458142 0 0 0 0.00181,0.010594 L 2.910431,6.6145852 A 1.3229071,0.26458142 0 0 0 4.233338,6.8791664 1.3229071,0.26458142 0 0 0 5.5562454,6.6145852 l 0.527354,-3.1638669 a 1.85207,0.26458142 0 0 0 0.0018,-0.01111 1.85207,0.26458142 0 0 0 -1.8520698,-0.2645815 1.85207,0.26458142 0 0 0 -0.05271,0 z m -0.4281361,0.026355 0.3113483,0.7170053 0.2201399,-0.51366 0.1237642,0.4785203 0.1826749,-0.4276194 0.3320187,0.035656 0.2302168,0.1390087 0.2457196,0.3674167 0.2692324,-0.188876 -0.020153,0.6909091 -0.2800842,1.8866927 c 5.48e-5,0.03516 -0.031518,0.068492 -0.088883,0.09896 -0.057365,0.030467 -0.1405213,0.058089 -0.243136,0.081132 -0.2052293,0.046086 -0.4887943,0.074421 -0.8020125,0.074414 -0.313218,9e-6 -0.596783,-0.028328 -0.8020124,-0.074414 -0.1026149,-0.023043 -0.1857708,-0.050664 -0.2431361,-0.081132 -0.057365,-0.030468 -0.088935,-0.0638 -0.088883,-0.09896 L 2.8192228,4.4997427 3.2073099,4.0307824 3.5380368,4.3315371 3.0737273,3.6266756 Z m 0.6570611,1.1652951 c 0,0 -0.3142865,0.00902 -0.3470047,0.00284 0,0 0.089031,0.018162 0.1333242,0.089658 l 0.2007615,0.3679334 -0.14676,0.085782 0.4922145,0.01111 0.2203984,-0.4289113 -0.1813831,0.106711 -0.066662,-0.1216971 c 0,0 -0.051319,-0.1267058 -0.3048888,-0.1134291 z m -0.3986809,0.04315 C 3.8975866,4.4062186 3.8132118,4.544184 3.8132118,4.544184 L 3.6496571,4.8446803 3.9865851,5.0485423 4.2341132,4.6294496 C 4.157197,4.4649807 4.0788444,4.4119911 4.0108726,4.4098267 Z M 4.9097778,4.8614751 4.5725915,5.0650787 4.8028084,5.4947651 C 5.2718283,5.5254822 5.0816006,5.1568038 5.0816006,5.1568038 Z m -1.1743385,0.091983 -0.4679268,0.027647 0.1821582,0.1051607 -0.065887,0.1222139 c 0,0 -0.077647,0.1117065 0.065112,0.3289182 0,0 0.1712543,0.2737706 0.1826749,0.3059223 0,0 -0.031311,-0.088394 0.00465,-0.1648468 l 0.198954,-0.3687086 0.1472768,0.084749 z m 0.821391,0.4159924 -0.251404,0.4382129 0.251404,0.4100496 V 6.0017072 h 0.1348745 c 0,0 0.1319218,0.015761 0.2452027,-0.2193649 0,0 0.1472688,-0.2885352 0.1687225,-0.3144487 0,0 -0.059124,0.071419 -0.1410756,0.076222 H 4.5568303 Z M 3.7566264,5.5560013 C 3.5021305,5.9653151 3.9054535,5.9730271 3.9054535,5.9730271 l 0.3322771,-0.01111 -0.00672,-0.4043651 z"
       style="opacity:0.5;fill:#000000;fill-opacity:1;stroke:none;stroke-width:0.132291px;stroke-linecap:butt;stroke-linejoin:miter;stroke-opacity:1"
       id="path900" />
  </g>
</svg>
