<?xml version="1.0" encoding="UTF-8" standalone="no"?>
<svg
   xmlns:dc="http://purl.org/dc/elements/1.1/"
   xmlns:cc="http://creativecommons.org/ns#"
   xmlns:rdf="http://www.w3.org/1999/02/22-rdf-syntax-ns#"
   xmlns:svg="http://www.w3.org/2000/svg"
   xmlns="http://www.w3.org/2000/svg"
   xmlns:sodipodi="http://sodipodi.sourceforge.net/DTD/sodipodi-0.dtd"
   xmlns:inkscape="http://www.inkscape.org/namespaces/inkscape"
   sodipodi:docname="image-gif.svg"
   inkscape:version="1.0 (4035a4fb49, 2020-05-01)"
   id="svg8"
   version="1.1"
   viewBox="0 0 8.4666665 8.4666669"
   height="32"
   width="32">
  <defs
     id="defs2">
    <filter
       height="1.216"
       y="-0.108"
       width="1.216"
       x="-0.108"
       id="filter1265"
       style="color-interpolation-filters:sRGB"
       inkscape:collect="always">
      <feGaussianBlur
         id="feGaussianBlur1267"
         stdDeviation="0.33337499"
         inkscape:collect="always" />
    </filter>
  </defs>
  <sodipodi:namedview
     inkscape:window-maximized="1"
     inkscape:window-y="25"
     inkscape:window-x="0"
     inkscape:window-height="1020"
     inkscape:window-width="1920"
     units="px"
     showgrid="false"
     inkscape:document-rotation="0"
     inkscape:current-layer="layer1"
     inkscape:document-units="px"
     inkscape:cy="23.465309"
     inkscape:cx="18.744751"
     inkscape:zoom="16"
     inkscape:pageshadow="2"
     inkscape:pageopacity="0.0"
     borderopacity="1.0"
     bordercolor="#666666"
     pagecolor="#ffffff"
     id="base" />
  <metadata
     id="metadata5">
    <rdf:RDF>
      <cc:Work
         rdf:about="">
        <dc:format>image/svg+xml</dc:format>
        <dc:type
           rdf:resource="http://purl.org/dc/dcmitype/StillImage" />
        <dc:title />
      </cc:Work>
    </rdf:RDF>
  </metadata>
  <g
     id="layer1"
     inkscape:groupmode="layer"
     inkscape:label="Capa 1">
    <path
       id="rect833-9"
       style="opacity:0.5;fill:#000000;fill-opacity:1;stroke:none;stroke-width:2.4773;filter:url(#filter1265)"
       d="M 7.9375,0.5291668 H 0.5291667 V 7.9374999 H 7.9375 Z M 7.672916,0.7937502 V 1.3229168 H 7.14375 V 0.7937502 Z m 0,6.3499997 V 7.6729166 H 7.14375 V 7.1437499 Z M 6.614583,0.7937502 V 1.3229168 H 6.085416 V 0.7937502 Z m 0,6.3499997 V 7.6729166 H 6.085416 V 7.1437499 Z M 5.55625,0.7937502 V 1.3229168 H 5.027083 V 0.7937502 Z m 0,6.3499997 V 7.6729166 H 5.027083 V 7.1437499 Z M 4.4979167,0.7937502 V 1.3229168 H 3.96875 V 0.7937502 Z m 0,6.3499997 V 7.6729166 H 3.96875 V 7.1437499 Z M 3.4395834,0.7937502 V 1.3229168 H 2.9104166 V 0.7937502 Z m 0,6.3499997 V 7.6729166 H 2.9104166 V 7.1437499 Z M 2.38125,0.7937502 V 1.3229168 H 1.8520833 V 0.7937502 Z m 0,6.3499997 V 7.6729166 H 1.8520833 V 7.1437499 Z M 1.3229166,0.7937502 V 1.3229168 H 0.79375 V 0.7937502 Z m 0,6.3499997 V 7.6729166 H 0.79375 V 7.1437499 Z" />
    <path
       d="M 7.9374999,0.52916666 H 0.52916666 V 7.9374999 H 7.9374999 Z M 7.6729166,0.79374999 V 1.3229166 H 7.1437499 V 0.79374999 Z m 0,6.34999991 V 7.6729166 H 7.1437499 V 7.1437499 Z M 6.6145832,0.79374999 V 1.3229166 H 6.0854166 V 0.79374999 Z m 0,6.34999991 V 7.6729166 H 6.0854166 V 7.1437499 Z M 5.5562499,0.79374999 V 1.3229166 H 5.0270833 V 0.79374999 Z m 0,6.34999991 V 7.6729166 H 5.0270833 V 7.1437499 Z M 4.4979166,0.79374999 V 1.3229166 H 3.96875 V 0.79374999 Z m 0,6.34999991 V 7.6729166 H 3.96875 V 7.1437499 Z M 3.4395833,0.79374999 V 1.3229166 H 2.9104166 V 0.79374999 Z m 0,6.34999991 V 7.6729166 H 2.9104166 V 7.1437499 Z M 2.38125,0.79374999 V 1.3229166 H 1.8520833 V 0.79374999 Z m 0,6.34999991 V 7.6729166 H 1.8520833 V 7.1437499 Z M 1.3229166,0.79374999 V 1.3229166 H 0.79374999 V 0.79374999 Z m 0,6.34999991 V 7.6729166 H 0.79374999 V 7.1437499 Z"
       style="opacity:1;fill:#000000;fill-opacity:1;stroke:none;stroke-width:2.4773"
       id="rect833" />
    <rect
       style="opacity:1;fill:#e06f6f;fill-opacity:1;stroke:none;stroke-width:1.83892"
       id="rect833-9-3"
       width="6.3499999"
       height="4.7624998"
       x="1.0583336"
       y="1.8520834" />
    <path
       id="rect833-9-6-6"
       style="opacity:0.3;fill:#000000;fill-opacity:1;stroke:none;stroke-width:1.70251"
       d="m 5.8208334,3.7570833 -2.645833,2.8575 h 4.233333 v -1.14292 z" />
    <path
       style="opacity:0.3;fill:#000000;fill-opacity:1;stroke:none;stroke-width:0.251005px;stroke-linecap:butt;stroke-linejoin:miter;stroke-opacity:1"
       d="M 3.1750004,6.6145833 4.2553334,5.4488062 3.1750004,4.2333334 1.0583332,6.6145833 Z"
       id="path999" />
    <path
       style="opacity:0.3;fill:#fdfdfd;fill-opacity:1;stroke:none;stroke-width:0.251005px;stroke-linecap:butt;stroke-linejoin:miter;stroke-opacity:1"
       d="M 1.0583336,6.6145833 3.1750004,4.2333334 v 2.3812499 z"
       id="path932" />
    <path
       style="opacity:0.3;fill:#ffffff;fill-opacity:1;stroke:none;stroke-width:0.251005px;stroke-linecap:butt;stroke-linejoin:miter;stroke-opacity:1"
       d="M 3.1750004,6.6145833 5.8208334,3.7570834 V 6.6145833 Z"
       id="path934"
       sodipodi:nodetypes="cccc" />
  </g>
</svg>
