<?xml version="1.0" encoding="UTF-8" standalone="no"?>
<svg
   xmlns:dc="http://purl.org/dc/elements/1.1/"
   xmlns:cc="http://creativecommons.org/ns#"
   xmlns:rdf="http://www.w3.org/1999/02/22-rdf-syntax-ns#"
   xmlns:svg="http://www.w3.org/2000/svg"
   xmlns="http://www.w3.org/2000/svg"
   xmlns:sodipodi="http://sodipodi.sourceforge.net/DTD/sodipodi-0.dtd"
   xmlns:inkscape="http://www.inkscape.org/namespaces/inkscape"
   sodipodi:docname="text-x-copying.svg"
   inkscape:version="1.0 (4035a4fb49, 2020-05-01)"
   id="svg8"
   version="1.1"
   viewBox="0 0 8.4666665 8.4666669"
   height="32"
   width="32">
  <defs
     id="defs2">
    <filter
       height="1.2005714"
       y="-0.10028571"
       width="1.234"
       x="-0.117"
       id="filter4299"
       style="color-interpolation-filters:sRGB"
       inkscape:collect="always">
      <feGaussianBlur
         id="feGaussianBlur4301"
         stdDeviation="0.3095625"
         inkscape:collect="always" />
    </filter>
  </defs>
  <sodipodi:namedview
     inkscape:window-maximized="1"
     inkscape:window-y="0"
     inkscape:window-x="0"
     inkscape:window-height="1002"
     inkscape:window-width="1920"
     units="px"
     showgrid="false"
     inkscape:document-rotation="0"
     inkscape:current-layer="layer1"
     inkscape:document-units="px"
     inkscape:cy="-1.3126881"
     inkscape:cx="19.396034"
     inkscape:zoom="12.734375"
     inkscape:pageshadow="2"
     inkscape:pageopacity="0.0"
     borderopacity="1.0"
     bordercolor="#666666"
     pagecolor="#ffffff"
     id="base" />
  <metadata
     id="metadata5">
    <rdf:RDF>
      <cc:Work
         rdf:about="">
        <dc:format>image/svg+xml</dc:format>
        <dc:type
           rdf:resource="http://purl.org/dc/dcmitype/StillImage" />
        <dc:title></dc:title>
      </cc:Work>
    </rdf:RDF>
  </metadata>
  <g
     id="layer1"
     inkscape:groupmode="layer"
     inkscape:label="Capa 1">
    <rect
       style="opacity:0.5;fill:#000000;fill-opacity:1;stroke:none;stroke-width:2.29353;filter:url(#filter4299)"
       id="rect833-0"
       width="6.3499999"
       height="7.4083333"
       x="1.0583334"
       y="0.5291667" />
    <rect
       y="0.5291667"
       x="1.0583334"
       height="7.4083333"
       width="6.3499999"
       id="rect833"
       style="opacity:1;fill:#e5e5e5;fill-opacity:1;stroke:none;stroke-width:2.29353" />
    <g
       transform="matrix(0.55276831,0,0,0.55165159,-2.0926719,7.0917094)"
       style="font-style:normal;font-weight:normal;font-size:10.5833px;line-height:1.25;font-family:sans-serif;fill:#000000;fill-opacity:1;stroke:none;stroke-width:0.264583;opacity:0.5"
       id="text837"
       aria-label="©">
      <path
         id="path839"
         style="stroke-width:0.264583"
         d="m 11.444226,-9.0184507 q 0.785479,0 1.462438,0.2842194 0.682127,0.2842195 1.245398,0.8474908 0.563272,0.5632713 0.842323,1.2402304 0.279052,0.6769592 0.279052,1.4727737 0,0.7854792 -0.279052,1.4624384 -0.279051,0.6717914 -0.842323,1.2350628 -0.563271,0.5632713 -1.245398,0.8474907 -0.676959,0.2842195 -1.462438,0.2842195 -0.785479,0 -1.4676062,-0.2842195 Q 9.2996607,-1.9129639 8.7363894,-2.4762352 8.173118,-3.0395066 7.8940662,-3.711298 7.6150143,-4.3882572 7.6150143,-5.1737364 q 0,-0.7958145 0.2790519,-1.4727737 0.2790518,-0.6769591 0.8423232,-1.2402304 0.5632713,-0.5632713 1.2402304,-0.8474908 0.6821272,-0.2842194 1.4676062,-0.2842194 z m 0,0.5322655 q -0.676959,0 -1.260901,0.2428785 -0.583942,0.2428784 -1.0696989,0.7286354 -0.4857569,0.4857569 -0.733803,1.0800339 -0.2480461,0.5891095 -0.2480461,1.260901 0,0.6666238 0.2480461,1.2557333 0.2480461,0.5839418 0.733803,1.0696987 0.4857569,0.4857569 1.0696989,0.733803 0.583942,0.2428785 1.260901,0.2428785 0.682127,0 1.266068,-0.2428785 0.58911,-0.2480461 1.074867,-0.733803 0.480589,-0.4805893 0.7183,-1.0645311 0.242878,-0.5839418 0.242878,-1.2609009 0,-0.6872944 -0.242878,-1.2712362 -0.242879,-0.5891095 -0.7183,-1.0696987 -0.485757,-0.485757 -1.074867,-0.7286354 -0.583941,-0.2428785 -1.266068,-0.2428785 z m 1.54512,1.2660686 v 0.6666238 q -0.341063,-0.1705317 -0.676959,-0.2532137 -0.335896,-0.082682 -0.676959,-0.082682 -0.769976,0 -1.204057,0.4547511 -0.428913,0.4495836 -0.428913,1.260901 0,0.8216526 0.439248,1.2712362 0.444416,0.4495835 1.245398,0.4495835 0.330728,0 0.645954,-0.077514 0.315225,-0.082682 0.656288,-0.2583813 v 0.6562886 q -0.346231,0.1498611 -0.702797,0.2222079 -0.351399,0.072347 -0.713133,0.072347 -1.116207,0 -1.7673279,-0.6304505 -0.6459533,-0.6304505 -0.6459533,-1.7053168 0,-1.080034 0.6459533,-1.7053169 0.6511209,-0.6252828 1.7673279,-0.6252828 0.377237,0 0.728636,0.072347 0.351398,0.072347 0.687294,0.2118719 z" />
    </g>
  </g>
</svg>
