<?xml version="1.0" encoding="UTF-8" standalone="no"?>
<svg
   xmlns:dc="http://purl.org/dc/elements/1.1/"
   xmlns:cc="http://creativecommons.org/ns#"
   xmlns:rdf="http://www.w3.org/1999/02/22-rdf-syntax-ns#"
   xmlns:svg="http://www.w3.org/2000/svg"
   xmlns="http://www.w3.org/2000/svg"
   xmlns:sodipodi="http://sodipodi.sourceforge.net/DTD/sodipodi-0.dtd"
   xmlns:inkscape="http://www.inkscape.org/namespaces/inkscape"
   sodipodi:docname="text-x-makefile.svg"
   inkscape:version="0.92.5 (2060ec1f9f, 2020-04-08)"
   id="svg8"
   version="1.1"
   viewBox="0 0 8.4666665 8.4666669"
   height="32"
   width="32">
  <defs
     id="defs2">
    <filter
       inkscape:collect="always"
       style="color-interpolation-filters:sRGB"
       id="filter978"
       x="-0.117"
       width="1.234"
       y="-0.10028572"
       height="1.2005714">
      <feGaussianBlur
         inkscape:collect="always"
         stdDeviation="0.30956249"
         id="feGaussianBlur980" />
    </filter>
  </defs>
  <sodipodi:namedview
     inkscape:window-maximized="1"
     inkscape:window-y="24"
     inkscape:window-x="65"
     inkscape:window-height="1056"
     inkscape:window-width="1855"
     units="px"
     showgrid="false"
     inkscape:document-rotation="0"
     inkscape:current-layer="layer1"
     inkscape:document-units="px"
     inkscape:cy="16.245823"
     inkscape:cx="3.3811817"
     inkscape:zoom="9.0045629"
     inkscape:pageshadow="2"
     inkscape:pageopacity="0.0"
     borderopacity="1.0"
     bordercolor="#666666"
     pagecolor="#ffffff"
     id="base" />
  <metadata
     id="metadata5">
    <rdf:RDF>
      <cc:Work
         rdf:about="">
        <dc:format>image/svg+xml</dc:format>
        <dc:type
           rdf:resource="http://purl.org/dc/dcmitype/StillImage" />
        <dc:title></dc:title>
      </cc:Work>
    </rdf:RDF>
  </metadata>
  <g
     id="layer1"
     inkscape:groupmode="layer"
     inkscape:label="Capa 1">
    <path
       style="opacity:0.5;fill:#000000;fill-opacity:1;stroke:none;stroke-width:2.29352999;filter:url(#filter978)"
       d="M 1.0583334,0.5291668 V 7.9374999 H 7.4083333 V 2.1166666 l -1.5875,-1.5874998 z"
       id="path926-2"
       inkscape:connector-curvature="0" />
    <path
       style="opacity:1;fill:#f5f5f5;fill-opacity:1;stroke:none;stroke-width:2.29352999"
       d="M 1.0583334,0.52916675 V 7.9374999 H 7.4083333 V 2.1166666 l -1.5875,-1.58749985 z"
       id="path926"
       inkscape:connector-curvature="0" />
    <path
       inkscape:connector-curvature="0"
       style="opacity:0.2;fill:#000000;fill-opacity:1;stroke:none;stroke-width:2.29352999"
       d="M 5.8208333,0.52916675 V 2.1166669 h 1.5875 z"
       id="path926-1" />
    <path
       style="opacity:0.5;fill:#000000;fill-opacity:1;stroke-width:0.0527955"
       d="m 3.4716638,6.1086803 c -0.1636728,0 -0.2954181,-0.1319369 -0.2954181,-0.2958486 V 5.6741429 A 1.1078955,1.1095113 0 0 1 2.826834,5.4719914 L 2.7067915,5.5413358 C 2.5650462,5.6232918 2.3850165,5.5749371 2.3031798,5.4329852 l -0.07388,-0.127957 C 2.1474632,5.1630761 2.1957476,4.9827842 2.3374928,4.9008285 L 2.4570202,4.8316905 A 1.1078955,1.1095113 0 0 1 2.4376474,4.6293324 1.1078955,1.1095113 0 0 1 2.4570202,4.4269748 L 2.3374928,4.3578365 C 2.1957476,4.2758805 2.1474632,4.0955887 2.2292996,3.9536368 l 0.07388,-0.127957 C 2.3850165,3.6837277 2.5650462,3.6353735 2.7067915,3.717329 L 2.8260096,3.786261 A 1.1078955,1.1095113 0 0 1 3.1762457,3.584832 V 3.4458334 c 0,-0.1639117 0.1317453,-0.2958491 0.2954181,-0.2958491 h 0.1477608 c 0.1636729,0 0.2954179,0.1319374 0.2954179,0.2958491 v 0.1395143 a 1.1078955,1.1095113 0 0 1 0.3494117,0.2013256 l 0.1200427,-0.069344 c 0.141745,-0.081955 0.3217744,-0.033601 0.4036111,0.1083509 l 0.073881,0.127957 C 4.943625,4.0955891 4.89534,4.2758809 4.7535952,4.3578369 l -0.1195274,0.069138 a 1.1078955,1.1095113 0 0 1 0.019373,0.2023576 1.1078955,1.1095113 0 0 1 -0.019373,0.2023578 l 0.1195274,0.069138 C 4.8953406,4.9827843 4.9436249,5.1630759 4.8617885,5.305028 L 4.7879075,5.432985 C 4.7060713,5.5749371 4.5260419,5.6232918 4.3842969,5.5413358 L 4.2650783,5.4724039 A 1.1078955,1.1095113 0 0 1 3.9148425,5.6739365 v 0.1388952 c 0,0.1639117 -0.131745,0.2958486 -0.2954179,0.2958486 z m 0.07388,-0.8454446 c 0.349632,0 0.6330833,-0.2838646 0.6330833,-0.6340065 0,-0.3501417 -0.2834513,-0.6339031 -0.6330833,-0.6339031 -0.3496318,0 -0.6330829,0.2837614 -0.6330829,0.6339031 0,0.3501419 0.2834511,0.6340065 0.6330829,0.6340065 z"
       id="path4-81"
       inkscape:connector-curvature="0" />
    <path
       style="opacity:0.5;fill:#000000;fill-opacity:1;stroke-width:0.0377111"
       d="M 5.1904063,7.4032223 C 5.0736219,7.3978195 4.9839755,7.2993275 4.9893867,7.1823738 l 0.00458,-0.098958 A 0.79135391,0.79250808 2.6493618 0 1 4.751328,6.9276401 L 4.663385,6.9731551 C 4.5595413,7.0269525 4.4326824,6.9865059 4.3789772,6.8825193 L 4.3304852,6.7887798 C 4.2767801,6.684792 4.3171846,6.5577438 4.4210272,6.5039456 l 0.087568,-0.045385 A 0.79135391,0.79250808 2.6493618 0 1 4.5014544,6.3135342 0.79135391,0.79250808 2.6493618 0 1 4.5219569,6.1697871 L 4.4389543,6.1165093 C 4.3405219,6.0533522 4.3120226,5.9231153 4.3751013,5.8245318 l 0.056941,-0.088861 c 0.06308,-0.098583 0.193131,-0.1271418 0.2915634,-0.063985 l 0.082789,0.05312 A 0.79135391,0.79250808 2.6493618 0 1 5.0629459,5.5926456 l 0.00459,-0.099178 c 0.00541,-0.1169543 0.1037722,-0.2067451 0.2205567,-0.201341 l 0.1054301,0.00488 c 0.1167844,0.0054 0.2064308,0.103895 0.2010196,0.2208485 l -0.00461,0.099547 a 0.79135391,0.79250808 2.6493618 0 1 0.2426655,0.1551871 l 0.087943,-0.045515 c 0.103844,-0.053797 0.2307027,-0.013351 0.2844081,0.090636 l 0.04849,0.093739 c 0.053705,0.1039876 0.013301,0.2310357 -0.090542,0.2848337 l -0.087568,0.045385 a 0.79135391,0.79250808 2.6493618 0 1 0.00714,0.1450263 0.79135391,0.79250808 2.6493618 0 1 -0.020505,0.1437473 l 0.083003,0.053278 c 0.098433,0.063157 0.126932,0.1933943 0.063853,0.2919778 l -0.056941,0.088861 c -0.063073,0.098583 -0.1931258,0.1271403 -0.2915582,0.063983 l -0.082789,-0.05312 A 0.79135391,0.79250808 2.6493618 0 1 5.5209794,7.1076557 l -0.00459,0.099105 C 5.5109781,7.3237152 5.4126227,7.4135056 5.295838,7.4081017 Z M 5.2710357,6.8024178 C 5.5205058,6.8139616 5.7321269,6.6207766 5.7436876,6.3709424 5.7552473,6.1211086 5.5623684,5.90928 5.3128981,5.8977362 5.063428,5.8861924 4.8518103,6.0793036 4.8402498,6.3291375 4.8286899,6.5789719 5.0215656,6.790874 5.2710357,6.8024178 Z"
       id="path4-8"
       inkscape:connector-curvature="0" />
  </g>
</svg>
