<?xml version="1.0" encoding="UTF-8" standalone="no"?>
<svg
   xmlns:dc="http://purl.org/dc/elements/1.1/"
   xmlns:cc="http://creativecommons.org/ns#"
   xmlns:rdf="http://www.w3.org/1999/02/22-rdf-syntax-ns#"
   xmlns:svg="http://www.w3.org/2000/svg"
   xmlns="http://www.w3.org/2000/svg"
   xmlns:sodipodi="http://sodipodi.sourceforge.net/DTD/sodipodi-0.dtd"
   xmlns:inkscape="http://www.inkscape.org/namespaces/inkscape"
   sodipodi:docname="text-x-javascript.svg"
   inkscape:version="0.92.5 (2060ec1f9f, 2020-04-08)"
   id="svg8"
   version="1.1"
   viewBox="0 0 8.4666665 8.4666669"
   height="32"
   width="32">
  <defs
     id="defs2">
    <filter
       inkscape:collect="always"
       style="color-interpolation-filters:sRGB"
       id="filter978"
       x="-0.117"
       width="1.234"
       y="-0.10028572"
       height="1.2005714">
      <feGaussianBlur
         inkscape:collect="always"
         stdDeviation="0.30956249"
         id="feGaussianBlur980" />
    </filter>
  </defs>
  <sodipodi:namedview
     inkscape:window-maximized="1"
     inkscape:window-y="24"
     inkscape:window-x="65"
     inkscape:window-height="1056"
     inkscape:window-width="1855"
     units="px"
     showgrid="false"
     inkscape:document-rotation="0"
     inkscape:current-layer="layer1"
     inkscape:document-units="px"
     inkscape:cy="33.181681"
     inkscape:cx="10.704003"
     inkscape:zoom="9.0045629"
     inkscape:pageshadow="2"
     inkscape:pageopacity="0.0"
     borderopacity="1.0"
     bordercolor="#666666"
     pagecolor="#ffffff"
     id="base" />
  <metadata
     id="metadata5">
    <rdf:RDF>
      <cc:Work
         rdf:about="">
        <dc:format>image/svg+xml</dc:format>
        <dc:type
           rdf:resource="http://purl.org/dc/dcmitype/StillImage" />
        <dc:title></dc:title>
      </cc:Work>
    </rdf:RDF>
  </metadata>
  <g
     id="layer1"
     inkscape:groupmode="layer"
     inkscape:label="Capa 1">
    <path
       style="opacity:0.5;fill:#000000;fill-opacity:1;stroke:none;stroke-width:2.29352999;filter:url(#filter978)"
       d="M 1.0583334,0.5291668 V 7.9374999 H 7.4083333 V 2.1166666 l -1.5875,-1.5874998 z"
       id="path926-2"
       inkscape:connector-curvature="0" />
    <path
       style="opacity:1;fill:#ffcc00;fill-opacity:1;stroke:none;stroke-width:2.29352999"
       d="M 1.0583334,0.52916675 V 7.9374999 H 7.4083333 V 2.1166666 l -1.5875,-1.58749985 z"
       id="path926"
       inkscape:connector-curvature="0" />
    <path
       inkscape:connector-curvature="0"
       style="opacity:0.2;fill:#000000;fill-opacity:1;stroke:none;stroke-width:2.29352999"
       d="M 5.8208333,0.52916675 V 2.1166669 h 1.5875 z"
       id="path926-1" />
    <path
       sodipodi:type="inkscape:offset"
       inkscape:radius="0"
       inkscape:original="M -3.4941406 -9.8261719 L -3.4941406 -2.8613281 C -3.4941406 -2.4134657 -3.6008572 -2.0726183 -3.8144531 -1.8417969 C -4.0246039 -1.6109755 -4.3365886 -1.4960938 -4.75 -1.4960938 L -5.0605469 -1.4960938 L -5.0605469 0.0078125 L -4.6582031 0.0078125 C -3.6005588 0.0078125 -2.811225 -0.22965496 -2.2910156 -0.70507812 C -1.7673611 -1.1805013 -1.5058594 -1.9001465 -1.5058594 -2.8613281 L -1.5058594 -9.8261719 L -3.4941406 -9.8261719 z M 2.5820312 -8.0390625 C 1.7138672 -8.0390625 1.0706923 -7.8900282 0.65039062 -7.59375 C 0.23008899 -7.2974718 0.01953125 -6.8436957 0.01953125 -6.2304688 C 0.01953125 -5.662028 0.18489584 -5.2380371 0.515625 -4.9589844 C 0.84635416 -4.6799316 1.422716 -4.4881185 2.2460938 -4.3847656 L 2.5722656 -4.34375 C 2.947781 -4.2989638 3.1982422 -4.235026 3.3222656 -4.1523438 C 3.4497342 -4.0731066 3.5117188 -3.9505208 3.5117188 -3.7851562 C 3.5117188 -3.5887858 3.4208713 -3.4417046 3.2382812 -3.3417969 C 3.0556912 -3.2418891 2.78361 -3.1914062 2.421875 -3.1914062 C 2.0222439 -3.1914062 1.627577 -3.2365994 1.2382812 -3.3261719 C 0.85243057 -3.4157444 0.47604708 -3.5493707 0.10742188 -3.7285156 L 0.10742188 -2.3222656 C 0.5380588 -2.2016873 0.95675999 -2.1132541 1.3632812 -2.0546875 C 1.7732476 -1.9926758 2.1683757 -1.9609375 2.5507812 -1.9609375 C 3.4533962 -1.9609375 4.133138 -2.1157227 4.5878906 -2.4257812 C 5.0426432 -2.7358398 5.2695312 -3.1997342 5.2695312 -3.8164062 C 5.2695312 -4.4055176 5.1065809 -4.8376736 4.7792969 -5.1132812 C 4.4520128 -5.3888889 3.8145887 -5.5864529 2.8671875 -5.7070312 L 2.5410156 -5.7539062 C 2.2068414 -5.7918023 1.9746636 -5.8504503 1.84375 -5.9296875 C 1.7162815 -6.0089247 1.6523438 -6.1233453 1.6523438 -6.2714844 C 1.6523438 -6.4540744 1.7374403 -6.5877007 1.90625 -6.6738281 C 2.0785048 -6.7634006 2.3400065 -6.8085938 2.6914062 -6.8085938 C 3.0186903 -6.8085938 3.3657498 -6.7682292 3.734375 -6.6855469 C 4.1030002 -6.6028646 4.4866265 -6.4778646 4.8828125 -6.3125 L 4.8828125 -7.71875 C 4.4418403 -7.8289931 4.0337185 -7.9092611 3.6582031 -7.9609375 C 3.2826877 -8.0126139 2.9230957 -8.0390625 2.5820312 -8.0390625 z "
       style="font-style:normal;font-weight:normal;font-size:10.58333302px;line-height:1.25;font-family:sans-serif;letter-spacing:0px;word-spacing:0px;fill:#000000;fill-opacity:1;stroke:none;stroke-width:0.26458332"
       id="text1113"
       d="m -3.4941406,-9.8261719 v 6.9648438 c 0,0.4478624 -0.1067166,0.7887098 -0.3203125,1.0195312 -0.2101508,0.2308214 -0.5221355,0.3457031 -0.9355469,0.3457031 h -0.3105469 v 1.5039063 h 0.4023438 c 1.0576443,0 1.8469781,-0.23746746 2.3671875,-0.71289062 0.5236545,-0.47542318 0.7851562,-1.19506838 0.7851562,-2.15624998 v -6.9648438 z m 6.0761718,1.7871094 c -0.868164,0 -1.5113389,0.1490343 -1.93164058,0.4453125 -0.42030163,0.2962782 -0.63085937,0.7500543 -0.63085937,1.3632812 0,0.5684408 0.16536459,0.9924317 0.49609375,1.2714844 0.33072916,0.2790528 0.907091,0.4708659 1.7304688,0.5742188 l 0.3261718,0.041016 c 0.3755154,0.044786 0.6259766,0.108724 0.75,0.1914062 0.1274686,0.079237 0.1894532,0.201823 0.1894532,0.3671876 0,0.1963704 -0.090848,0.3434516 -0.2734376,0.4433593 -0.18259,0.099908 -0.4546712,0.1503907 -0.8164062,0.1503907 -0.3996311,0 -0.794298,-0.045193 -1.1835938,-0.1347657 -0.38585063,-0.089573 -0.76223412,-0.2231988 -1.13085932,-0.4023437 v 1.40625 c 0.43063692,0.1205783 0.84933811,0.2090115 1.25585932,0.2675781 0.4099664,0.062012 0.8050945,0.09375 1.1875,0.09375 0.902615,0 1.5823568,-0.1547852 2.0371094,-0.4648437 0.4547526,-0.3100586 0.6816406,-0.773953 0.6816406,-1.390625 0,-0.5891114 -0.1629503,-1.0212674 -0.4902343,-1.296875 -0.3272841,-0.2756077 -0.9647082,-0.4731717 -1.9121094,-0.59375 L 2.5410156,-5.7539062 C 2.2068414,-5.7918023 1.9746636,-5.8504503 1.84375,-5.9296875 1.7162815,-6.0089247 1.6523438,-6.1233453 1.6523438,-6.2714844 c 0,-0.18259 0.085097,-0.3162163 0.2539062,-0.4023437 0.1722548,-0.089573 0.4337565,-0.1347657 0.7851562,-0.1347657 0.3272841,0 0.6743436,0.040365 1.0429688,0.1230469 0.3686252,0.082682 0.7522515,0.2076823 1.1484375,0.3730469 V -7.71875 C 4.4418403,-7.8289931 4.0337185,-7.9092611 3.6582031,-7.9609375 3.2826877,-8.0126139 2.9230957,-8.0390625 2.5820312,-8.0390625 Z"
       transform="matrix(0.16142999,0,0,0.16142999,4.2164652,7.4070722)" />
  </g>
</svg>
