<?xml version="1.0" encoding="UTF-8" standalone="no"?>
<svg
   xmlns:dc="http://purl.org/dc/elements/1.1/"
   xmlns:cc="http://creativecommons.org/ns#"
   xmlns:rdf="http://www.w3.org/1999/02/22-rdf-syntax-ns#"
   xmlns:svg="http://www.w3.org/2000/svg"
   xmlns="http://www.w3.org/2000/svg"
   xmlns:sodipodi="http://sodipodi.sourceforge.net/DTD/sodipodi-0.dtd"
   xmlns:inkscape="http://www.inkscape.org/namespaces/inkscape"
   width="32"
   height="32"
   viewBox="0 0 8.4666665 8.4666669"
   version="1.1"
   id="svg8"
   inkscape:version="1.0 (4035a4fb49, 2020-05-01)"
   sodipodi:docname="text-x-python.svg">
  <defs
     id="defs2">
    <filter
       inkscape:collect="always"
       style="color-interpolation-filters:sRGB"
       id="filter4299"
       x="-0.117"
       width="1.234"
       y="-0.10028571"
       height="1.2005714">
      <feGaussianBlur
         inkscape:collect="always"
         stdDeviation="0.3095625"
         id="feGaussianBlur4301" />
    </filter>
  </defs>
  <sodipodi:namedview
     id="base"
     pagecolor="#ffffff"
     bordercolor="#666666"
     borderopacity="1.0"
     inkscape:pageopacity="0.0"
     inkscape:pageshadow="2"
     inkscape:zoom="18.009126"
     inkscape:cx="1.0775084"
     inkscape:cy="24.753207"
     inkscape:document-units="px"
     inkscape:current-layer="layer1"
     inkscape:document-rotation="0"
     showgrid="false"
     units="px"
     inkscape:window-width="1920"
     inkscape:window-height="1002"
     inkscape:window-x="0"
     inkscape:window-y="0"
     inkscape:window-maximized="1" />
  <metadata
     id="metadata5">
    <rdf:RDF>
      <cc:Work
         rdf:about="">
        <dc:format>image/svg+xml</dc:format>
        <dc:type
           rdf:resource="http://purl.org/dc/dcmitype/StillImage" />
        <dc:title />
      </cc:Work>
    </rdf:RDF>
  </metadata>
  <g
     inkscape:label="Capa 1"
     inkscape:groupmode="layer"
     id="layer1">
    <rect
       y="0.5291667"
       x="1.0583334"
       height="7.4083333"
       width="6.3499999"
       id="rect833-0"
       style="opacity:0.5;fill:#000000;fill-opacity:1;stroke:none;stroke-width:2.29353;filter:url(#filter4299)" />
    <rect
       style="opacity:1;fill:#e5e5e5;fill-opacity:1;stroke:none;stroke-width:2.29353"
       id="rect833"
       width="6.3499999"
       height="7.4083333"
       x="1.0583334"
       y="0.5291667" />
    <path
       inkscape:connector-curvature="0"
       style="opacity:0.4;fill:none;stroke:#000000;stroke-width:0.127908px;stroke-linecap:butt;stroke-linejoin:miter;stroke-opacity:1"
       id="path3475"
       d="m 2.1166667,1.651454 h 0.3988697 z m 0.4573703,0 h 0.3722781 z m 0.4307791,0 h 0.3297317 z m 0.3829145,0 h 0.1435931 z m 0.202094,0 h 0.3190952 z m 0.3829143,0 h 0.8402849 z m 0.8934672,0 h 0.6435093 z m 0.6966921,0 H 5.7596739 Z M 2.1166667,2.0387358 h 0.6222362 z m 0.691374,0 h 0.2978219 z m 0.351005,0 h 0.1489112 z m 0.2074121,0 h 0.271231 z m 0.3297315,0 h 0.2765496 z m 0.3297324,0 H 4.467337 Z m 0.4999157,0 h 0.5743723 z m 0.6275546,0 h 0.3829148 z m 0.4360974,0 h 0.095729 z M 2.1166667,2.4233132 h 0.5265078 z m 0.5796902,0 h 0.8615579 z m 0.9147405,0 h 0.4201425 z m 0.473325,0 h 0.3935511 z m 0.4467339,0 h 0.3350498 z m 0.3882321,0 0.5265082,0.00541 z m 0.5743721,0.00541 H 6.35 Z M 2.1166667,2.8133 h 0.7286019 z m 0.7871029,0 h 0.7871018 z m 0.8402844,0 h 0.3137773 z m 0.3669596,0 h 0.7392379 z m 0.7871021,0 h 0.5052348 z m 0.5637355,0 h 0.2020935 z m 0.2552761,0 h 0.1116835 z m 0.1701845,0 H 6.2010891 Z M 2.1166667,3.2005822 h 0.2712311 z m 0.3563234,0 h 1.005151 z M 2.1166667,3.8460523 h 0.3988697 z m 0.4573703,0 h 0.36696 z m 0.4307791,0 h 0.3297317 z m 0.3829145,0 h 0.1435931 z m 0.202094,0 h 0.3190952 z m 0.3829143,0 h 0.8349663 z m 0.8934672,0 h 0.6381912 z m 0.6913735,0 h 0.2020943 z m 0.2552766,0 H 6.2914994 Z M 2.1166667,4.2333338 h 0.6701009 z m 0.7232835,0 h 0.7179646 z m 0.7711472,0 H 3.887647 Z m 0.3297322,0 h 0.6754188 z m 0.7286011,0 h 0.8509215 z m 0.9094219,0 H 5.8926299 Z M 2.1166667,4.6206155 h 0.7286019 z m 0.7871029,0 h 0.7871018 z m 0.8402844,0 h 0.3137773 z m 0.3669596,0 h 0.7392379 z m 0.7871021,0 h 0.5052348 z m 0.5637355,0 h 0.2020935 z m 0.2552761,0 h 0.1116835 z m 0.1701845,0 h 0.3137773 z m -3.7706451,0.387282 h 0.6222362 z m 0.691374,0 h 0.2978219 z m 0.351005,0 h 0.1489112 z m 0.2074121,0 h 0.271231 z m 0.3297315,0 h 0.2765496 z m 0.3297324,0 H 4.467337 Z m 0.4999157,0 h 0.5743723 z m 0.6275546,0 h 0.3829148 z m 0.4360974,0 h 0.095729 z M 2.1166667,5.6506633 h 0.5265078 z m 0.5796902,0 h 0.8615579 z m 0.9147405,0 h 0.4201425 z m 0.473325,0 h 0.3935511 z m 0.4467339,0 h 0.3350498 z m 0.3882321,0 0.5265082,0.00541 z m 0.5743721,0.00541 H 6.35 Z M 2.1166667,6.0406488 h 0.6222362 z m 0.691374,0 h 0.2978219 z m 0.351005,0 h 0.1489112 z m 0.2074121,0 h 0.271231 z m 0.3297315,0 h 0.2765496 z m 0.3297324,0 H 4.467337 Z m 0.4999157,0 h 0.5743723 z m 0.6275546,0 h 0.3829148 z m 0.4360974,0 h 0.095729 z m -3.4728227,0.387282 h 0.6594644 z m 0.7179651,0 H 3.042044 Z m 0.2605945,0 h 0.473325 z m 0.5265076,0 h 0.6966919 z m 0.7551923,0 h 0.4733253 z m 0.5211895,0 h 0.101047 z m 0.1542296,0 h 0.6009632 z m 0.664782,0 H 6.0309046 Z M 2.1166667,6.8152126 h 0.6594644 z m 0.7179651,0 h 0.2978224 z m 0.351005,0 h 0.4680067 z m 0.5211895,0 h 0.5052343 z m 0.563735,0 h 0.2020938 z m 0.2552761,0 h 0.1116838 z m 0.1701845,0 h 0.3137778 z" />
    <rect
       style="opacity:1;fill:#ffd546;fill-opacity:1;stroke:none;stroke-width:1.00098"
       id="rect833-1-6"
       width="4.2333336"
       height="2.1166668"
       x="8.8817842e-16"
       y="1.5875" />
    <g
       aria-label="Python"
       id="text1006"
       style="font-style:normal;font-weight:normal;font-size:10.5833px;line-height:1.25;font-family:sans-serif;fill:#ffffff;fill-opacity:1;stroke:none;stroke-width:0.264583"
       transform="matrix(0.1033303,0,0,0.1033303,0.83411889,2.3306905)">
      <path
         d="m -3.9175818,-0.887872 v 2.8990386 h 1.3125772 q 0.7286353,0 1.1265426,-0.3772367 0.3979073,-0.3772368 0.3979073,-1.0748664 0,-0.69246199 -0.3979073,-1.06969875 Q -1.8763693,-0.887872 -2.6050046,-0.887872 Z m -1.0438606,-0.857826 h 2.3564378 q 1.2970743,0 1.95853052,0.5891094 0.66662385,0.58394183 0.66662385,1.7156521 0,1.1420455 -0.66662385,1.7259873 -0.66145622,0.5839419 -1.95853052,0.5839419 h -1.3125772 v 3.100576 h -1.0438606 z"
         style="fill:#000000;fill-opacity:1;stroke-width:0.264583"
         id="path1008" />
      <path
         d="M 3.7873497,6.5070019 Q 3.3842748,7.5405273 3.0018704,7.8557525 2.619466,8.1709777 1.9786803,8.1709777 H 1.2190392 V 7.3751632 h 0.5581037 q 0.3927396,0 0.6097799,-0.1860346 Q 2.6039631,7.0030941 2.8675121,6.3106321 L 3.0380438,5.8765514 0.69710885,0.18182674 H 1.7047961 L 3.5134654,4.7086678 5.3221348,0.18182674 H 6.329822 Z"
         style="fill:#000000;fill-opacity:1;stroke-width:0.264583"
         id="path1010" />
      <path
         d="M 8.5829072,-1.4614786 V 0.18182674 H 10.541438 V 0.92079737 H 8.5829072 V 4.0627144 q 0,0.7079649 0.1912022,0.9095024 0.1963698,0.2015374 0.7906469,0.2015374 H 10.541438 V 5.9695687 H 9.5647563 q -1.1007045,0 -1.5192823,-0.4082425 Q 7.6268963,5.1479161 7.6268963,4.0627144 V 0.92079737 H 6.9292667 V 0.18182674 H 7.6268963 V -1.4614786 Z"
         style="fill:#040404;fill-opacity:1;stroke-width:0.264583"
         id="path1012" />
      <path
         d="M 16.603064,2.476253 V 5.9695687 H 15.65222 V 2.5072588 q 0,-0.8216527 -0.320393,-1.2298952 -0.320393,-0.4082425 -0.961178,-0.4082425 -0.769977,0 -1.214393,0.4909245 -0.444415,0.4909246 -0.444415,1.3384154 V 5.9695687 H 11.75583 v -8.0408272 h 0.956011 v 3.1522523 q 0.341063,-0.5219303 0.800982,-0.78031164 0.465086,-0.25838134 1.069698,-0.25838134 0.997352,0 1.508947,0.62011521 0.511596,0.61494757 0.511596,1.81383697 z"
         style="fill:#000000;fill-opacity:1;stroke-width:0.264583"
         id="path1014" />
      <path
         d="m 20.742334,0.84845059 q -0.764809,0 -1.209225,0.59944471 -0.444416,0.5942771 -0.444416,1.6329701 0,1.0386929 0.439248,1.6381376 0.444416,0.5942771 1.214393,0.5942771 0.759641,0 1.204057,-0.5994447 0.444416,-0.5994447 0.444416,-1.63297 0,-1.0283578 -0.444416,-1.6278025 -0.444416,-0.60461231 -1.204057,-0.60461231 z m 0,-0.80614977 q 1.24023,0 1.948195,0.80614977 0.707965,0.80614981 0.707965,2.23241481 0,1.4210973 -0.707965,2.2324147 -0.707965,0.8061498 -1.948195,0.8061498 -1.245398,0 -1.953363,-0.8061498 -0.702798,-0.8113174 -0.702798,-2.2324147 0,-1.426265 0.702798,-2.23241481 0.707965,-0.80614977 1.953363,-0.80614977 z"
         style="fill:#000000;fill-opacity:1;stroke-width:0.264583"
         id="path1016" />
      <path
         d="M 29.785679,2.476253 V 5.9695687 H 28.834835 V 2.5072588 q 0,-0.8216527 -0.320392,-1.2298952 -0.320393,-0.4082425 -0.961179,-0.4082425 -0.769976,0 -1.214392,0.4909245 -0.444416,0.4909246 -0.444416,1.3384154 V 5.9695687 H 24.938445 V 0.18182674 h 0.956011 V 1.0809938 q 0.341063,-0.5219303 0.800982,-0.78031164 0.465086,-0.25838134 1.069699,-0.25838134 0.997352,0 1.508947,0.62011521 0.511595,0.61494757 0.511595,1.81383697 z"
         style="fill:#000000;fill-opacity:1;stroke-width:0.264583"
         id="path1018" />
    </g>
  </g>
</svg>
