<?xml version="1.0" encoding="UTF-8" standalone="no"?>
<svg
   xmlns:dc="http://purl.org/dc/elements/1.1/"
   xmlns:cc="http://creativecommons.org/ns#"
   xmlns:rdf="http://www.w3.org/1999/02/22-rdf-syntax-ns#"
   xmlns:svg="http://www.w3.org/2000/svg"
   xmlns="http://www.w3.org/2000/svg"
   xmlns:sodipodi="http://sodipodi.sourceforge.net/DTD/sodipodi-0.dtd"
   xmlns:inkscape="http://www.inkscape.org/namespaces/inkscape"
   sodipodi:docname="text-x-java.svg"
   inkscape:version="1.0 (4035a4fb49, 2020-05-01)"
   id="svg8"
   version="1.1"
   viewBox="0 0 8.4666665 8.4666669"
   height="32"
   width="32">
  <defs
     id="defs2">
    <filter
       height="1.2005714"
       y="-0.10028571"
       width="1.234"
       x="-0.117"
       id="filter4299"
       style="color-interpolation-filters:sRGB"
       inkscape:collect="always">
      <feGaussianBlur
         id="feGaussianBlur4301"
         stdDeviation="0.3095625"
         inkscape:collect="always" />
    </filter>
  </defs>
  <sodipodi:namedview
     inkscape:window-maximized="1"
     inkscape:window-y="0"
     inkscape:window-x="0"
     inkscape:window-height="1002"
     inkscape:window-width="1920"
     units="px"
     showgrid="false"
     inkscape:document-rotation="0"
     inkscape:current-layer="layer1"
     inkscape:document-units="px"
     inkscape:cy="12.886221"
     inkscape:cx="13.502434"
     inkscape:zoom="18.009126"
     inkscape:pageshadow="2"
     inkscape:pageopacity="0.0"
     borderopacity="1.0"
     bordercolor="#666666"
     pagecolor="#ffffff"
     id="base" />
  <metadata
     id="metadata5">
    <rdf:RDF>
      <cc:Work
         rdf:about="">
        <dc:format>image/svg+xml</dc:format>
        <dc:type
           rdf:resource="http://purl.org/dc/dcmitype/StillImage" />
        <dc:title />
      </cc:Work>
    </rdf:RDF>
  </metadata>
  <g
     id="layer1"
     inkscape:groupmode="layer"
     inkscape:label="Capa 1">
    <rect
       style="opacity:0.5;fill:#000000;fill-opacity:1;stroke:none;stroke-width:2.29353;filter:url(#filter4299)"
       id="rect833-0"
       width="6.3499999"
       height="7.4083333"
       x="1.0583334"
       y="0.5291667" />
    <rect
       y="0.5291667"
       x="1.0583334"
       height="7.4083333"
       width="6.3499999"
       id="rect833"
       style="opacity:1;fill:#e5e5e5;fill-opacity:1;stroke:none;stroke-width:2.29353" />
    <path
       d="m 2.1166667,1.651454 h 0.3988697 z m 0.4573703,0 h 0.3722781 z m 0.4307791,0 h 0.3297317 z m 0.3829145,0 h 0.1435931 z m 0.202094,0 h 0.3190952 z m 0.3829143,0 h 0.8402849 z m 0.8934672,0 h 0.6435093 z m 0.6966921,0 H 5.7596739 Z M 2.1166667,2.0387358 h 0.6222362 z m 0.691374,0 h 0.2978219 z m 0.351005,0 h 0.1489112 z m 0.2074121,0 h 0.271231 z m 0.3297315,0 h 0.2765496 z m 0.3297324,0 H 4.467337 Z m 0.4999157,0 h 0.5743723 z m 0.6275546,0 h 0.3829148 z m 0.4360974,0 h 0.095729 z M 2.1166667,2.4233132 h 0.5265078 z m 0.5796902,0 h 0.8615579 z m 0.9147405,0 h 0.4201425 z m 0.473325,0 h 0.3935511 z m 0.4467339,0 h 0.3350498 z m 0.3882321,0 0.5265082,0.00541 z m 0.5743721,0.00541 H 6.35 Z M 2.1166667,2.8133 h 0.7286019 z m 0.7871029,0 h 0.7871018 z m 0.8402844,0 h 0.3137773 z m 0.3669596,0 h 0.7392379 z m 0.7871021,0 h 0.5052348 z m 0.5637355,0 h 0.2020935 z m 0.2552761,0 h 0.1116835 z m 0.1701845,0 H 6.2010891 Z M 2.1166667,3.2005822 h 0.2712311 z m 0.3563234,0 h 1.005151 z M 2.1166667,3.8460523 h 0.3988697 z m 0.4573703,0 h 0.36696 z m 0.4307791,0 h 0.3297317 z m 0.3829145,0 h 0.1435931 z m 0.202094,0 h 0.3190952 z m 0.3829143,0 h 0.8349663 z m 0.8934672,0 h 0.6381912 z m 0.6913735,0 h 0.2020943 z m 0.2552766,0 H 6.2914994 Z M 2.1166667,4.2333338 h 0.6701009 z m 0.7232835,0 h 0.7179646 z m 0.7711472,0 H 3.887647 Z m 0.3297322,0 h 0.6754188 z m 0.7286011,0 h 0.8509215 z m 0.9094219,0 H 5.8926299 Z M 2.1166667,4.6206155 h 0.7286019 z m 0.7871029,0 h 0.7871018 z m 0.8402844,0 h 0.3137773 z m 0.3669596,0 h 0.7392379 z m 0.7871021,0 h 0.5052348 z m 0.5637355,0 h 0.2020935 z m 0.2552761,0 h 0.1116835 z m 0.1701845,0 h 0.3137773 z m -3.7706451,0.387282 h 0.6222362 z m 0.691374,0 h 0.2978219 z m 0.351005,0 h 0.1489112 z m 0.2074121,0 h 0.271231 z m 0.3297315,0 h 0.2765496 z m 0.3297324,0 H 4.467337 Z m 0.4999157,0 h 0.5743723 z m 0.6275546,0 h 0.3829148 z m 0.4360974,0 h 0.095729 z M 2.1166667,5.6506633 h 0.5265078 z m 0.5796902,0 h 0.8615579 z m 0.9147405,0 h 0.4201425 z m 0.473325,0 h 0.3935511 z m 0.4467339,0 h 0.3350498 z m 0.3882321,0 0.5265082,0.00541 z m 0.5743721,0.00541 H 6.35 Z M 2.1166667,6.0406488 h 0.6222362 z m 0.691374,0 h 0.2978219 z m 0.351005,0 h 0.1489112 z m 0.2074121,0 h 0.271231 z m 0.3297315,0 h 0.2765496 z m 0.3297324,0 H 4.467337 Z m 0.4999157,0 h 0.5743723 z m 0.6275546,0 h 0.3829148 z m 0.4360974,0 h 0.095729 z m -3.4728227,0.387282 h 0.6594644 z m 0.7179651,0 H 3.042044 Z m 0.2605945,0 h 0.473325 z m 0.5265076,0 h 0.6966919 z m 0.7551923,0 h 0.4733253 z m 0.5211895,0 h 0.101047 z m 0.1542296,0 h 0.6009632 z m 0.664782,0 H 6.0309046 Z M 2.1166667,6.8152126 h 0.6594644 z m 0.7179651,0 h 0.2978224 z m 0.351005,0 h 0.4680067 z m 0.5211895,0 h 0.5052343 z m 0.563735,0 h 0.2020938 z m 0.2552761,0 h 0.1116838 z m 0.1701845,0 h 0.3137778 z"
       id="path3475"
       style="opacity:0.4;fill:none;stroke:#000000;stroke-width:0.127908px;stroke-linecap:butt;stroke-linejoin:miter;stroke-opacity:1"
       inkscape:connector-curvature="0" />
    <rect
       style="opacity:1;fill:#d70003;fill-opacity:1;stroke:none;stroke-width:1.00098"
       id="rect833-1"
       width="4.2333336"
       height="2.1166668"
       x="0"
       y="1.5875" />
    <g
       aria-label="Java"
       id="text843"
       style="font-style:normal;font-weight:normal;font-size:10.5833px;line-height:1.25;font-family:sans-serif;fill:#ffffff;fill-opacity:1;stroke:none;stroke-width:0.264583"
       transform="matrix(0.16142984,0,0,0.16142984,0.65043871,2.3929575)">
      <path
         d="m -0.30165264,-3.3505212 h 1.04386061 v 7.1778336 q 0,1.3952593 -0.53226556,2.0257097 -0.52709793,0.6304505 -1.70014921,0.6304505 H -1.8881141 V 5.604976 h 0.3255605 q 0.69246202,0 0.97668149,-0.387572 0.28421947,-0.387572 0.28421947,-1.3900916 z"
         style="fill:#ffffff;fill-opacity:1;stroke-width:0.264583"
         id="path845" />
      <path
         d="m 5.408575,1.4553717 q -1.1523808,0 -1.5967967,0.263549 -0.4444159,0.263549 -0.4444159,0.8991671 0,0.5064274 0.3307281,0.8061497 0.3358957,0.2945548 0.9095023,0.2945548 0.7906469,0 1.2660686,-0.5581037 Q 6.3542507,2.5974173 6.3542507,1.6672444 V 1.4553717 Z M 7.305094,1.0626321 V 4.3647456 H 6.3542507 V 3.4862491 Q 6.0286902,4.013347 5.5429332,4.2665607 5.0571763,4.5146068 4.3543791,4.5146068 q -0.8888318,0 -1.4159297,-0.4960922 Q 2.416519,3.5172548 2.416519,2.6800993 2.416519,1.7034178 3.06764,1.2073257 3.7239286,0.71123349 5.0210029,0.71123349 H 6.3542507 V 0.6182162 q 0,-0.6562886 -0.4340807,-1.01285484 -0.428913,-0.36173388 -1.2092247,-0.36173388 -0.4960921,0 -0.9663462,0.11885542 -0.470254,0.11885541 -0.9043347,0.35656625 V -1.1594474 q 0.5219303,-0.2015375 1.0128549,-0.2997224 0.4909245,-0.1033525 0.9560109,-0.1033525 1.2557334,0 1.8758486,0.65112098 0.6201152,0.65112097 0.6201152,1.97403342 z"
         style="fill:#ffffff;fill-opacity:1;stroke-width:0.264583"
         id="path847" />
      <path
         d="m 8.5814975,-1.4229964 h 1.0076873 l 1.8086692,4.8575692 1.80867,-4.8575692 h 1.007687 l -2.170404,5.787742 h -1.291906 z"
         style="fill:#ffffff;fill-opacity:1;stroke-width:0.264583"
         id="path849" />
      <path
         d="m 18.15711,1.4553717 q -1.152381,0 -1.596797,0.263549 -0.444416,0.263549 -0.444416,0.8991671 0,0.5064274 0.330728,0.8061497 0.335896,0.2945548 0.909503,0.2945548 0.790647,0 1.266068,-0.5581037 0.48059,-0.5632713 0.48059,-1.4934442 V 1.4553717 Z M 20.053629,1.0626321 V 4.3647456 H 19.102786 V 3.4862491 q -0.325561,0.5270979 -0.811318,0.7803116 -0.485757,0.2480461 -1.188554,0.2480461 -0.888832,0 -1.41593,-0.4960922 -0.52193,-0.5012598 -0.52193,-1.3384153 0,-0.9766815 0.651121,-1.4727736 0.656289,-0.49609221 1.953363,-0.49609221 h 1.333248 V 0.6182162 q 0,-0.6562886 -0.434081,-1.01285484 -0.428913,-0.36173388 -1.209225,-0.36173388 -0.496092,0 -0.966346,0.11885542 -0.470254,0.11885541 -0.904335,0.35656625 V -1.1594474 q 0.521931,-0.2015375 1.012855,-0.2997224 0.490925,-0.1033525 0.956011,-0.1033525 1.255733,0 1.875849,0.65112098 0.620115,0.65112097 0.620115,1.97403342 z"
         style="fill:#ffffff;fill-opacity:1;stroke-width:0.264583"
         id="path851" />
    </g>
  </g>
</svg>
