<?xml version="1.0" encoding="UTF-8" standalone="no"?>
<svg
   xmlns:dc="http://purl.org/dc/elements/1.1/"
   xmlns:cc="http://creativecommons.org/ns#"
   xmlns:rdf="http://www.w3.org/1999/02/22-rdf-syntax-ns#"
   xmlns:svg="http://www.w3.org/2000/svg"
   xmlns="http://www.w3.org/2000/svg"
   xmlns:sodipodi="http://sodipodi.sourceforge.net/DTD/sodipodi-0.dtd"
   xmlns:inkscape="http://www.inkscape.org/namespaces/inkscape"
   width="32"
   height="32"
   viewBox="0 0 8.4666665 8.4666669"
   version="1.1"
   id="svg8"
   inkscape:version="1.0 (4035a4fb49, 2020-05-01)"
   sodipodi:docname="text-css.svg">
  <defs
     id="defs2">
    <filter
       inkscape:collect="always"
       style="color-interpolation-filters:sRGB"
       id="filter4299"
       x="-0.117"
       width="1.234"
       y="-0.10028571"
       height="1.2005714">
      <feGaussianBlur
         inkscape:collect="always"
         stdDeviation="0.3095625"
         id="feGaussianBlur4301" />
    </filter>
  </defs>
  <sodipodi:namedview
     id="base"
     pagecolor="#ffffff"
     bordercolor="#666666"
     borderopacity="1.0"
     inkscape:pageopacity="0.0"
     inkscape:pageshadow="2"
     inkscape:zoom="18.009126"
     inkscape:cx="10.229405"
     inkscape:cy="22.087335"
     inkscape:document-units="px"
     inkscape:current-layer="layer1"
     inkscape:document-rotation="0"
     showgrid="false"
     units="px"
     inkscape:window-width="1920"
     inkscape:window-height="1002"
     inkscape:window-x="0"
     inkscape:window-y="0"
     inkscape:window-maximized="1" />
  <metadata
     id="metadata5">
    <rdf:RDF>
      <cc:Work
         rdf:about="">
        <dc:format>image/svg+xml</dc:format>
        <dc:type
           rdf:resource="http://purl.org/dc/dcmitype/StillImage" />
        <dc:title />
      </cc:Work>
    </rdf:RDF>
  </metadata>
  <g
     inkscape:label="Capa 1"
     inkscape:groupmode="layer"
     id="layer1">
    <rect
       y="0.5291667"
       x="1.0583334"
       height="7.4083333"
       width="6.3499999"
       id="rect833-0"
       style="opacity:0.5;fill:#000000;fill-opacity:1;stroke:none;stroke-width:2.29353;filter:url(#filter4299)" />
    <rect
       style="opacity:1;fill:#e5e5e5;fill-opacity:1;stroke:none;stroke-width:2.29353"
       id="rect833"
       width="6.3499999"
       height="7.4083333"
       x="1.0583334"
       y="0.5291667" />
    <path
       inkscape:connector-curvature="0"
       style="opacity:0.4;fill:none;stroke:#000000;stroke-width:0.127908px;stroke-linecap:butt;stroke-linejoin:miter;stroke-opacity:1"
       id="path3475"
       d="m 2.1166667,1.651454 h 0.3988697 z m 0.4573703,0 h 0.3722781 z m 0.4307791,0 h 0.3297317 z m 0.3829145,0 h 0.1435931 z m 0.202094,0 h 0.3190952 z m 0.3829143,0 h 0.8402849 z m 0.8934672,0 h 0.6435093 z m 0.6966921,0 H 5.7596739 Z M 2.1166667,2.0387358 h 0.6222362 z m 0.691374,0 h 0.2978219 z m 0.351005,0 h 0.1489112 z m 0.2074121,0 h 0.271231 z m 0.3297315,0 h 0.2765496 z m 0.3297324,0 H 4.467337 Z m 0.4999157,0 h 0.5743723 z m 0.6275546,0 h 0.3829148 z m 0.4360974,0 h 0.095729 z M 2.1166667,2.4233132 h 0.5265078 z m 0.5796902,0 h 0.8615579 z m 0.9147405,0 h 0.4201425 z m 0.473325,0 h 0.3935511 z m 0.4467339,0 h 0.3350498 z m 0.3882321,0 0.5265082,0.00541 z m 0.5743721,0.00541 H 6.35 Z M 2.1166667,2.8133 h 0.7286019 z m 0.7871029,0 h 0.7871018 z m 0.8402844,0 h 0.3137773 z m 0.3669596,0 h 0.7392379 z m 0.7871021,0 h 0.5052348 z m 0.5637355,0 h 0.2020935 z m 0.2552761,0 h 0.1116835 z m 0.1701845,0 H 6.2010891 Z M 2.1166667,3.2005822 h 0.2712311 z m 0.3563234,0 h 1.005151 z M 2.1166667,3.8460523 h 0.3988697 z m 0.4573703,0 h 0.36696 z m 0.4307791,0 h 0.3297317 z m 0.3829145,0 h 0.1435931 z m 0.202094,0 h 0.3190952 z m 0.3829143,0 h 0.8349663 z m 0.8934672,0 h 0.6381912 z m 0.6913735,0 h 0.2020943 z m 0.2552766,0 H 6.2914994 Z M 2.1166667,4.2333338 h 0.6701009 z m 0.7232835,0 h 0.7179646 z m 0.7711472,0 H 3.887647 Z m 0.3297322,0 h 0.6754188 z m 0.7286011,0 h 0.8509215 z m 0.9094219,0 H 5.8926299 Z M 2.1166667,4.6206155 h 0.7286019 z m 0.7871029,0 h 0.7871018 z m 0.8402844,0 h 0.3137773 z m 0.3669596,0 h 0.7392379 z m 0.7871021,0 h 0.5052348 z m 0.5637355,0 h 0.2020935 z m 0.2552761,0 h 0.1116835 z m 0.1701845,0 h 0.3137773 z m -3.7706451,0.387282 h 0.6222362 z m 0.691374,0 h 0.2978219 z m 0.351005,0 h 0.1489112 z m 0.2074121,0 h 0.271231 z m 0.3297315,0 h 0.2765496 z m 0.3297324,0 H 4.467337 Z m 0.4999157,0 h 0.5743723 z m 0.6275546,0 h 0.3829148 z m 0.4360974,0 h 0.095729 z M 2.1166667,5.6506633 h 0.5265078 z m 0.5796902,0 h 0.8615579 z m 0.9147405,0 h 0.4201425 z m 0.473325,0 h 0.3935511 z m 0.4467339,0 h 0.3350498 z m 0.3882321,0 0.5265082,0.00541 z m 0.5743721,0.00541 H 6.35 Z M 2.1166667,6.0406488 h 0.6222362 z m 0.691374,0 h 0.2978219 z m 0.351005,0 h 0.1489112 z m 0.2074121,0 h 0.271231 z m 0.3297315,0 h 0.2765496 z m 0.3297324,0 H 4.467337 Z m 0.4999157,0 h 0.5743723 z m 0.6275546,0 h 0.3829148 z m 0.4360974,0 h 0.095729 z m -3.4728227,0.387282 h 0.6594644 z m 0.7179651,0 H 3.042044 Z m 0.2605945,0 h 0.473325 z m 0.5265076,0 h 0.6966919 z m 0.7551923,0 h 0.4733253 z m 0.5211895,0 h 0.101047 z m 0.1542296,0 h 0.6009632 z m 0.664782,0 H 6.0309046 Z M 2.1166667,6.8152126 h 0.6594644 z m 0.7179651,0 h 0.2978224 z m 0.351005,0 h 0.4680067 z m 0.5211895,0 h 0.5052343 z m 0.563735,0 h 0.2020938 z m 0.2552761,0 h 0.1116838 z m 0.1701845,0 h 0.3137778 z" />
    <rect
       y="1.5875"
       x="0"
       height="2.1166668"
       width="4.2333336"
       id="rect833-1"
       style="opacity:1;fill:#1f2e4a;fill-opacity:1;stroke:none;stroke-width:1.00098" />
    <g
       aria-label="Css"
       id="text934"
       style="font-style:normal;font-weight:normal;font-size:10.5833px;line-height:1.25;font-family:sans-serif;fill:#ffffff;fill-opacity:1;stroke:none;stroke-width:0.264583"
       transform="matrix(0.19832213,0,0,0.19832213,0.35562088,2.5867471)">
      <path
         d="m 6.448356,-2.9705929 v 1.1007045 Q 5.9212581,-2.3608129 5.3218134,-2.6036914 4.7275363,-2.8465698 4.0557448,-2.8465698 q -1.3229124,0 -2.0257096,0.8113174 -0.7027973,0.8061498 -0.7027973,2.33576728 0,1.52444992 0.7027973,2.33576732 0.7027972,0.8061498 2.0257096,0.8061498 0.6717915,0 1.2660686,-0.2428785 Q 5.9212581,2.956675 6.448356,2.4657505 V 3.5561197 Q 5.9005876,3.9281889 5.28564,4.1142234 4.6758601,4.300258 3.9937333,4.300258 q -1.7518254,0 -2.7595127,-1.0696987 -1.00768719,-1.0748664 -1.00768719,-2.93004442 0,-1.86034568 1.00768719,-2.93004438 1.0076873,-1.0748664 2.7595127,-1.0748664 0.692462,0 1.302242,0.1860346 0.6149476,0.1808669 1.1523807,0.5477684 z"
         style="fill:#ffffff;fill-opacity:1;stroke-width:0.264583"
         id="path936" />
      <path
         d="m 11.709,-1.4668135 v 0.89916708 q -0.403075,-0.20670507 -0.837156,-0.31005761 -0.43408,-0.10335253 -0.8991666,-0.10335253 -0.7079649,0 -1.0645312,0.21704032 -0.3513986,0.21704032 -0.3513986,0.65112097 0,0.33072812 0.2532137,0.52193031 0.2532137,0.18603456 1.0180225,0.35656625 l 0.3255602,0.0723468 q 1.012855,0.21704031 1.436601,0.61494751 0.428913,0.3927397 0.428913,1.1007046 0,0.8061497 -0.640786,1.2764038 -0.635618,0.470254 -1.7518256,0.470254 -0.4650865,0 -0.9715139,-0.093017 Q 8.1536727,4.1193911 7.595569,3.9385241 V 2.956675 q 0.527098,0.2738843 1.038693,0.4134102 0.5115951,0.1343583 1.0128549,0.1343583 0.6717911,0 1.0335251,-0.2273756 0.361734,-0.2325432 0.361734,-0.651121 0,-0.387572 -0.263549,-0.5942771 Q 10.520446,1.8249648 9.6367816,1.6337626 L 9.3060535,1.5562482 Q 8.4223893,1.3702136 8.0296497,0.98780924 7.6369101,0.60023723 7.6369101,-0.07155425 q 0,-0.81648503 0.5787741,-1.26090095 0.5787742,-0.4444159 1.6433054,-0.4444159 0.5270974,0 0.9921844,0.077514 0.465086,0.077514 0.857826,0.2325436 z"
         style="fill:#ffffff;fill-opacity:1;stroke-width:0.264583"
         id="path938" />
      <path
         d="m 17.222858,-1.4668135 v 0.89916708 q -0.403075,-0.20670507 -0.837155,-0.31005761 -0.434081,-0.10335253 -0.899167,-0.10335253 -0.707965,0 -1.064531,0.21704032 -0.351399,0.21704032 -0.351399,0.65112097 0,0.33072812 0.253214,0.52193031 0.253213,0.18603456 1.018022,0.35656625 l 0.325561,0.0723468 q 1.012854,0.21704031 1.4366,0.61494751 0.428913,0.3927397 0.428913,1.1007046 0,0.8061497 -0.640786,1.2764038 -0.635618,0.470254 -1.751825,0.470254 -0.465087,0 -0.971514,-0.093017 -0.50126,-0.08785 -1.059364,-0.2687166 V 2.956675 q 0.527098,0.2738843 1.038693,0.4134102 0.511595,0.1343583 1.012855,0.1343583 0.671792,0 1.033526,-0.2273756 0.361733,-0.2325432 0.361733,-0.651121 0,-0.387572 -0.263549,-0.5942771 Q 16.034304,1.8249648 15.15064,1.6337626 L 14.819912,1.5562486 Q 13.936248,1.370214 13.543508,0.98780964 q -0.39274,-0.38757201 -0.39274,-1.05936349 0,-0.81648503 0.578775,-1.26090095 0.578774,-0.4444159 1.643305,-0.4444159 0.527098,0 0.992184,0.077514 0.465087,0.077514 0.857826,0.2325432 z"
         style="fill:#ffffff;fill-opacity:1;stroke-width:0.264583"
         id="path940" />
    </g>
  </g>
</svg>
