<?xml version="1.0" encoding="UTF-8" standalone="no"?>
<svg
   xmlns:dc="http://purl.org/dc/elements/1.1/"
   xmlns:cc="http://creativecommons.org/ns#"
   xmlns:rdf="http://www.w3.org/1999/02/22-rdf-syntax-ns#"
   xmlns:svg="http://www.w3.org/2000/svg"
   xmlns="http://www.w3.org/2000/svg"
   xmlns:sodipodi="http://sodipodi.sourceforge.net/DTD/sodipodi-0.dtd"
   xmlns:inkscape="http://www.inkscape.org/namespaces/inkscape"
   sodipodi:docname="text-x-qml.svg"
   inkscape:version="1.0.1 (3bc2e813f5, 2020-09-07)"
   id="svg8"
   version="1.1"
   viewBox="0 0 8.4666665 8.4666669"
   height="32"
   width="32">
  <defs
     id="defs2">
    <filter
       inkscape:collect="always"
       style="color-interpolation-filters:sRGB"
       id="filter33109"
       x="-0.081249999"
       width="1.1625"
       y="-0.069642858"
       height="1.1392857">
      <feGaussianBlur
         inkscape:collect="always"
         stdDeviation="0.21497395"
         id="feGaussianBlur33111" />
    </filter>
  </defs>
  <sodipodi:namedview
     inkscape:window-maximized="1"
     inkscape:window-y="0"
     inkscape:window-x="0"
     inkscape:window-height="1000"
     inkscape:window-width="1920"
     units="px"
     showgrid="false"
     inkscape:document-rotation="0"
     inkscape:current-layer="layer1"
     inkscape:document-units="px"
     inkscape:cy="16.397767"
     inkscape:cx="20.117819"
     inkscape:zoom="9.0045629"
     inkscape:pageshadow="2"
     inkscape:pageopacity="0.0"
     borderopacity="1.0"
     bordercolor="#666666"
     pagecolor="#ffffff"
     id="base" />
  <metadata
     id="metadata5">
    <rdf:RDF>
      <cc:Work
         rdf:about="">
        <dc:format>image/svg+xml</dc:format>
        <dc:type
           rdf:resource="http://purl.org/dc/dcmitype/StillImage" />
        <dc:title />
      </cc:Work>
    </rdf:RDF>
  </metadata>
  <g
     id="layer1"
     inkscape:groupmode="layer"
     inkscape:label="Capa 1">
    <path
       style="opacity:0.5;fill:#000000;fill-opacity:1;stroke:none;stroke-width:2.29352999;filter:url(#filter33109)"
       d="M 1.0583334,0.5291668 V 7.9374999 H 7.4083333 V 2.1166666 l -1.5875,-1.5874998 z"
       id="path926-2"
       inkscape:connector-curvature="0" />
    <path
       style="opacity:1;fill:#009900;fill-opacity:1;stroke:none;stroke-width:2.29352999"
       d="M 1.0583334,0.52916675 V 7.9374999 H 7.4083333 V 2.1166666 l -1.5875,-1.58749985 z"
       id="path926"
       inkscape:connector-curvature="0" />
    <path
       inkscape:connector-curvature="0"
       style="opacity:0.2;fill:#000000;fill-opacity:1;stroke:none;stroke-width:2.29352999"
       d="M 5.8208333,0.52916675 V 2.1166669 h 1.5875 z"
       id="path926-1" />
    <path
       sodipodi:type="inkscape:offset"
       inkscape:radius="0"
       inkscape:original="M 3.203125 -12.345703 C 1.9663358 -12.345703 0.99530705 -11.99094 0.2890625 -11.28125 C -0.41373696 -10.57156 -0.765625 -9.5923665 -0.765625 -8.3417969 C -0.765625 -7.0877822 -0.4132758 -6.1090495 0.29296875 -5.40625 C 0.9992133 -4.7034505 1.9885254 -4.3515625 3.2597656 -4.3515625 L 3.4140625 -4.3515625 L 4.6757812 -2.9453125 L 6.5722656 -2.9453125 L 5.0175781 -4.6816406 C 5.7134874 -4.9985894 6.244656 -5.4706489 6.6132812 -6.0976562 C 6.9853516 -6.7246636 7.171875 -7.4736328 7.171875 -8.3417969 C 7.171875 -9.6061469 6.8224012 -10.588216 6.1230469 -11.291016 C 5.4271376 -11.993815 4.4536946 -12.345703 3.203125 -12.345703 z M 8.6757812 -12.207031 L 8.6757812 -4.4921875 L 10.5625 -4.4921875 L 10.5625 -10.134766 L 12.339844 -5.9746094 L 13.599609 -5.9746094 L 15.378906 -10.134766 L 15.378906 -4.4921875 L 17.259766 -4.4921875 L 17.259766 -12.207031 L 14.732422 -12.207031 L 12.964844 -8.078125 L 11.207031 -12.207031 L 8.6757812 -12.207031 z M 19.207031 -12.207031 L 19.207031 -4.4921875 L 24.689453 -4.4921875 L 24.689453 -5.9960938 L 21.197266 -5.9960938 L 21.197266 -12.207031 L 19.207031 -12.207031 z M 3.203125 -10.904297 C 3.8129069 -10.904297 4.2849664 -10.680284 4.6191406 -10.232422 C 4.9533149 -9.7845595 5.1210938 -9.1548394 5.1210938 -8.3417969 C 5.1210938 -7.5321995 4.9533149 -6.9029405 4.6191406 -6.4550781 C 4.2849664 -6.0072157 3.8129069 -5.7832031 3.203125 -5.7832031 C 2.5830078 -5.7832031 2.1085341 -6.001926 1.78125 -6.4394531 C 1.4539659 -6.8804253 1.2910156 -7.514974 1.2910156 -8.3417969 C 1.2910156 -9.1548394 1.4587945 -9.7845595 1.7929688 -10.232422 C 2.127143 -10.680284 2.5967882 -10.904297 3.203125 -10.904297 z "
       style="font-style:normal;font-weight:normal;font-size:10.58333302px;line-height:1.25;font-family:sans-serif;letter-spacing:0px;word-spacing:0px;fill:#ffffff;fill-opacity:1;stroke:none;stroke-width:0.26458332"
       id="text1841"
       d="m 3.203125,-12.345703 c -1.2367892,0 -2.20781795,0.354763 -2.9140625,1.064453 -0.70279946,0.70969 -1.0546875,1.6888835 -1.0546875,2.9394531 0,1.2540147 0.3523492,2.2327474 1.05859375,2.9355469 0.70624455,0.7027995 1.69555665,1.0546875 2.96679685,1.0546875 h 0.1542969 l 1.2617187,1.40625 H 6.5722656 L 5.0175781,-4.6816406 C 5.7134874,-4.9985894 6.244656,-5.4706489 6.6132812,-6.0976562 6.9853516,-6.7246636 7.171875,-7.4736328 7.171875,-8.3417969 c 0,-1.26435 -0.3494738,-2.2464191 -1.0488281,-2.9492191 -0.6959093,-0.702799 -1.6693523,-1.054687 -2.9199219,-1.054687 z m 5.4726562,0.138672 v 7.7148435 H 10.5625 v -5.6425785 l 1.777344,4.1601566 h 1.259765 l 1.779297,-4.1601566 v 5.6425785 h 1.88086 v -7.7148435 h -2.527344 l -1.767578,4.128906 -1.757813,-4.128906 z m 10.5312498,0 v 7.7148435 h 5.482422 v -1.5039063 h -3.492187 v -6.2109372 z m -16.003906,1.302734 c 0.6097819,0 1.0818414,0.224013 1.4160156,0.671875 0.3341743,0.4478625 0.5019532,1.0775826 0.5019532,1.8906251 0,0.8095974 -0.1677789,1.4388564 -0.5019532,1.8867188 -0.3341742,0.4478624 -0.8062337,0.671875 -1.4160156,0.671875 -0.6201172,0 -1.0945909,-0.2187229 -1.421875,-0.65625 -0.3272841,-0.4409722 -0.4902344,-1.0755209 -0.4902344,-1.9023438 0,-0.8130425 0.1677789,-1.4427626 0.5019532,-1.8906251 0.3341742,-0.447862 0.8038194,-0.671875 1.4101562,-0.671875 z"
       transform="matrix(0.16887596,0,0,0.16887596,2.2132536,7.9057259)" />
  </g>
</svg>
