<?xml version="1.0" encoding="UTF-8" standalone="no"?>
<svg
   xmlns:dc="http://purl.org/dc/elements/1.1/"
   xmlns:cc="http://creativecommons.org/ns#"
   xmlns:rdf="http://www.w3.org/1999/02/22-rdf-syntax-ns#"
   xmlns:svg="http://www.w3.org/2000/svg"
   xmlns="http://www.w3.org/2000/svg"
   xmlns:sodipodi="http://sodipodi.sourceforge.net/DTD/sodipodi-0.dtd"
   xmlns:inkscape="http://www.inkscape.org/namespaces/inkscape"
   sodipodi:docname="text-x-qml.svg"
   inkscape:version="1.0 (4035a4fb49, 2020-05-01)"
   id="svg8"
   version="1.1"
   viewBox="0 0 8.4666665 8.4666669"
   height="32"
   width="32">
  <defs
     id="defs2">
    <filter
       height="1.2005714"
       y="-0.10028571"
       width="1.234"
       x="-0.117"
       id="filter4299"
       style="color-interpolation-filters:sRGB"
       inkscape:collect="always">
      <feGaussianBlur
         id="feGaussianBlur4301"
         stdDeviation="0.3095625"
         inkscape:collect="always" />
    </filter>
  </defs>
  <sodipodi:namedview
     inkscape:window-maximized="1"
     inkscape:window-y="0"
     inkscape:window-x="0"
     inkscape:window-height="1002"
     inkscape:window-width="1920"
     units="px"
     showgrid="false"
     inkscape:document-rotation="0"
     inkscape:current-layer="layer1"
     inkscape:document-units="px"
     inkscape:cy="7.6245954"
     inkscape:cx="16.141356"
     inkscape:zoom="18.009126"
     inkscape:pageshadow="2"
     inkscape:pageopacity="0.0"
     borderopacity="1.0"
     bordercolor="#666666"
     pagecolor="#ffffff"
     id="base" />
  <metadata
     id="metadata5">
    <rdf:RDF>
      <cc:Work
         rdf:about="">
        <dc:format>image/svg+xml</dc:format>
        <dc:type
           rdf:resource="http://purl.org/dc/dcmitype/StillImage" />
        <dc:title />
      </cc:Work>
    </rdf:RDF>
  </metadata>
  <g
     id="layer1"
     inkscape:groupmode="layer"
     inkscape:label="Capa 1">
    <rect
       style="opacity:0.5;fill:#000000;fill-opacity:1;stroke:none;stroke-width:2.29353;filter:url(#filter4299)"
       id="rect833-0"
       width="6.3499999"
       height="7.4083333"
       x="1.0583334"
       y="0.5291667" />
    <rect
       y="0.5291667"
       x="1.0583334"
       height="7.4083333"
       width="6.3499999"
       id="rect833"
       style="opacity:1;fill:#e5e5e5;fill-opacity:1;stroke:none;stroke-width:2.29353" />
    <path
       d="m 2.1166667,1.651454 h 0.3988697 z m 0.4573703,0 h 0.3722781 z m 0.4307791,0 h 0.3297317 z m 0.3829145,0 h 0.1435931 z m 0.202094,0 h 0.3190952 z m 0.3829143,0 h 0.8402849 z m 0.8934672,0 h 0.6435093 z m 0.6966921,0 H 5.7596739 Z M 2.1166667,2.0387358 h 0.6222362 z m 0.691374,0 h 0.2978219 z m 0.351005,0 h 0.1489112 z m 0.2074121,0 h 0.271231 z m 0.3297315,0 h 0.2765496 z m 0.3297324,0 H 4.467337 Z m 0.4999157,0 h 0.5743723 z m 0.6275546,0 h 0.3829148 z m 0.4360974,0 h 0.095729 z M 2.1166667,2.4233132 h 0.5265078 z m 0.5796902,0 h 0.8615579 z m 0.9147405,0 h 0.4201425 z m 0.473325,0 h 0.3935511 z m 0.4467339,0 h 0.3350498 z m 0.3882321,0 0.5265082,0.00541 z m 0.5743721,0.00541 H 6.35 Z M 2.1166667,2.8133 h 0.7286019 z m 0.7871029,0 h 0.7871018 z m 0.8402844,0 h 0.3137773 z m 0.3669596,0 h 0.7392379 z m 0.7871021,0 h 0.5052348 z m 0.5637355,0 h 0.2020935 z m 0.2552761,0 h 0.1116835 z m 0.1701845,0 H 6.2010891 Z M 2.1166667,3.2005822 h 0.2712311 z m 0.3563234,0 h 1.005151 z M 2.1166667,3.8460523 h 0.3988697 z m 0.4573703,0 h 0.36696 z m 0.4307791,0 h 0.3297317 z m 0.3829145,0 h 0.1435931 z m 0.202094,0 h 0.3190952 z m 0.3829143,0 h 0.8349663 z m 0.8934672,0 h 0.6381912 z m 0.6913735,0 h 0.2020943 z m 0.2552766,0 H 6.2914994 Z M 2.1166667,4.2333338 h 0.6701009 z m 0.7232835,0 h 0.7179646 z m 0.7711472,0 H 3.887647 Z m 0.3297322,0 h 0.6754188 z m 0.7286011,0 h 0.8509215 z m 0.9094219,0 H 5.8926299 Z M 2.1166667,4.6206155 h 0.7286019 z m 0.7871029,0 h 0.7871018 z m 0.8402844,0 h 0.3137773 z m 0.3669596,0 h 0.7392379 z m 0.7871021,0 h 0.5052348 z m 0.5637355,0 h 0.2020935 z m 0.2552761,0 h 0.1116835 z m 0.1701845,0 h 0.3137773 z m -3.7706451,0.387282 h 0.6222362 z m 0.691374,0 h 0.2978219 z m 0.351005,0 h 0.1489112 z m 0.2074121,0 h 0.271231 z m 0.3297315,0 h 0.2765496 z m 0.3297324,0 H 4.467337 Z m 0.4999157,0 h 0.5743723 z m 0.6275546,0 h 0.3829148 z m 0.4360974,0 h 0.095729 z M 2.1166667,5.6506633 h 0.5265078 z m 0.5796902,0 h 0.8615579 z m 0.9147405,0 h 0.4201425 z m 0.473325,0 h 0.3935511 z m 0.4467339,0 h 0.3350498 z m 0.3882321,0 0.5265082,0.00541 z m 0.5743721,0.00541 H 6.35 Z M 2.1166667,6.0406488 h 0.6222362 z m 0.691374,0 h 0.2978219 z m 0.351005,0 h 0.1489112 z m 0.2074121,0 h 0.271231 z m 0.3297315,0 h 0.2765496 z m 0.3297324,0 H 4.467337 Z m 0.4999157,0 h 0.5743723 z m 0.6275546,0 h 0.3829148 z m 0.4360974,0 h 0.095729 z m -3.4728227,0.387282 h 0.6594644 z m 0.7179651,0 H 3.042044 Z m 0.2605945,0 h 0.473325 z m 0.5265076,0 h 0.6966919 z m 0.7551923,0 h 0.4733253 z m 0.5211895,0 h 0.101047 z m 0.1542296,0 h 0.6009632 z m 0.664782,0 H 6.0309046 Z M 2.1166667,6.8152126 h 0.6594644 z m 0.7179651,0 h 0.2978224 z m 0.351005,0 h 0.4680067 z m 0.5211895,0 h 0.5052343 z m 0.563735,0 h 0.2020938 z m 0.2552761,0 h 0.1116838 z m 0.1701845,0 h 0.3137778 z"
       id="path3475"
       style="opacity:0.4;fill:none;stroke:#000000;stroke-width:0.127908px;stroke-linecap:butt;stroke-linejoin:miter;stroke-opacity:1"
       inkscape:connector-curvature="0" />
    <rect
       style="opacity:1;fill:#009900;fill-opacity:1;stroke:none;stroke-width:1.00098"
       id="rect833-1"
       width="4.2333336"
       height="2.1166668"
       x="0"
       y="1.5875" />
    <g
       aria-label="Qml"
       id="text843"
       style="font-style:normal;font-weight:normal;font-size:10.5833px;line-height:1.25;font-family:sans-serif;fill:#ffffff;fill-opacity:1;stroke:none;stroke-width:0.264583"
       transform="matrix(0.16879175,0,0,0.16879175,0.28306945,2.5476553)">
      <path
         d="m 4.4422985,-3.0873629 q -1.1368778,0 -1.8086693,0.8474908 -0.6666239,0.8474908 -0.6666239,2.30992919 0,1.45727071 0.6666239,2.30476151 0.6717915,0.8474908 1.8086693,0.8474908 1.1368779,0 1.7983342,-0.8474908 0.6666238,-0.8474908 0.6666238,-2.30476151 0,-1.46243839 -0.6666238,-2.30992919 -0.6614563,-0.8474908 -1.7983342,-0.8474908 z m 1.4624384,6.867776 1.3745887,1.5037794 H 6.0184247 L 4.8763792,4.0491297 q -0.1705317,0.010335 -0.263549,0.015503 -0.08785,0.00517 -0.1705317,0.00517 -1.6278024,0 -2.6044838,-1.0852016 -0.97151388,-1.0903693 -0.97151388,-2.91454151 0,-1.82933989 0.97151388,-2.91454149 0.9766814,-1.0903693 2.6044838,-1.0903693 1.6226349,0 2.5941487,1.0903693 0.9715138,1.0852016 0.9715138,2.91454149 0,1.34358301 -0.5426008,2.29959391 Q 6.927927,3.325662 5.9047369,3.7804131 Z"
         style="fill:#ffffff;fill-opacity:1;stroke-width:0.264583"
         id="path845" />
      <path
         d="m 14.105761,-0.75676319 q 0.356566,-0.64078571 0.852658,-0.94567571 0.496092,-0.30489 1.167884,-0.30489 0.904335,0 1.395259,0.6356181 0.490925,0.63045049 0.490925,1.79833414 V 3.919939 H 17.056476 V 0.4576291 q 0,-0.83198791 -0.294555,-1.2350628 -0.294555,-0.4030749 -0.899167,-0.4030749 -0.738971,0 -1.167884,0.49092456 -0.428913,0.49092454 -0.428913,1.33841533 V 3.919939 H 13.309946 V 0.4576291 q 0,-0.83715554 -0.294554,-1.2350628 -0.294555,-0.4030749 -0.909503,-0.4030749 -0.728635,0 -1.157548,0.49609218 -0.428913,0.49092455 -0.428913,1.33324771 V 3.919939 H 9.5634168 v -5.7877419 h 0.9560112 v 0.89916701 q 0.32556,-0.53226551 0.780311,-0.78547931 0.454752,-0.2532137 1.080034,-0.2532137 0.630451,0 1.069699,0.3203929 0.444416,0.3203928 0.656289,0.93017281 z"
         style="fill:#ffffff;fill-opacity:1;stroke-width:0.264583"
         id="path847" />
      <path
         d="m 19.909005,-4.1208882 h 0.950843 V 3.919939 h -0.950843 z"
         style="fill:#ffffff;fill-opacity:1;stroke-width:0.264583"
         id="path849" />
    </g>
  </g>
</svg>
