<?xml version="1.0" encoding="UTF-8" standalone="no"?>
<svg
   xmlns:dc="http://purl.org/dc/elements/1.1/"
   xmlns:cc="http://creativecommons.org/ns#"
   xmlns:rdf="http://www.w3.org/1999/02/22-rdf-syntax-ns#"
   xmlns:svg="http://www.w3.org/2000/svg"
   xmlns="http://www.w3.org/2000/svg"
   xmlns:sodipodi="http://sodipodi.sourceforge.net/DTD/sodipodi-0.dtd"
   xmlns:inkscape="http://www.inkscape.org/namespaces/inkscape"
   sodipodi:docname="text-css.svg"
   inkscape:version="1.0.1 (3bc2e813f5, 2020-09-07)"
   id="svg8"
   version="1.1"
   viewBox="0 0 8.4666665 8.4666669"
   height="32"
   width="32">
  <defs
     id="defs2">
    <filter
       inkscape:collect="always"
       style="color-interpolation-filters:sRGB"
       id="filter33153"
       x="-0.081249999"
       width="1.1625"
       y="-0.069642858"
       height="1.1392857">
      <feGaussianBlur
         inkscape:collect="always"
         stdDeviation="0.21497395"
         id="feGaussianBlur33155" />
    </filter>
  </defs>
  <sodipodi:namedview
     inkscape:window-maximized="1"
     inkscape:window-y="0"
     inkscape:window-x="0"
     inkscape:window-height="1000"
     inkscape:window-width="1920"
     units="px"
     showgrid="false"
     inkscape:document-rotation="0"
     inkscape:current-layer="layer1"
     inkscape:document-units="px"
     inkscape:cy="33.181681"
     inkscape:cx="1.4129246"
     inkscape:zoom="9.0045629"
     inkscape:pageshadow="2"
     inkscape:pageopacity="0.0"
     borderopacity="1.0"
     bordercolor="#666666"
     pagecolor="#ffffff"
     id="base" />
  <metadata
     id="metadata5">
    <rdf:RDF>
      <cc:Work
         rdf:about="">
        <dc:format>image/svg+xml</dc:format>
        <dc:type
           rdf:resource="http://purl.org/dc/dcmitype/StillImage" />
        <dc:title />
      </cc:Work>
    </rdf:RDF>
  </metadata>
  <g
     id="layer1"
     inkscape:groupmode="layer"
     inkscape:label="Capa 1">
    <path
       style="opacity:0.5;fill:#000000;fill-opacity:1;stroke:none;stroke-width:2.29352999;filter:url(#filter33153)"
       d="M 1.0583334,0.5291668 V 7.9374999 H 7.4083333 V 2.1166666 l -1.5875,-1.5874998 z"
       id="path926-2"
       inkscape:connector-curvature="0" />
    <path
       style="opacity:1;fill:#4866a5;fill-opacity:1;stroke:none;stroke-width:2.29352999"
       d="M 1.0583334,0.52916675 V 7.9374999 H 7.4083333 V 2.1166666 l -1.5875,-1.58749985 z"
       id="path926"
       inkscape:connector-curvature="0" />
    <path
       inkscape:connector-curvature="0"
       style="opacity:0.2;fill:#000000;fill-opacity:1;stroke:none;stroke-width:2.29352999"
       d="M 5.8208333,0.52916675 V 2.1166669 h 1.5875 z"
       id="path926-1" />
    <path
       sodipodi:type="inkscape:offset"
       inkscape:radius="0"
       inkscape:original="M -1.9921875 -10.318359 C -3.2772081 -10.318359 -4.2938911 -9.9583062 -5.0449219 -9.2382812 C -5.7959527 -8.5217014 -6.171875 -7.5477973 -6.171875 -6.3144531 C -6.171875 -5.0845541 -5.7959527 -4.1086968 -5.0449219 -3.3886719 C -4.2938911 -2.672092 -3.2772081 -2.3144531 -1.9921875 -2.3144531 C -1.5615506 -2.3144531 -1.1481391 -2.3625217 -0.75195312 -2.4589844 C -0.35576716 -2.555447 0.025444889 -2.6972385 0.390625 -2.8867188 L 0.390625 -4.484375 C 0.021999794 -4.232883 -0.34092883 -4.0487739 -0.69921875 -3.9316406 C -1.0575087 -3.8145074 -1.4358453 -3.7558594 -1.8320312 -3.7558594 C -2.5417209 -3.7558594 -3.0993381 -3.9827474 -3.5058594 -4.4375 C -3.9123806 -4.8922526 -4.1152344 -5.5186361 -4.1152344 -6.3144531 C -4.1152344 -7.1137153 -3.9123806 -7.7405599 -3.5058594 -8.1953125 C -3.0993381 -8.6500651 -2.5417209 -8.8769531 -1.8320312 -8.8769531 C -1.4358453 -8.8769531 -1.0575087 -8.8183051 -0.69921875 -8.7011719 C -0.34092883 -8.5840386 0.021999794 -8.3999295 0.390625 -8.1484375 L 0.390625 -9.7441406 C 0.025444889 -9.9336209 -0.35576716 -10.077365 -0.75195312 -10.173828 C -1.1481391 -10.270291 -1.5615506 -10.318359 -1.9921875 -10.318359 z M 4.90625 -10.318359 C 3.9760742 -10.318359 3.2636719 -10.11263 2.7675781 -9.6992188 C 2.2714844 -9.2858073 2.0234375 -8.6940375 2.0234375 -7.9257812 C 2.0234375 -7.3125543 2.2017958 -6.8246256 2.5566406 -6.4628906 C 2.9149305 -6.1011556 3.4782986 -5.8391927 4.25 -5.6738281 L 5.0214844 -5.5019531 C 5.4900173 -5.3986003 5.802002 -5.2813042 5.9570312 -5.1503906 C 6.1155056 -5.019477 6.1933594 -4.8349067 6.1933594 -4.59375 C 6.1933594 -4.3250326 6.0784776 -4.1173503 5.8476562 -3.9726562 C 5.6168349 -3.8279622 5.2836914 -3.7558594 4.8496094 -3.7558594 C 4.4224175 -3.7558594 3.9792209 -3.8222114 3.5175781 -3.953125 C 3.0593804 -4.0874837 2.5824924 -4.2850478 2.0898438 -4.546875 L 2.0898438 -2.8671875 C 2.5824924 -2.6845974 3.0757107 -2.5461426 3.5683594 -2.453125 C 4.061008 -2.3601074 4.5518121 -2.3144531 5.0410156 -2.3144531 C 6.0779893 -2.3144531 6.8485786 -2.5201823 7.3515625 -2.9335938 C 7.8579915 -3.3504503 8.1113281 -3.9849989 8.1113281 -4.8359375 C 8.1113281 -5.4836154 7.9300944 -5.9825846 7.5683594 -6.3339844 C 7.2066244 -6.6853841 6.59611 -6.9468859 5.7382812 -7.1191406 L 4.8925781 -7.2910156 C 4.489502 -7.3736979 4.2097168 -7.4722494 4.0546875 -7.5859375 C 3.9031033 -7.7030707 3.8261719 -7.8636068 3.8261719 -8.0703125 C 3.8261719 -8.3459201 3.9405925 -8.5487739 4.1679688 -8.6796875 C 4.395345 -8.8106011 4.7472331 -8.8769531 5.2226562 -8.8769531 C 5.5809462 -8.8769531 5.9621582 -8.8288845 6.3652344 -8.7324219 C 6.7683105 -8.6359592 7.181722 -8.4922146 7.6054688 -8.3027344 L 7.6054688 -9.9355469 C 7.1266005 -10.063015 6.6627061 -10.158691 6.2148438 -10.220703 C 5.7669814 -10.28616 5.3299967 -10.318359 4.90625 -10.318359 z M 12.054688 -10.318359 C 11.124512 -10.318359 10.410156 -10.11263 9.9140625 -9.6992188 C 9.4179688 -9.2858073 9.1699219 -8.6940375 9.1699219 -7.9257812 C 9.1699219 -7.3125543 9.3482802 -6.8246256 9.703125 -6.4628906 C 10.061415 -6.1011556 10.626736 -5.8391927 11.398438 -5.6738281 L 12.167969 -5.5019531 C 12.636502 -5.3986003 12.948486 -5.2813042 13.103516 -5.1503906 C 13.26199 -5.019477 13.339844 -4.8349067 13.339844 -4.59375 C 13.339844 -4.3250326 13.224962 -4.1173503 12.994141 -3.9726562 C 12.763319 -3.8279622 12.432129 -3.7558594 11.998047 -3.7558594 C 11.570855 -3.7558594 11.125705 -3.8222114 10.664062 -3.953125 C 10.205865 -4.0874837 9.7309299 -4.2850478 9.2382812 -4.546875 L 9.2382812 -2.8671875 C 9.7309299 -2.6845974 10.222195 -2.5461426 10.714844 -2.453125 C 11.207492 -2.3601074 11.698296 -2.3144531 12.1875 -2.3144531 C 13.224474 -2.3144531 13.995063 -2.5201823 14.498047 -2.9335938 C 15.004476 -3.3504503 15.257812 -3.9849989 15.257812 -4.8359375 C 15.257812 -5.4836154 15.076579 -5.9825846 14.714844 -6.3339844 C 14.353109 -6.6853841 13.744548 -6.9468859 12.886719 -7.1191406 L 12.039062 -7.2910156 C 11.635986 -7.3736979 11.356201 -7.4722494 11.201172 -7.5859375 C 11.049588 -7.7030707 10.974609 -7.8636068 10.974609 -8.0703125 C 10.974609 -8.3459201 11.087077 -8.5487739 11.314453 -8.6796875 C 11.541829 -8.8106011 11.893717 -8.8769531 12.369141 -8.8769531 C 12.727431 -8.8769531 13.108643 -8.8288845 13.511719 -8.7324219 C 13.914795 -8.6359592 14.328206 -8.4922146 14.751953 -8.3027344 L 14.751953 -9.9355469 C 14.273085 -10.063015 13.809191 -10.158691 13.361328 -10.220703 C 12.913466 -10.28616 12.478434 -10.318359 12.054688 -10.318359 z "
       style="font-style:normal;font-weight:normal;font-size:10.58333302px;line-height:1.25;font-family:sans-serif;letter-spacing:0px;word-spacing:0px;fill:#ffffff;fill-opacity:1;stroke:none;stroke-width:0.26458332"
       id="text1032"
       d="m -1.9921875,-10.318359 c -1.2850206,0 -2.3017036,0.3600528 -3.0527344,1.0800778 -0.7510308,0.7165798 -1.1269531,1.6904839 -1.1269531,2.9238281 0,1.229899 0.3759223,2.2057563 1.1269531,2.9257812 0.7510308,0.7165799 1.7677138,1.0742188 3.0527344,1.0742188 0.4306369,0 0.8440484,-0.048069 1.24023438,-0.1445313 0.39618596,-0.096463 0.77739801,-0.2382541 1.14257812,-0.4277344 V -4.484375 c -0.36862521,0.251492 -0.73155383,0.4356011 -1.08984375,0.5527344 -0.35828995,0.1171332 -0.73662655,0.1757812 -1.13281245,0.1757812 -0.7096897,0 -1.2673069,-0.226888 -1.6738282,-0.6816406 -0.4065212,-0.4547526 -0.609375,-1.0811361 -0.609375,-1.8769531 0,-0.7992622 0.2028538,-1.4261068 0.609375,-1.8808594 0.4065213,-0.4547526 0.9641385,-0.6816406 1.6738282,-0.6816406 0.3961859,0 0.7745225,0.058648 1.13281245,0.1757812 0.35828992,0.1171333 0.72121854,0.3012424 1.08984375,0.5527344 v -1.5957031 c -0.36518011,-0.1894803 -0.74639216,-0.3332244 -1.14257812,-0.4296874 -0.39618598,-0.09646 -0.80959748,-0.144531 -1.24023438,-0.144531 z m 6.8984375,0 c -0.9301758,0 -1.6425781,0.205729 -2.1386719,0.6191402 -0.4960937,0.4134115 -0.7441406,1.0051813 -0.7441406,1.7734376 0,0.6132269 0.1783583,1.1011556 0.5332031,1.4628906 0.3582899,0.361735 0.921658,0.6236979 1.6933594,0.7890625 l 0.7714844,0.171875 c 0.4685329,0.1033528 0.7805176,0.2206489 0.9355468,0.3515625 0.1584744,0.1309136 0.2363282,0.3154839 0.2363282,0.5566406 0,0.2687174 -0.1148818,0.4763997 -0.3457032,0.6210938 -0.2308213,0.144694 -0.5639648,0.2167968 -0.9980468,0.2167968 -0.4271919,0 -0.8703885,-0.066352 -1.3320313,-0.1972656 -0.4581977,-0.1343587 -0.9350857,-0.3319228 -1.4277343,-0.59375 v 1.6796875 c 0.4926486,0.1825901 0.9858669,0.3210449 1.4785156,0.4140625 0.4926486,0.093018 0.9834527,0.1386719 1.4726562,0.1386719 1.0369737,0 1.807563,-0.2057292 2.3105469,-0.6191407 0.506429,-0.4168565 0.7597656,-1.0514051 0.7597656,-1.9023437 0,-0.6476779 -0.1812337,-1.1466471 -0.5429687,-1.4980469 C 7.2066244,-6.6853841 6.59611,-6.9468859 5.7382812,-7.1191406 L 4.8925781,-7.2910156 C 4.489502,-7.3736979 4.2097168,-7.4722494 4.0546875,-7.5859375 3.9031033,-7.7030707 3.8261719,-7.8636068 3.8261719,-8.0703125 c 0,-0.2756076 0.1144206,-0.4784614 0.3417969,-0.609375 0.2273762,-0.1309136 0.5792643,-0.1972656 1.0546874,-0.1972656 0.35829,0 0.739502,0.048069 1.1425782,0.1445312 0.4030761,0.096463 0.8164876,0.2402073 1.2402344,0.4296875 V -9.9355469 C 7.1266005,-10.063015 6.6627061,-10.158691 6.2148438,-10.220703 5.7669814,-10.28616 5.3299967,-10.318359 4.90625,-10.318359 Z m 7.148438,0 c -0.930176,0 -1.644532,0.205729 -2.1406255,0.6191402 -0.4960937,0.4134115 -0.7441406,1.0051813 -0.7441406,1.7734376 0,0.6132269 0.1783583,1.1011556 0.5332031,1.4628906 0.35829,0.361735 0.923611,0.6236979 1.695313,0.7890625 l 0.769531,0.171875 c 0.468533,0.1033528 0.780517,0.2206489 0.935547,0.3515625 0.158474,0.1309136 0.236328,0.3154839 0.236328,0.5566406 0,0.2687174 -0.114882,0.4763997 -0.345703,0.6210938 -0.230822,0.144694 -0.562012,0.2167968 -0.996094,0.2167968 -0.427192,0 -0.872342,-0.066352 -1.333985,-0.1972656 -0.458197,-0.1343587 -0.9331321,-0.3319228 -1.4257808,-0.59375 v 1.6796875 c 0.4926487,0.1825901 0.9839138,0.3210449 1.4765628,0.4140625 0.492648,0.093018 0.983452,0.1386719 1.472656,0.1386719 1.036974,0 1.807563,-0.2057292 2.310547,-0.6191407 0.506429,-0.4168565 0.759765,-1.0514051 0.759765,-1.9023437 0,-0.6476779 -0.181233,-1.1466471 -0.542968,-1.4980469 -0.361735,-0.3513997 -0.970296,-0.6129015 -1.828125,-0.7851562 l -0.847657,-0.171875 c -0.403076,-0.082682 -0.682861,-0.1812338 -0.83789,-0.2949219 -0.151584,-0.1171332 -0.226563,-0.2776693 -0.226563,-0.484375 0,-0.2756076 0.112468,-0.4784614 0.339844,-0.609375 0.227376,-0.1309136 0.579264,-0.1972656 1.054688,-0.1972656 0.35829,0 0.739502,0.048069 1.142578,0.1445312 0.403076,0.096463 0.816487,0.2402073 1.240234,0.4296875 v -1.6328125 c -0.478868,-0.1274681 -0.942762,-0.2231441 -1.390625,-0.2851561 -0.447862,-0.06546 -0.882894,-0.09766 -1.30664,-0.09766 z"
       transform="matrix(0.19834066,0,0,0.19834066,3.332278,7.8673835)" />
  </g>
</svg>
