<?xml version="1.0" encoding="UTF-8" standalone="no"?>
<svg
   xmlns:dc="http://purl.org/dc/elements/1.1/"
   xmlns:cc="http://creativecommons.org/ns#"
   xmlns:rdf="http://www.w3.org/1999/02/22-rdf-syntax-ns#"
   xmlns:svg="http://www.w3.org/2000/svg"
   xmlns="http://www.w3.org/2000/svg"
   xmlns:xlink="http://www.w3.org/1999/xlink"
   xmlns:sodipodi="http://sodipodi.sourceforge.net/DTD/sodipodi-0.dtd"
   xmlns:inkscape="http://www.inkscape.org/namespaces/inkscape"
   inkscape:version="1.0.1 (3bc2e813f5, 2020-09-07, custom)"
   sodipodi:docname="accessories-screenshot.svg"
   id="svg24"
   version="1"
   height="32"
   width="32">
  <metadata
     id="metadata30">
    <rdf:RDF>
      <cc:Work
         rdf:about="">
        <dc:format>image/svg+xml</dc:format>
        <dc:type
           rdf:resource="http://purl.org/dc/dcmitype/StillImage" />
        <dc:title />
      </cc:Work>
    </rdf:RDF>
  </metadata>
  <defs
     id="defs28">
    <linearGradient
       inkscape:collect="always"
       id="linearGradient947">
      <stop
         style="stop-color:#00c88b;stop-opacity:1"
         offset="0"
         id="stop943" />
      <stop
         style="stop-color:#00b6d6;stop-opacity:1"
         offset="1"
         id="stop945" />
    </linearGradient>
    <linearGradient
       inkscape:collect="always"
       xlink:href="#linearGradient947"
       id="linearGradient857"
       x1="16"
       y1="2"
       x2="16"
       y2="30"
       gradientUnits="userSpaceOnUse"
       gradientTransform="translate(-32,-32)" />
    <filter
       inkscape:collect="always"
       style="color-interpolation-filters:sRGB"
       id="filter17630"
       x="-0.075"
       width="1.15"
       y="-0.075"
       height="1.15">
      <feGaussianBlur
         inkscape:collect="always"
         stdDeviation="0.875"
         id="feGaussianBlur17632" />
    </filter>
  </defs>
  <sodipodi:namedview
     inkscape:document-rotation="0"
     inkscape:current-layer="svg24"
     inkscape:window-maximized="1"
     inkscape:window-y="0"
     inkscape:window-x="0"
     inkscape:cy="12.62441"
     inkscape:cx="-2.4849689"
     inkscape:zoom="12.291667"
     showgrid="false"
     id="namedview26"
     inkscape:window-height="1001"
     inkscape:window-width="1920"
     inkscape:pageshadow="2"
     inkscape:pageopacity="0"
     guidetolerance="10"
     gridtolerance="10"
     objecttolerance="10"
     borderopacity="1"
     bordercolor="#666666"
     pagecolor="#ffffff"
     showguides="false" />
  <rect
     id="rect2"
     ry="1.4"
     rx="1.4"
     y="2"
     x="2"
     height="28"
     width="28"
     style="opacity:0.5;stroke-width:0.5;filter:url(#filter17630)" />
  <rect
     id="rect4"
     ry="1.4"
     rx="1.4"
     y="-30"
     x="-30"
     height="28"
     width="28"
     style="fill:url(#linearGradient857);fill-opacity:1;stroke-width:0.5"
     transform="matrix(0,-1,-1,0,0,0)" />
  <path
     id="rect4-3"
     d="M 2,3.2447918 V 10 H 30 V 3.2447918 C 30,2.5553695 29.375209,2 28.599609,2 H 3.4003905 C 2.6247905,2 2,2.5553695 2,3.2447918 Z"
     style="opacity:0.3;fill:#ffffff;fill-opacity:1;stroke-width:0.47140452"
     inkscape:connector-curvature="0" />
  <circle
     r="2"
     id="circle10"
     cy="6.000001"
     cx="5.5"
     style="opacity:0.2;stroke-width:0.5" />
  <circle
     r="2"
     id="circle14"
     cy="6.000001"
     cx="10.5"
     style="opacity:0.2;stroke-width:0.5" />
  <circle
     r="2"
     id="circle18"
     cy="6.000001"
     cx="15.5"
     style="opacity:0.2;stroke-width:0.5" />
  <path
     style="fill:#ffffff;stroke-width:1.33333;fill-opacity:1;opacity:0.5"
     d="M 13.333333,14 12,15.333333 H 9.333333 C 8.7056,15.333333 8,16.053333 8,16.666667 v 8 C 8,25.266667 8.71,26 9.333333,26 H 22.666667 C 23.293333,26 24,25.266667 24,24.666667 v -8 c 0,-0.613334 -0.706667,-1.333334 -1.333333,-1.333334 H 20 L 18.666667,14 Z M 16,16.666667 c 2.213334,0 4,1.786666 4,4 0,2.2 -1.786666,4 -4,4 -2.213333,0 -4,-1.8 -4,-4 0,-2.213334 1.786667,-4 4,-4 z M 16,18 c -1.466667,0 -2.666667,1.186667 -2.666667,2.666667 0,1.466666 1.2,2.666666 2.666667,2.666666 1.48,0 2.666667,-1.2 2.666667,-2.666666 C 18.666667,19.186667 17.48,18 16,18 Z"
     id="path2" />
</svg>
