<?xml version="1.0" encoding="UTF-8" standalone="no"?>
<svg
   xmlns:dc="http://purl.org/dc/elements/1.1/"
   xmlns:cc="http://creativecommons.org/ns#"
   xmlns:rdf="http://www.w3.org/1999/02/22-rdf-syntax-ns#"
   xmlns:svg="http://www.w3.org/2000/svg"
   xmlns="http://www.w3.org/2000/svg"
   xmlns:sodipodi="http://sodipodi.sourceforge.net/DTD/sodipodi-0.dtd"
   xmlns:inkscape="http://www.inkscape.org/namespaces/inkscape"
   inkscape:version="1.0 (4035a4fb49, 2020-05-01)"
   sodipodi:docname="akira.svg"
   id="svg24"
   version="1.1"
   height="32"
   width="32">
  <metadata
     id="metadata30">
    <rdf:RDF>
      <cc:Work
         rdf:about="">
        <dc:format>image/svg+xml</dc:format>
        <dc:type
           rdf:resource="http://purl.org/dc/dcmitype/StillImage" />
      </cc:Work>
    </rdf:RDF>
  </metadata>
  <defs
     id="defs28">
    <filter
       height="1.2102242"
       y="-0.10511212"
       width="1.2221021"
       x="-0.11105105"
       id="filter880"
       style="color-interpolation-filters:sRGB"
       inkscape:collect="always">
      <feGaussianBlur
         id="feGaussianBlur882"
         stdDeviation="1.2262737"
         inkscape:collect="always" />
    </filter>
    <filter
       height="1.2815899"
       y="-0.14079496"
       width="1.1751928"
       x="-0.087596421"
       id="filter929"
       style="color-interpolation-filters:sRGB"
       inkscape:collect="always">
      <feGaussianBlur
         id="feGaussianBlur931"
         stdDeviation="0.13688397"
         inkscape:collect="always" />
    </filter>
  </defs>
  <sodipodi:namedview
     inkscape:current-layer="svg24"
     inkscape:window-maximized="1"
     inkscape:window-y="0"
     inkscape:window-x="0"
     inkscape:cy="9.2726815"
     inkscape:cx="15.740677"
     inkscape:zoom="45.254834"
     showgrid="false"
     id="namedview26"
     inkscape:window-height="1002"
     inkscape:window-width="1920"
     inkscape:pageshadow="2"
     inkscape:pageopacity="0"
     guidetolerance="10"
     gridtolerance="10"
     objecttolerance="10"
     borderopacity="1"
     bordercolor="#666666"
     pagecolor="#ffffff" />
  <path
     d="M 14.543676,3 9.1100832,16.400391 c -0.346996,0.01742 -0.611824,0.146715 -0.63086,0.310547 -0.00858,-0.03367 -0.00781,-0.05664 -0.00781,-0.05664 l -5.685549,14.199219 c -0.071612,0.149656 -0.039126,0.184962 0.101562,0.101562 L 16.85227,22.615234 29.104223,30.019531 c 0.152405,0.10052 0.175708,0.05879 0.117188,-0.07227 -1.418512,-3.526939 -2.692146,-6.642428 -4.806641,-11.851558 l 1.650391,-0.984375 c 0.106077,-0.06625 0.11327,-0.101987 0.002,-0.101562 H 23.975317 C 21.522907,10.969994 18.293676,3 18.293676,3 Z"
     style="fill:#000000;fill-opacity:1;fill-rule:evenodd;stroke-width:1.75;filter:url(#filter880);opacity:0.5"
     id="path8-3" />
  <path
     id="path8"
     d="m 8.4709877,15.728754 c 0,-0.184588 0.316032,-0.334259 0.713541,-0.334259 0.02067,0 0.04109,2.24e-4 0.06149,0.0011 0.01628,6.58e-4 0.543704,0 0.543704,0 l -0.949245,2.483924 -1.062166,-0.402977 c 0,0 0.692657,-1.563213 0.692657,-1.7478 z"
     style="fill:#f07800;fill-rule:evenodd;stroke-width:1.75" />
  <path
     id="path10"
     d="m 14.543323,2.0000001 c 0,0 1.066175,0.8478362 1.456677,1.1666663 h 1.166666 c 0.323661,-0.4061223 1.127056,-1.1666663 1.127056,-1.1666663 0,0 7.702804,18.9292179 10.928065,26.9484069 0.05852,0.131057 0.03512,0.17213 -0.117285,0.07161 L 13.256464,19.441442 3.5376968,29.13657 Z"
     style="fill:#ff8f13;fill-rule:evenodd;stroke-width:1.75;fill-opacity:1" />
  <path
     id="path16"
     d="M 9.1845287,16.01077 H 26.067403 c 0.111317,-4.25e-4 0.104877,0.03537 -0.0012,0.101622 L 2.8868165,29.956007 C 2.7461288,30.039412 2.7139971,30.00359 2.7856088,29.85393 L 8.4709927,15.654286 c 0,0 -0.05301,0.323808 0.713541,0.356498 z"
     style="fill:#ffc30e;fill-rule:evenodd;stroke-width:1.75" />
  <path
     style="fill:#090700;fill-opacity:1;fill-rule:evenodd;stroke-width:1.75;filter:url(#filter929);opacity:0.3"
     d="m 18.293722,2.2 h -3.750399 l 1.851216,2.333333 z"
     id="path18-6" />
  <path
     id="path18"
     d="m 18.293722,2.0000001 h -3.750399 l 1.851216,2.333333 z"
     style="fill:#ffc30e;fill-rule:evenodd;stroke-width:1.75" />
</svg>
