<?xml version="1.0" encoding="UTF-8" standalone="no"?>
<svg
   xmlns:dc="http://purl.org/dc/elements/1.1/"
   xmlns:cc="http://creativecommons.org/ns#"
   xmlns:rdf="http://www.w3.org/1999/02/22-rdf-syntax-ns#"
   xmlns:svg="http://www.w3.org/2000/svg"
   xmlns="http://www.w3.org/2000/svg"
   xmlns:xlink="http://www.w3.org/1999/xlink"
   xmlns:sodipodi="http://sodipodi.sourceforge.net/DTD/sodipodi-0.dtd"
   xmlns:inkscape="http://www.inkscape.org/namespaces/inkscape"
   inkscape:version="1.0 (4035a4fb49, 2020-05-01)"
   sodipodi:docname="audio-recorder.svg"
   id="svg16"
   version="1"
   height="32"
   width="32">
  <metadata
     id="metadata22">
    <rdf:RDF>
      <cc:Work
         rdf:about="">
        <dc:format>image/svg+xml</dc:format>
        <dc:type
           rdf:resource="http://purl.org/dc/dcmitype/StillImage" />
        <dc:title></dc:title>
      </cc:Work>
    </rdf:RDF>
  </metadata>
  <defs
     id="defs20">
    <linearGradient
       id="linearGradient855"
       inkscape:collect="always">
      <stop
         id="stop851"
         offset="0"
         style="stop-color:#f40d00;stop-opacity:1" />
      <stop
         id="stop853"
         offset="1"
         style="stop-color:#fe00a6;stop-opacity:1" />
    </linearGradient>
    <filter
       height="1.1890001"
       y="-0.094500025"
       width="1.2519999"
       x="-0.12599996"
       id="filter847"
       style="color-interpolation-filters:sRGB"
       inkscape:collect="always">
      <feGaussianBlur
         id="feGaussianBlur849"
         stdDeviation="0.62999978"
         inkscape:collect="always" />
    </filter>
    <linearGradient
       gradientUnits="userSpaceOnUse"
       y2="2"
       x2="30"
       y1="30"
       x1="2"
       id="linearGradient857"
       xlink:href="#linearGradient855"
       inkscape:collect="always" />
    <filter
       height="1.216"
       y="-0.108"
       width="1.216"
       x="-0.108"
       id="filter906"
       style="color-interpolation-filters:sRGB"
       inkscape:collect="always">
      <feGaussianBlur
         id="feGaussianBlur908"
         stdDeviation="1.26"
         inkscape:collect="always" />
    </filter>
  </defs>
  <sodipodi:namedview
     inkscape:current-layer="svg16"
     inkscape:window-maximized="1"
     inkscape:window-y="0"
     inkscape:window-x="0"
     inkscape:cy="16"
     inkscape:cx="16"
     inkscape:zoom="23.8125"
     showgrid="false"
     id="namedview18"
     inkscape:window-height="1002"
     inkscape:window-width="1920"
     inkscape:pageshadow="2"
     inkscape:pageopacity="0"
     guidetolerance="10"
     gridtolerance="10"
     objecttolerance="10"
     borderopacity="1"
     bordercolor="#666666"
     pagecolor="#ffffff" />
  <rect
     fill="#e05048"
     width="28"
     height="28"
     x="2.0000007"
     y="2.0000007"
     rx="14"
     ry="14"
     id="rect2-0"
     style="opacity:0.5;fill:#000000;fill-opacity:1;filter:url(#filter906)" />
  <rect
     style="fill-opacity:1;fill:url(#linearGradient857)"
     id="rect2"
     ry="14"
     rx="14"
     y="2"
     x="2"
     height="28"
     width="28"
     fill="#e05048" />
  <g
     id="g6"
     transform="translate(-337 424)"
     style="enable-background:new;filter:url(#filter847);opacity:0.5"
     opacity=".2">
    <path
       id="path4"
       d="m353-415c-1.6621 0-3 1.3379-3 3v5c0 1.6621 1.3379 3 3 3s3-1.3379 3-3v-5c0-1.6621-1.3379-3-3-3zm-6 7v0.99999c0 2.9695 2.1624 5.4322 5 5.9062v2.0938h2v-2.0938c2.8376-0.47409 5-2.9368 5-5.9062v-0.99999h-2v0.99999c0 2.2334-1.7666 4-4 4s-4-1.7666-4-4v-1z" />
  </g>
  <g
     id="g10"
     transform="translate(-337 423)"
     style="enable-background:new"
     fill="#fff">
    <path
       id="path8"
       d="m353-415c-1.6621 0-3 1.3379-3 3v5c0 1.6621 1.3379 3 3 3s3-1.3379 3-3v-5c0-1.6621-1.3379-3-3-3zm-6 7v0.99999c0 2.9695 2.1624 5.4322 5 5.9062v2.0938h2v-2.0938c2.8376-0.47409 5-2.9368 5-5.9062v-0.99999h-2v0.99999c0 2.2334-1.7666 4-4 4s-4-1.7666-4-4v-0.99999z" />
  </g>
  <ellipse
     ry="11.469595"
     rx="11.469594"
     cy="16"
     cx="16"
     id="path859"
     style="opacity:0.5;fill:none;fill-opacity:1;stroke:#ffffff;stroke-width:1.06081;stroke-miterlimit:4;stroke-dasharray:none;stroke-opacity:1" />
  <circle
     r="8.6021967"
     style="opacity:0.5;fill:none;fill-opacity:1;stroke:#ffffff;stroke-width:0.795608;stroke-miterlimit:4;stroke-dasharray:none;stroke-opacity:1"
     id="path859-5"
     cx="16"
     cy="16" />
  <ellipse
     style="opacity:0.5;fill:none;fill-opacity:1;stroke:#ffffff;stroke-width:0.530405;stroke-miterlimit:4;stroke-dasharray:none;stroke-opacity:1"
     id="path859-7"
     cx="16"
     cy="16"
     rx="5.7347975"
     ry="5.734798" />
</svg>
