<?xml version="1.0" encoding="UTF-8" standalone="no"?>
<svg
   xmlns:dc="http://purl.org/dc/elements/1.1/"
   xmlns:cc="http://creativecommons.org/ns#"
   xmlns:rdf="http://www.w3.org/1999/02/22-rdf-syntax-ns#"
   xmlns:svg="http://www.w3.org/2000/svg"
   xmlns="http://www.w3.org/2000/svg"
   xmlns:xlink="http://www.w3.org/1999/xlink"
   xmlns:sodipodi="http://sodipodi.sourceforge.net/DTD/sodipodi-0.dtd"
   xmlns:inkscape="http://www.inkscape.org/namespaces/inkscape"
   inkscape:version="1.0 (4035a4fb49, 2020-05-01)"
   sodipodi:docname="banshee.svg"
   id="svg22"
   version="1"
   height="32"
   width="32">
  <metadata
     id="metadata28">
    <rdf:RDF>
      <cc:Work
         rdf:about="">
        <dc:format>image/svg+xml</dc:format>
        <dc:type
           rdf:resource="http://purl.org/dc/dcmitype/StillImage" />
        <dc:title />
      </cc:Work>
    </rdf:RDF>
  </metadata>
  <defs
     id="defs26">
    <linearGradient
       id="linearGradient867"
       inkscape:collect="always">
      <stop
         id="stop863"
         offset="0"
         style="stop-color:#0066cc;stop-opacity:1" />
      <stop
         id="stop865"
         offset="1"
         style="stop-color:#0099ff;stop-opacity:1" />
    </linearGradient>
    <linearGradient
       id="linearGradient2344"
       inkscape:collect="always">
      <stop
         id="stop2340"
         offset="0"
         style="stop-color:#e5e5e5;stop-opacity:1" />
      <stop
         id="stop2342"
         offset="1"
         style="stop-color:#d9d9d9;stop-opacity:1" />
    </linearGradient>
    <linearGradient
       gradientTransform="matrix(0.49999995,0,0,0.49999995,31.999998,31.999997)"
       gradientUnits="userSpaceOnUse"
       y2="-63.831791"
       x2="-0.16484457"
       y1="0.026913203"
       x1="-63.451641"
       id="linearGradient2346"
       xlink:href="#linearGradient2344"
       inkscape:collect="always" />
    <filter
       inkscape:collect="always"
       style="color-interpolation-filters:sRGB"
       id="filter841"
       x="-0.108"
       width="1.216"
       y="-0.108"
       height="1.216">
      <feGaussianBlur
         inkscape:collect="always"
         stdDeviation="1.26"
         id="feGaussianBlur843" />
    </filter>
    <linearGradient
       gradientUnits="userSpaceOnUse"
       y2="16"
       x2="19.999998"
       y1="16"
       x1="9.9999991"
       id="linearGradient869"
       xlink:href="#linearGradient867"
       inkscape:collect="always"
       gradientTransform="matrix(1.3333334,0,0,1.3333334,-5.3333325,-5.3333332)" />
    <filter
       height="1.198"
       y="-0.099000002"
       width="1.2376"
       x="-0.1188"
       id="filter867"
       style="color-interpolation-filters:sRGB"
       inkscape:collect="always">
      <feGaussianBlur
         id="feGaussianBlur869"
         stdDeviation="0.66"
         inkscape:collect="always" />
    </filter>
  </defs>
  <sodipodi:namedview
     inkscape:document-rotation="0"
     inkscape:current-layer="svg22"
     inkscape:window-maximized="1"
     inkscape:window-y="0"
     inkscape:window-x="0"
     inkscape:cy="16.87459"
     inkscape:cx="17.439714"
     inkscape:zoom="20.85965"
     showgrid="false"
     id="namedview24"
     inkscape:window-height="999"
     inkscape:window-width="1920"
     inkscape:pageshadow="2"
     inkscape:pageopacity="0"
     guidetolerance="10"
     gridtolerance="10"
     objecttolerance="10"
     borderopacity="1"
     bordercolor="#666666"
     pagecolor="#ffffff" />
  <rect
     id="rect8-4"
     transform="matrix(0,1,1,0,0,0)"
     ry="14"
     rx="14"
     y="2"
     x="2"
     height="28"
     width="28"
     style="opacity:0.5;fill:#000000;fill-opacity:1;stroke-width:0.7;filter:url(#filter841)" />
  <rect
     id="rect8"
     transform="matrix(0,1,1,0,0,0)"
     ry="13.999999"
     rx="13.999999"
     y="2.0000002"
     x="2.0000005"
     height="27.999998"
     width="27.999998"
     style="fill:url(#linearGradient2346);fill-opacity:1;stroke-width:0.69999993" />
  <path
     inkscape:connector-curvature="0"
     d=""
     cx="32"
     cy="32"
     r="24"
     id="path2348"
     style="opacity:0.2;fill:#ffffff;fill-opacity:1;stroke:none;stroke-width:1.02921343;stroke-miterlimit:4;stroke-dasharray:none;stroke-opacity:1" />
  <path
     style="color:#4d4d4d;opacity:0.5;fill:#000000;fill-opacity:1;stroke:none;stroke-width:1.01274;filter:url(#filter867)"
     class="ColorScheme-Text"
     d="m 20.691619,9 -7.566692,1.905771 c -0.568481,0.148373 -1.027124,0.738304 -1.027124,1.311584 v 9.089679 c -0.576455,-0.294018 -1.316848,-0.412855 -2.084393,-0.218594 -1.385043,0.35055 -2.252091,1.483148 -1.955194,2.529762 0.296899,1.046634 1.661877,1.630346 3.046916,1.279788 1.104978,-0.27965 1.866019,-1.069358 1.987495,-1.903767 l 0.03231,-8.590893 7.183407,-1.873975 v 6.778509 c -0.576463,-0.294026 -1.316854,-0.412865 -2.084394,-0.218592 -1.385045,0.35054 -2.254247,1.483126 -1.957349,2.52976 0.296896,1.046626 1.66188,1.630348 3.04692,1.279798 1.104979,-0.279679 1.866016,-1.069354 1.987493,-1.903786 L 21.333334,9.812789 C 21.333338,9.382825 21.060196,9.06048 20.691656,9 Z"
     id="path4-6"
     inkscape:connector-curvature="0" />
  <path
     inkscape:connector-curvature="0"
     id="path4"
     d="m 20.691619,8 -7.566692,1.9057713 c -0.568481,0.1483727 -1.027124,0.7383037 -1.027124,1.3115837 v 9.089679 c -0.576455,-0.294018 -1.316848,-0.412855 -2.084393,-0.218594 -1.3850432,0.35055 -2.2520918,1.483148 -1.9551942,2.529762 0.296899,1.046634 1.6618764,1.630346 3.0469162,1.279788 1.104978,-0.27965 1.866019,-1.069358 1.987495,-1.903767 l 0.03231,-8.590893 7.183407,-1.873975 v 6.778509 c -0.576463,-0.294026 -1.316854,-0.412865 -2.084394,-0.218592 -1.385045,0.35054 -2.254247,1.483126 -1.957349,2.52976 0.296896,1.046626 1.66188,1.630348 3.04692,1.279798 1.104979,-0.279679 1.866016,-1.069354 1.987493,-1.903786 L 21.333334,8.8127893 C 21.333338,8.3828253 21.060196,8.0604803 20.691656,8 Z"
     class="ColorScheme-Text"
     style="color:#4d4d4d;opacity:1;fill:url(#linearGradient869);fill-opacity:1;stroke:none;stroke-width:1.01274" />
</svg>
