<?xml version="1.0" encoding="UTF-8" standalone="no"?>
<svg
   xmlns:dc="http://purl.org/dc/elements/1.1/"
   xmlns:cc="http://creativecommons.org/ns#"
   xmlns:rdf="http://www.w3.org/1999/02/22-rdf-syntax-ns#"
   xmlns:svg="http://www.w3.org/2000/svg"
   xmlns="http://www.w3.org/2000/svg"
   xmlns:xlink="http://www.w3.org/1999/xlink"
   xmlns:sodipodi="http://sodipodi.sourceforge.net/DTD/sodipodi-0.dtd"
   xmlns:inkscape="http://www.inkscape.org/namespaces/inkscape"
   inkscape:version="1.0 (4035a4fb49, 2020-05-01)"
   sodipodi:docname="com.github.calo001.fondo.svg"
   id="svg18"
   version="1"
   height="32"
   width="32">
  <metadata
     id="metadata24">
    <rdf:RDF>
      <cc:Work
         rdf:about="">
        <dc:format>image/svg+xml</dc:format>
        <dc:type
           rdf:resource="http://purl.org/dc/dcmitype/StillImage" />
      </cc:Work>
    </rdf:RDF>
  </metadata>
  <defs
     id="defs22">
    <linearGradient
       inkscape:collect="always"
       id="linearGradient850">
      <stop
         style="stop-color:#e5e5e5;stop-opacity:1"
         offset="0"
         id="stop846" />
      <stop
         style="stop-color:#cccccc;stop-opacity:1"
         offset="1"
         id="stop848" />
    </linearGradient>
    <linearGradient
       id="linearGradient867"
       inkscape:collect="always">
      <stop
         id="stop863"
         offset="0"
         style="stop-color:#45516c;stop-opacity:1" />
      <stop
         id="stop865"
         offset="1"
         style="stop-color:#232936;stop-opacity:1" />
    </linearGradient>
    <linearGradient
       id="linearGradient859"
       inkscape:collect="always">
      <stop
         id="stop855"
         offset="0"
         style="stop-color:#00e37a;stop-opacity:1" />
      <stop
         id="stop857"
         offset="1"
         style="stop-color:#0090eb;stop-opacity:1" />
    </linearGradient>
    <filter
       height="1.216"
       y="-0.108"
       width="1.216"
       x="-0.108"
       id="filter849"
       style="color-interpolation-filters:sRGB"
       inkscape:collect="always">
      <feGaussianBlur
         id="feGaussianBlur851"
         stdDeviation="0.72"
         inkscape:collect="always" />
    </filter>
    <linearGradient
       gradientUnits="userSpaceOnUse"
       y2="18.847584"
       x2="19.002804"
       y1="13.04528"
       x1="13.021875"
       id="linearGradient861"
       xlink:href="#linearGradient859"
       inkscape:collect="always" />
    <linearGradient
       gradientTransform="translate(0,-32)"
       gradientUnits="userSpaceOnUse"
       y2="15.986832"
       x2="29.675446"
       y1="16"
       x1="2"
       id="linearGradient869"
       xlink:href="#linearGradient867"
       inkscape:collect="always" />
    <filter
       height="1.216"
       y="-0.108"
       width="1.216"
       x="-0.108"
       id="filter871"
       style="color-interpolation-filters:sRGB"
       inkscape:collect="always">
      <feGaussianBlur
         id="feGaussianBlur873"
         stdDeviation="1.26"
         inkscape:collect="always" />
    </filter>
    <linearGradient
       inkscape:collect="always"
       xlink:href="#linearGradient850"
       id="linearGradient852"
       x1="16.440319"
       y1="8.1691132"
       x2="16.52467"
       y2="23.830246"
       gradientUnits="userSpaceOnUse" />
  </defs>
  <sodipodi:namedview
     inkscape:current-layer="svg18"
     inkscape:window-maximized="1"
     inkscape:window-y="0"
     inkscape:window-x="0"
     inkscape:cy="16"
     inkscape:cx="13.948718"
     inkscape:zoom="24.375"
     showgrid="false"
     id="namedview20"
     inkscape:window-height="999"
     inkscape:window-width="1920"
     inkscape:pageshadow="2"
     inkscape:pageopacity="0"
     guidetolerance="10"
     gridtolerance="10"
     objecttolerance="10"
     borderopacity="1"
     bordercolor="#666666"
     pagecolor="#ffffff"
     inkscape:document-rotation="0" />
  <rect
     id="rect2"
     ry="14"
     rx="14"
     y="2"
     x="2"
     height="28"
     width="28"
     style="opacity:0.5;filter:url(#filter871)" />
  <rect
     transform="rotate(90)"
     id="rect4"
     ry="14"
     rx="14"
     y="-30"
     x="2"
     height="28"
     width="28"
     style="fill:url(#linearGradient869);fill-opacity:1" />
  <path
     id="path6"
     d="M 11.439453,9 A 3.4491017,3.4491017 0 0 0 8,12.439453 v 9.121094 A 3.4491017,3.4491017 0 0 0 11.439453,25 h 9.121094 A 3.4491017,3.4491017 0 0 0 24,21.560547 V 12.439453 A 3.4491017,3.4491017 0 0 0 20.560547,9 Z m 4.388672,3.998047 A 4.0048995,4.0048995 0 0 1 20,17.009766 4.0048995,4.0048995 0 0 1 15.994141,21.003906 4.0048995,4.0048995 0 0 1 15.828125,12.998047 Z M 16.042969,14 a 3.0002262,3.0002262 0 0 0 -2.164063,0.878906 3.0002262,3.0002262 0 0 0 0,4.242188 3.0002262,3.0002262 0 0 0 0.441406,0.361328 c 0.02514,0.01705 0.05064,0.03262 0.07617,0.04883 a 3.0002262,3.0002262 0 0 0 0.439454,0.232422 c 0.031,0.01304 0.06242,0.0232 0.09375,0.03516 a 3.0002262,3.0002262 0 0 0 0.46875,0.138672 c 0.124882,0.02541 0.252236,0.03162 0.378906,0.04102 -0.100873,-0.0082 -0.202737,-0.0097 -0.302735,-0.02734 a 3.0002262,3.0002262 0 0 0 0.5,0.04687 3.0002262,3.0002262 0 0 0 0.01367,0 c 0.01245,4.9e-5 0.02466,1.05e-4 0.03711,0 a 3.0002262,3.0002262 0 0 0 0.535156,-0.05078 c 0.01378,-0.0026 0.02726,-0.007 0.04102,-0.0098 a 3.0002262,3.0002262 0 0 0 0.501954,-0.148438 3.0002262,3.0002262 0 0 0 0.01563,-0.0059 c 0.0071,-0.0029 0.0144,-0.0049 0.02148,-0.0078 a 3.0002262,3.0002262 0 0 0 0.476563,-0.251953 3.0002262,3.0002262 0 0 0 0.0098,-0.0059 c 0.01011,-0.0065 0.02121,-0.0109 0.03125,-0.01758 a 3.0002262,3.0002262 0 0 0 0.462891,-0.378906 3.0002262,3.0002262 0 0 0 0.361328,-0.441406 c 0.01705,-0.02514 0.03262,-0.05064 0.04883,-0.07617 a 3.0002262,3.0002262 0 0 0 0.224609,-0.425782 3.0002262,3.0002262 0 0 0 0.0059,-0.01367 c 0.01822,-0.04327 0.03273,-0.08695 0.04883,-0.130859 A 3.0002262,3.0002262 0 0 0 18.9375,17.601562 c 0.0052,-0.02531 0.0072,-0.05076 0.01172,-0.07617 9.15e-4,-0.0052 0.0011,-0.01045 0.002,-0.01563 a 3.0002262,3.0002262 0 0 0 0.04687,-0.480469 3.0002262,3.0002262 0 0 0 0,-0.01758 c 4.9e-5,-0.01246 1.05e-4,-0.02465 0,-0.03711 a 3.0002262,3.0002262 0 0 0 -0.05078,-0.535156 c -0.0026,-0.01378 -0.007,-0.02726 -0.0098,-0.04102 a 3.0002262,3.0002262 0 0 0 -0.148438,-0.501954 3.0002262,3.0002262 0 0 0 -0.0059,-0.01563 c -0.0066,-0.01647 -0.01456,-0.03245 -0.02148,-0.04883 a 3.0002262,3.0002262 0 0 0 -0.238281,-0.449219 3.0002262,3.0002262 0 0 0 -0.0059,-0.0098 c -0.0065,-0.01011 -0.0109,-0.02121 -0.01758,-0.03125 A 3.0002262,3.0002262 0 0 0 18.121094,14.878906 3.0002262,3.0002262 0 0 0 16.042969,14 Z"
     style="opacity:0.5;filter:url(#filter849)" />
  <path
     id="path8"
     d="M 11.439453 8 A 3.4491017 3.4491017 0 0 0 8 11.439453 L 8 20.560547 A 3.4491017 3.4491017 0 0 0 11.439453 24 L 20.560547 24 A 3.4491017 3.4491017 0 0 0 24 20.560547 L 24 11.439453 A 3.4491017 3.4491017 0 0 0 20.560547 8 L 11.439453 8 z M 15.828125 11.998047 A 4.0048995 4.0048995 0 0 1 20 16.009766 A 4.0048995 4.0048995 0 0 1 15.994141 20.003906 A 4.0048995 4.0048995 0 0 1 15.828125 11.998047 z"
     style="fill:url(#linearGradient852);fill-opacity:1" />
  <circle
     r="3"
     cy="16"
     cx="16"
     id="path853"
     style="opacity:1;fill:url(#linearGradient861);stroke:none;stroke-width:0.870444;stroke-opacity:0.989186;fill-opacity:1" />
</svg>
