<?xml version="1.0" encoding="UTF-8" standalone="no"?>
<svg
   xmlns:dc="http://purl.org/dc/elements/1.1/"
   xmlns:cc="http://creativecommons.org/ns#"
   xmlns:rdf="http://www.w3.org/1999/02/22-rdf-syntax-ns#"
   xmlns:svg="http://www.w3.org/2000/svg"
   xmlns="http://www.w3.org/2000/svg"
   xmlns:xlink="http://www.w3.org/1999/xlink"
   xmlns:sodipodi="http://sodipodi.sourceforge.net/DTD/sodipodi-0.dtd"
   xmlns:inkscape="http://www.inkscape.org/namespaces/inkscape"
   width="32"
   height="32"
   version="1"
   id="svg66"
   sodipodi:docname="cs-login.svg"
   inkscape:version="1.0.1 (3bc2e813f5, 2020-09-07)">
  <metadata
     id="metadata72">
    <rdf:RDF>
      <cc:Work
         rdf:about="">
        <dc:format>image/svg+xml</dc:format>
        <dc:type
           rdf:resource="http://purl.org/dc/dcmitype/StillImage" />
      </cc:Work>
    </rdf:RDF>
  </metadata>
  <defs
     id="defs70">
    <linearGradient
       id="linearGradient916"
       inkscape:collect="always">
      <stop
         id="stop912"
         offset="0"
         style="stop-color:#4f4f4f;stop-opacity:1;" />
      <stop
         id="stop914"
         offset="1"
         style="stop-color:#696969;stop-opacity:1" />
    </linearGradient>
    <linearGradient
       gradientUnits="userSpaceOnUse"
       y2="-16"
       x2="-5"
       y1="-16"
       x1="-28"
       id="linearGradient918"
       xlink:href="#linearGradient916"
       inkscape:collect="always" />
    <filter
       inkscape:collect="always"
       style="color-interpolation-filters:sRGB"
       id="filter60720"
       x="-0.068303571"
       width="1.1366071"
       y="-0.083152174"
       height="1.1663043">
      <feGaussianBlur
         inkscape:collect="always"
         stdDeviation="0.796875"
         id="feGaussianBlur60722" />
    </filter>
    <filter
       inkscape:collect="always"
       style="color-interpolation-filters:sRGB"
       id="filter60724"
       x="-0.075"
       width="1.15"
       y="-0.075"
       height="1.15">
      <feGaussianBlur
         inkscape:collect="always"
         stdDeviation="0.3125"
         id="feGaussianBlur60726" />
    </filter>
  </defs>
  <sodipodi:namedview
     inkscape:document-rotation="0"
     pagecolor="#ffffff"
     bordercolor="#666666"
     borderopacity="1"
     objecttolerance="10"
     gridtolerance="10"
     guidetolerance="10"
     inkscape:pageopacity="0"
     inkscape:pageshadow="2"
     inkscape:window-width="1920"
     inkscape:window-height="1000"
     id="namedview68"
     showgrid="false"
     inkscape:zoom="11.90625"
     inkscape:cx="11.352395"
     inkscape:cy="18.127285"
     inkscape:window-x="0"
     inkscape:window-y="0"
     inkscape:window-maximized="1"
     inkscape:current-layer="svg66" />
  <rect
     id="rect38-6"
     transform="matrix(0,-1,-1,0,0,0)"
     ry="1.4"
     rx="1.438"
     y="-30"
     x="-28"
     height="28"
     width="23"
     fill="#4f4f4f"
     style="opacity:0.5;filter:url(#filter60720)" />
  <rect
     style="fill-opacity:1;fill:url(#linearGradient918)"
     fill="#4f4f4f"
     width="23"
     height="28"
     x="-28"
     y="-30"
     rx="1.438"
     ry="1.4"
     transform="matrix(0,-1,-1,0,0,0)"
     id="rect38" />
  <circle
     style="opacity:0.5;fill:#000000;fill-opacity:1;stroke:none;stroke-width:0.470177;filter:url(#filter60724)"
     id="path891-3"
     cx="16"
     cy="12.28"
     r="5" />
  <circle
     r="5"
     cy="12"
     cx="16"
     id="path891"
     style="opacity:1;fill:#0083d7;fill-opacity:1;stroke:none;stroke-width:0.470177" />
  <path
     d="M 16 7 C 15.418526 7 14.892717 7.236136 14.511719 7.6171875 C 14.13072 7.998239 13.894531 8.5242058 13.894531 9.1054688 C 13.894531 9.6867322 14.13072 10.212698 14.511719 10.59375 C 14.892717 10.974802 15.418526 11.210937 16 11.210938 C 16.581473 11.210936 17.107771 10.974802 17.488281 10.59375 C 17.868792 10.212698 18.103516 9.6867322 18.103516 9.1054688 C 18.103516 8.5242058 17.868792 7.9982389 17.488281 7.6171875 C 17.107771 7.2361361 16.581474 7.0000005 16 7 z M 16 12.263672 C 15.079038 12.264222 14.387341 12.410358 13.869141 12.628906 C 13.35094 12.847454 13.005843 13.138565 12.775391 13.429688 C 12.314485 14.011931 12.314454 14.59375 12.314453 14.59375 L 12.314453 15.378906 A 5 5 0 0 0 15.400391 16.962891 A 5 5 0 0 0 15.550781 16.978516 A 5 5 0 0 0 15.589844 16.982422 A 5 5 0 0 0 15.730469 16.992188 A 5 5 0 0 0 16 17 A 5 5 0 0 0 16.177734 16.996094 A 5 5 0 0 0 16.332031 16.988281 A 5 5 0 0 0 16.453125 16.978516 A 5 5 0 0 0 16.5625 16.966797 A 5 5 0 0 0 19.683594 15.378906 L 19.683594 14.59375 C 19.683594 14.59375 19.683121 14.010441 19.222656 13.427734 C 18.992424 13.136381 18.646906 12.845328 18.128906 12.626953 C 17.610906 12.408579 16.920869 12.263297 16 12.263672 z "
     style="opacity:1;fill:#ffffff;fill-opacity:1;stroke-width:1.29395"
     id="path845" />
  <rect
     fill="#ffffff"
     width="20"
     height="5"
     x="6"
     y="20"
     rx="1.3329999"
     ry="1.25"
     id="rect48" />
  <circle
     fill="#ff4f4f"
     cx="8.5"
     cy="22.5"
     r="1.5"
     id="circle56" />
  <circle
     fill="#ff4f4f"
     cx="13.5"
     cy="22.5"
     r="1.5"
     id="circle60" />
  <circle
     fill="#ff4f4f"
     cx="18.5"
     cy="22.5"
     r="1.5"
     id="circle64" />
</svg>
