<?xml version="1.0" encoding="UTF-8" standalone="no"?>
<svg
   xmlns:dc="http://purl.org/dc/elements/1.1/"
   xmlns:cc="http://creativecommons.org/ns#"
   xmlns:rdf="http://www.w3.org/1999/02/22-rdf-syntax-ns#"
   xmlns:svg="http://www.w3.org/2000/svg"
   xmlns="http://www.w3.org/2000/svg"
   xmlns:sodipodi="http://sodipodi.sourceforge.net/DTD/sodipodi-0.dtd"
   xmlns:inkscape="http://www.inkscape.org/namespaces/inkscape"
   inkscape:version="1.0.1 (3bc2e813f5, 2020-09-07)"
   sodipodi:docname="discord.svg"
   id="svg16"
   version="1.1"
   height="32"
   width="32">
  <metadata
     id="metadata22">
    <rdf:RDF>
      <cc:Work
         rdf:about="">
        <dc:format>image/svg+xml</dc:format>
        <dc:type
           rdf:resource="http://purl.org/dc/dcmitype/StillImage" />
      </cc:Work>
    </rdf:RDF>
  </metadata>
  <defs
     id="defs20">
    <filter
       inkscape:collect="always"
       style="color-interpolation-filters:sRGB"
       id="filter60660"
       x="-0.064583583"
       width="1.1291672"
       y="-0.089422598"
       height="1.1788452">
      <feGaussianBlur
         inkscape:collect="always"
         stdDeviation="0.48437688"
         id="feGaussianBlur60662" />
    </filter>
    <filter
       inkscape:collect="always"
       style="color-interpolation-filters:sRGB"
       id="filter60664"
       x="-0.079326923"
       width="1.1586538"
       y="-0.07112069"
       height="1.1422414">
      <feGaussianBlur
         inkscape:collect="always"
         stdDeviation="0.859375"
         id="feGaussianBlur60666" />
    </filter>
  </defs>
  <sodipodi:namedview
     inkscape:current-layer="svg16"
     inkscape:window-maximized="1"
     inkscape:window-y="0"
     inkscape:window-x="0"
     inkscape:cy="26.30813"
     inkscape:cx="25.292533"
     inkscape:zoom="8.6178639"
     showgrid="false"
     id="namedview18"
     inkscape:window-height="1000"
     inkscape:window-width="1920"
     inkscape:pageshadow="2"
     inkscape:pageopacity="0"
     guidetolerance="10"
     gridtolerance="10"
     objecttolerance="10"
     borderopacity="1"
     bordercolor="#666666"
     pagecolor="#ffffff"
     inkscape:document-rotation="0" />
  <path
     d="m 6,1.5000002 c -1.662,0 -3,1.338 -3,3 V 24.5 c 0,1.662 1.338,3 3,3 h 20 l 3,3 v -6 -1 -18.9999998 c 0,-1.662 -1.338,-3 -3,-3 z"
     style="opacity:0.5;fill:#000000;fill-opacity:1;filter:url(#filter60664)"
     id="rect2-4" />
  <rect
     id="rect2"
     ry="3"
     rx="3"
     y="2"
     x="3"
     height="26"
     width="26"
     style="fill:#7289da" />
  <path
     id="path6"
     d="m 29,31 -7,-7 h 7 z"
     style="fill:#7289da;fill-rule:evenodd" />
  <path
     id="path12"
     d="m 14.175781,8.5996249 c 0,0 -1.980445,-0.04304 -4.078124,1.4980461 -2.0976783,1.541083 -3.0976572,4.730918 -3.0976572,9.326172 0,0 2.223992,2.074982 5.4433602,2.175781 0,0 0.539546,-0.634246 0.976562,-1.181641 -1.849982,-0.547394 -2.550781,-2.185547 -2.550781,-2.185547 1.704525,0.952865 2.863326,1.350612 4.630859,1.367188 1.767533,-0.01658 3.926335,-0.414323 5.630859,-1.367188 0,0 -0.700799,1.638153 -2.550781,2.185547 0.437016,0.547395 0.976563,1.181641 0.976563,1.181641 C 22.776009,21.498825 25,19.423843 25,19.423843 25,14.828589 24.000022,11.638754 21.902344,10.097671 19.804665,8.5565848 17.824219,8.5996249 17.824219,8.5996249 l -0.146485,0.171875 c 2.622073,0.7346925 3.816407,2.3730461 3.816407,2.3730461 0,0 -0.320389,-0.171846 -0.859375,-0.402343 C 18.999968,9.957435 17.000043,9.5995934 15.5,9.5996244 c -1.500043,-3.1e-5 -2.499966,0.3578106 -4.134765,1.1425786 -0.538986,0.230497 -0.859375,0.402343 -0.859375,0.402343 0,0 1.194332,-1.6383536 3.816406,-2.3730461 z M 13.5,14.599624 c 0.838151,0 1.5146,0.668208 1.5,1.5 0,0.831792 -0.661849,1.5 -1.5,1.5 -0.823442,0 -1.5,-0.668208 -1.5,-1.5 0,-0.831792 0.661868,-1.5 1.5,-1.5 z m 5,0 c 0.838132,0 1.5,0.668208 1.5,1.5 0,0.831792 -0.676558,1.5 -1.5,1.5 -0.838151,0 -1.5,-0.668208 -1.5,-1.5 -0.0146,-0.831792 0.661849,-1.5 1.5,-1.5 z"
     style="opacity:0.5;filter:url(#filter60660)" />
  <path
     id="path14"
     d="m 14.175781,8.0000005 c 0,0 -1.980445,-0.04304 -4.078124,1.4980465 -2.0976783,1.541083 -3.0976572,4.730918 -3.0976572,9.326172 0,0 2.223992,2.074982 5.4433602,2.175781 0,0 0.539546,-0.634246 0.976562,-1.181641 C 11.56994,19.270965 10.869141,17.632812 10.869141,17.632812 12.573666,18.585677 13.732467,18.983424 15.5,19 c 1.767533,-0.01658 3.926335,-0.414323 5.630859,-1.367188 0,0 -0.700799,1.638153 -2.550781,2.185547 C 19.017094,20.365754 19.556641,21 19.556641,21 22.776009,20.899201 25,18.824219 25,18.824219 25,14.228965 24.000022,11.03913 21.902344,9.498047 19.804665,7.9569604 17.824219,8.0000005 17.824219,8.0000005 l -0.146485,0.171875 c 2.622073,0.7346925 3.816407,2.3730465 3.816407,2.3730465 0,0 -0.320389,-0.171846 -0.859375,-0.402343 C 18.999968,9.357811 17.000043,8.999969 15.5,9 c -1.500043,-3.1e-5 -2.499966,0.357811 -4.134765,1.142579 -0.538986,0.230497 -0.859375,0.402343 -0.859375,0.402343 0,0 1.194332,-1.638354 3.816406,-2.3730465 z M 13.5,14 c 0.838151,0 1.5146,0.668208 1.5,1.5 C 15,16.331792 14.338151,17 13.5,17 12.676558,17 12,16.331792 12,15.5 12,14.668208 12.661868,14 13.5,14 Z m 5,0 C 19.338132,14 20,14.668208 20,15.5 20,16.331792 19.323442,17 18.5,17 17.661849,17 17,16.331792 17,15.5 16.9854,14.668208 17.661849,14 18.5,14 Z"
     style="fill:#ffffff" />
</svg>
