<?xml version="1.0" encoding="UTF-8" standalone="no"?>
<svg
   xmlns:dc="http://purl.org/dc/elements/1.1/"
   xmlns:cc="http://creativecommons.org/ns#"
   xmlns:rdf="http://www.w3.org/1999/02/22-rdf-syntax-ns#"
   xmlns:svg="http://www.w3.org/2000/svg"
   xmlns="http://www.w3.org/2000/svg"
   xmlns:sodipodi="http://sodipodi.sourceforge.net/DTD/sodipodi-0.dtd"
   xmlns:inkscape="http://www.inkscape.org/namespaces/inkscape"
   inkscape:version="1.0.1 (3bc2e813f5, 2020-09-07)"
   sodipodi:docname="distributor-logo-linux-lite.svg"
   id="svg86"
   version="1"
   height="32"
   width="32">
  <metadata
     id="metadata92">
    <rdf:RDF>
      <cc:Work
         rdf:about="">
        <dc:format>image/svg+xml</dc:format>
        <dc:type
           rdf:resource="http://purl.org/dc/dcmitype/StillImage" />
      </cc:Work>
    </rdf:RDF>
  </metadata>
  <defs
     id="defs90">
    <filter
       inkscape:collect="always"
       style="color-interpolation-filters:sRGB"
       id="filter59650"
       x="-0.075"
       width="1.15"
       y="-0.075"
       height="1.15">
      <feGaussianBlur
         inkscape:collect="always"
         stdDeviation="0.875"
         id="feGaussianBlur59652" />
    </filter>
    <filter
       inkscape:collect="always"
       style="color-interpolation-filters:sRGB"
       id="filter59654"
       x="-0.11967746"
       width="1.2393549"
       y="-0.054612357"
       height="1.1092247">
      <feGaussianBlur
         inkscape:collect="always"
         stdDeviation="0.50567915"
         id="feGaussianBlur59656" />
    </filter>
    <filter
       inkscape:collect="always"
       style="color-interpolation-filters:sRGB"
       id="filter59658"
       x="-0.16167376"
       width="1.3233475"
       y="-0.048824856"
       height="1.0976497">
      <feGaussianBlur
         inkscape:collect="always"
         stdDeviation="0.42737311"
         id="feGaussianBlur59660" />
    </filter>
  </defs>
  <sodipodi:namedview
     inkscape:current-layer="svg86"
     inkscape:window-maximized="1"
     inkscape:window-y="0"
     inkscape:window-x="0"
     inkscape:cy="16"
     inkscape:cx="14.950131"
     inkscape:zoom="23.8125"
     showgrid="false"
     id="namedview88"
     inkscape:window-height="1000"
     inkscape:window-width="1920"
     inkscape:pageshadow="2"
     inkscape:pageopacity="0"
     guidetolerance="10"
     gridtolerance="10"
     objecttolerance="10"
     borderopacity="1"
     bordercolor="#666666"
     pagecolor="#ffffff"
     inkscape:document-rotation="0" />
  <rect
     id="rect70"
     ry="1.4"
     rx="1.4"
     y="2"
     x="2"
     height="28"
     width="28"
     style="opacity:0.5;filter:url(#filter59650)" />
  <rect
     id="rect72"
     ry="1.4"
     rx="1.4"
     y="2"
     x="2"
     height="28"
     width="28"
     style="fill:#636e72" />
  <path
     id="path74"
     d="m 18.440292,4.9999997 c -1.738253,1.0509085 -3.523788,2.0288941 -5.223589,3.1401556 -0.623637,2.9797267 -1.2279,5.9638237 -1.811972,8.9515467 0.655495,0.832197 1.374437,1.612322 2.05334,2.425351 -0.663155,-0.211596 -1.496213,-0.688701 -2.228071,-0.984029 0.576127,2.127861 1.178763,4.249426 1.807191,6.362434 0.840253,-0.07227 1.674116,-0.206571 2.514098,-0.281596 -0.602993,0.621219 -1.254051,1.194098 -1.860623,1.811796 1.060396,-0.441234 2.103334,-0.923339 3.160159,-1.373061 0.203045,0.332637 -0.399029,1.523779 -0.480148,2.169988 0.463261,-0.750255 0.904533,-1.514316 1.344766,-2.278345 l 0.405658,-0.190787 c 0,0 -0.118792,-0.119037 0,0 0.921319,0.145327 1.840601,0.32076 2.761169,0.459574 -0.828434,-0.406669 -1.670649,-0.78471 -2.499095,-1.191355 0.828464,-0.34344 1.711184,-0.604056 2.557441,-0.924148 -0.832278,-0.0078 -1.664603,0.01499 -2.496901,0.0055 0.134455,-0.296898 1.139192,-0.820669 1.57442,-1.226363 C 19.410224,21.17056 18.725266,20.534323 18.112941,19.832052 19.171969,16.363973 20.283273,12.91196 21.37084,9.4526934 20.395518,7.9675246 19.442707,6.4669055 18.440292,4.9999594 Z"
     style="opacity:0.5;filter:url(#filter59654)" />
  <path
     id="path76"
     d="m 18.440292,3.9999997 c -1.738253,1.0509085 -3.523788,2.0288941 -5.223589,3.1401556 -0.623637,2.9797267 -1.2279,5.9638237 -1.811972,8.9515467 0.655495,0.832197 1.374437,1.612322 2.05334,2.425351 -0.663155,-0.211596 -1.496213,-0.688701 -2.228071,-0.984029 0.576127,2.127861 1.178763,4.249426 1.807191,6.362434 0.840253,-0.07227 1.674116,-0.206571 2.514098,-0.281596 -0.602993,0.621219 -1.254051,1.194098 -1.860623,1.811796 1.060396,-0.441234 2.103334,-0.923339 3.160159,-1.373061 0.203045,0.332637 -0.399029,1.523779 -0.480148,2.169988 0.463261,-0.750255 0.904533,-1.514316 1.344766,-2.278345 l 0.405658,-0.190787 c 0,0 -0.118792,-0.119037 0,0 0.921319,0.145327 1.840601,0.32076 2.761169,0.459574 -0.828434,-0.406669 -1.670649,-0.78471 -2.499095,-1.191355 0.828464,-0.34344 1.711184,-0.604056 2.557441,-0.924148 -0.832278,-0.0078 -1.664603,0.01499 -2.496901,0.0055 0.134455,-0.296898 1.139192,-0.820669 1.57442,-1.226363 C 19.410224,20.17056 18.725266,19.534323 18.112941,18.832052 19.171969,15.363973 20.283273,11.91196 21.37084,8.4526934 20.395518,6.9675246 19.442707,5.4669055 18.440292,3.9999594 Z"
     style="fill:#ffe082" />
  <path
     id="path78"
     d="m 17.596791,7.1324066 c -1.464537,3.9371024 -2.38957,8.6952714 -2.614382,13.0937614 -0.05297,0.612886 -0.03803,0.488701 0.361815,0.969925 1.984534,2.388814 3.96485,4.91619 5.96037,6.943963 L 21.303942,28 c -1.907594,-2.615599 -3.815188,-4.820783 -5.722782,-7.146586 -0.166883,-0.200328 -0.212369,-0.203159 -0.198451,-0.44588 0.253204,-4.408722 1.244972,-9.290226 2.214082,-13.2751274 z"
     style="opacity:0.5;filter:url(#filter59658)" />
  <path
     id="path80"
     d="m 17.596139,6.9923506 c -1.464537,3.9371024 -2.38957,8.6952714 -2.614382,13.0937614 -0.05297,0.612886 -0.03803,0.488701 0.361815,0.969925 1.984534,2.388814 3.96485,4.91619 5.96037,6.943963 l -6.52e-4,-0.140056 c -1.907594,-2.615599 -3.815188,-4.820783 -5.722782,-7.146586 -0.166883,-0.200328 -0.212369,-0.203159 -0.198451,-0.44588 0.253204,-4.408722 1.244972,-9.290226 2.214082,-13.2751274 z"
     style="fill:#ffffff" />
  <path
     id="path84"
     d="M 18.439453 4 C 16.7012 5.0509085 14.916598 6.0293635 13.216797 7.140625 C 12.59316 10.120352 11.988369 13.104074 11.404297 16.091797 C 11.456644 16.158255 11.513303 16.221272 11.566406 16.287109 C 12.101279 13.56852 12.649212 10.852536 13.216797 8.140625 C 14.916598 7.0293635 16.7012 6.0509085 18.439453 5 C 19.369249 6.3606747 20.256212 7.7514448 21.158203 9.1308594 C 21.229406 8.9050123 21.300072 8.6790274 21.371094 8.453125 C 20.395772 6.9679562 19.441868 5.4669461 18.439453 4 z M 11.230469 17.533203 C 11.334643 17.91796 11.450737 18.299262 11.556641 18.683594 C 12.203702 18.973364 12.89086 19.336304 13.458984 19.517578 C 13.015267 18.986199 12.558407 18.464493 12.109375 17.9375 C 11.812328 17.795067 11.512951 17.647194 11.230469 17.533203 z M 18.347656 19.083984 C 18.270826 19.333743 18.189597 19.582115 18.113281 19.832031 C 18.549956 20.33285 19.01639 20.806122 19.472656 21.289062 C 19.680462 21.146938 19.878862 21.006256 20.017578 20.876953 C 19.484533 20.25781 18.898268 19.687315 18.347656 19.083984 z M 20.941406 22.097656 C 20.537957 22.093875 20.133932 22.096176 19.730469 22.099609 C 19.334023 22.392763 18.838989 22.702541 18.591797 22.943359 C 19.359726 22.639801 20.164778 22.391412 20.941406 22.097656 z M 18.478516 23.066406 C 18.471491 23.077661 18.448197 23.092833 18.443359 23.103516 C 18.480451 23.103939 18.517595 23.103215 18.554688 23.103516 C 18.529288 23.091187 18.503892 23.078783 18.478516 23.066406 z M 19.564453 23.583984 C 19.306345 23.673252 19.054247 23.77105 18.800781 23.867188 C 19.494733 23.98487 20.188823 24.108243 20.882812 24.212891 C 20.445862 23.998397 20.005028 23.790948 19.564453 23.583984 z M 15.550781 24.613281 C 15.163775 24.647848 14.77821 24.69432 14.392578 24.742188 C 14.156133 24.967386 13.920161 25.19283 13.691406 25.425781 C 14.312727 25.167248 14.92733 24.892955 15.542969 24.621094 C 15.545536 24.618452 15.548216 24.615924 15.550781 24.613281 z M 16.851562 25.052734 C 16.794689 25.076936 16.738438 25.102575 16.681641 25.126953 C 16.553341 25.516663 16.408242 25.926725 16.371094 26.222656 C 16.546626 25.93838 16.710501 25.646863 16.880859 25.359375 C 16.895396 25.23137 16.893127 25.120827 16.851562 25.052734 z"
     style="fill:#ffffff;opacity:0.2" />
</svg>
