<?xml version="1.0" encoding="UTF-8" standalone="no"?>
<svg
   xmlns:dc="http://purl.org/dc/elements/1.1/"
   xmlns:cc="http://creativecommons.org/ns#"
   xmlns:rdf="http://www.w3.org/1999/02/22-rdf-syntax-ns#"
   xmlns:svg="http://www.w3.org/2000/svg"
   xmlns="http://www.w3.org/2000/svg"
   xmlns:sodipodi="http://sodipodi.sourceforge.net/DTD/sodipodi-0.dtd"
   xmlns:inkscape="http://www.inkscape.org/namespaces/inkscape"
   inkscape:version="1.0 (4035a4fb49, 2020-05-01)"
   sodipodi:docname="fbreader.svg"
   id="svg22"
   version="1"
   height="32"
   width="32">
  <metadata
     id="metadata28">
    <rdf:RDF>
      <cc:Work
         rdf:about="">
        <dc:format>image/svg+xml</dc:format>
        <dc:type
           rdf:resource="http://purl.org/dc/dcmitype/StillImage" />
      </cc:Work>
    </rdf:RDF>
  </metadata>
  <defs
     id="defs26">
    <filter
       height="1.252"
       y="-0.126"
       width="1.189"
       x="-0.0945"
       id="filter853"
       style="color-interpolation-filters:sRGB"
       inkscape:collect="always">
      <feGaussianBlur
         id="feGaussianBlur855"
         stdDeviation="1.1025"
         inkscape:collect="always" />
    </filter>
    <filter
       height="1.1472727"
       y="-0.073636364"
       width="1.405"
       x="-0.2025"
       id="filter857"
       style="color-interpolation-filters:sRGB"
       inkscape:collect="always">
      <feGaussianBlur
         id="feGaussianBlur859"
         stdDeviation="0.3375"
         inkscape:collect="always" />
    </filter>
  </defs>
  <sodipodi:namedview
     inkscape:current-layer="svg22"
     inkscape:window-maximized="1"
     inkscape:window-y="0"
     inkscape:window-x="0"
     inkscape:cy="16"
     inkscape:cx="16"
     inkscape:zoom="23.8125"
     showgrid="false"
     id="namedview24"
     inkscape:window-height="1001"
     inkscape:window-width="1920"
     inkscape:pageshadow="2"
     inkscape:pageopacity="0"
     guidetolerance="10"
     gridtolerance="10"
     objecttolerance="10"
     borderopacity="1"
     bordercolor="#666666"
     pagecolor="#ffffff" />
  <rect
     id="rect2"
     ry="2.0999999"
     rx="2.0999999"
     y="6"
     x="2"
     height="21"
     width="28"
     style="opacity:0.5;filter:url(#filter853)" />
  <rect
     id="rect4"
     ry="2.1"
     rx="2.1"
     y="6"
     x="2"
     height="21"
     width="28"
     style="fill:#dc4a3d" />
  <path
     id="path8"
     d="M 16,6 V 8.1 24.9 27 h 1.411765 6.352941 2.117647 C 27.055529,27 28,26.0634 28,24.9 V 8.1 C 28,6.9366 27.055529,6 25.882353,6 h -2.117647 -6.352941 z"
     style="fill:#e4e4e4" />
  <path
     id="path10"
     d="m 18,9 v 1 h 8 V 9 Z m 0,3 v 1 h 8 v -1 z m 0,3.001 v 1 h 8 v -1 z M 18,18 v 1 h 8 v -1 z m 0,3 v 1 h 8 v -1 z m 0,3 v 1 h 8 v -1 z"
     style="opacity:0.2" />
  <path
     id="path12"
     d="M 16,6.6875 C 16,6.6875 16,6 18,6 c 2,0 2,0.6875 2,0.6875 V 17 L 18,15.96875 16,17 Z"
     style="opacity:0.5;filter:url(#filter857)" />
  <path
     id="path14"
     d="M 16,5.6875 C 16,5.6875 16,5 18,5 c 2,0 2,0.6875 2,0.6875 V 16 L 18,14.96875 16,16 Z"
     style="fill:#dc4a3d" />
  <path
     id="path16"
     d="M 16,6 V 8.1 24.9 27 H 14.588235 8.2352941 6.1176471 C 4.9444706,27 4,26.0634 4,24.9 V 8.1 C 4,6.9366 4.9444706,6 6.1176471,6 h 2.117647 6.3529409 z"
     style="fill:#ffffff" />
  <path
     id="path18"
     d="m 6,9 v 1 h 8 V 9 Z m 0,3 v 1 h 8 v -1 z m 0,3.001 v 1 h 8 v -1 z M 6,18 v 1 h 8 v -1 z m 0,3 v 1 h 8 v -1 z m 0,3 v 1 h 8 v -1 z"
     style="opacity:0.2" />
</svg>
