<?xml version="1.0" encoding="UTF-8" standalone="no"?>
<svg
   xmlns:dc="http://purl.org/dc/elements/1.1/"
   xmlns:cc="http://creativecommons.org/ns#"
   xmlns:rdf="http://www.w3.org/1999/02/22-rdf-syntax-ns#"
   xmlns:svg="http://www.w3.org/2000/svg"
   xmlns="http://www.w3.org/2000/svg"
   xmlns:xlink="http://www.w3.org/1999/xlink"
   xmlns:sodipodi="http://sodipodi.sourceforge.net/DTD/sodipodi-0.dtd"
   xmlns:inkscape="http://www.inkscape.org/namespaces/inkscape"
   inkscape:version="1.0 (4035a4fb49, 2020-05-01)"
   sodipodi:docname="gimp.svg"
   id="svg28"
   version="1.1"
   height="32"
   width="32">
  <metadata
     id="metadata34">
    <rdf:RDF>
      <cc:Work
         rdf:about="">
        <dc:format>image/svg+xml</dc:format>
        <dc:type
           rdf:resource="http://purl.org/dc/dcmitype/StillImage" />
        <dc:title></dc:title>
      </cc:Work>
    </rdf:RDF>
  </metadata>
  <defs
     id="defs32">
    <linearGradient
       id="linearGradient865"
       inkscape:collect="always">
      <stop
         id="stop861"
         offset="0"
         style="stop-color:#ffffff;stop-opacity:1" />
      <stop
         id="stop863"
         offset="1"
         style="stop-color:#e5e5e5;stop-opacity:1" />
    </linearGradient>
    <linearGradient
       gradientUnits="userSpaceOnUse"
       y2="30"
       x2="16"
       y1="2"
       x1="16"
       id="linearGradient867"
       xlink:href="#linearGradient865"
       inkscape:collect="always" />
    <filter
       height="1.216"
       y="-0.108"
       width="1.216"
       x="-0.108"
       id="filter893"
       style="color-interpolation-filters:sRGB"
       inkscape:collect="always">
      <feGaussianBlur
         id="feGaussianBlur895"
         stdDeviation="1.26"
         inkscape:collect="always" />
    </filter>
  </defs>
  <sodipodi:namedview
     inkscape:current-layer="svg28"
     inkscape:window-maximized="1"
     inkscape:window-y="27"
     inkscape:window-x="53"
     inkscape:cy="16"
     inkscape:cx="16"
     inkscape:zoom="23.8125"
     showgrid="false"
     id="namedview30"
     inkscape:window-height="1019"
     inkscape:window-width="1867"
     inkscape:pageshadow="2"
     inkscape:pageopacity="0"
     guidetolerance="10"
     gridtolerance="10"
     objecttolerance="10"
     borderopacity="1"
     bordercolor="#666666"
     pagecolor="#ffffff" />
  <rect
     style="opacity:0.5;fill:#000000;fill-opacity:1;stroke-width:0.970196;filter:url(#filter893)"
     id="rect859-5"
     width="28"
     height="28"
     x="2"
     y="2"
     rx="3.6311724"
     ry="3.6311724" />
  <rect
     ry="3.0231366"
     rx="3.0231366"
     y="2"
     x="2"
     height="28"
     width="28"
     id="rect859"
     style="opacity:1;fill:url(#linearGradient867);fill-opacity:1;stroke-width:0.970196" />
  <path
     id="path4"
     d="m 25.335898,8.0100693 c -0.165557,-0.026316 -0.314293,0.067105 -0.403709,0.1734728 -0.08941,0.1064208 -0.151457,0.2382623 -0.205487,0.4044183 -0.09344,0.287527 -0.436593,1.354784 -1.673991,2.4096216 -1.237397,1.05489 -3.371242,2.235068 -7.069575,2.330225 -2.248832,0.02631 -3.799757,-1.273134 -4.696492,-3.047599 C 11.06285,9.8373674 10.666643,9.0121084 10.666643,9.5372114 v 0.8118906 l -0.01137,4.535106 0.02284,0.05531 c 0,0 0.201463,0.447524 -0.01137,1.050469 -0.212878,0.602996 -0.9822484,1.482932 -2.858349,2.046034 l -0.229357,0.06816 0.043587,0.241525 c 0.104062,0.585102 0.5188586,1.184784 1.1312146,1.798729 0.612356,0.613891 1.4322484,1.234994 2.3869684,1.796517 1.909442,1.123048 4.355082,2.010518 6.731249,2.051992 2.376168,0.04157 4.701033,-0.789365 6.239327,-3.090776 1.538294,-2.301358 2.288513,-6.49371 1.67399,-12.2141586 h -0.0011 c -0.01951,-0.157046 -0.05415,-0.2911499 -0.1162,-0.4086757 -0.06205,-0.1174732 -0.166543,-0.2387884 -0.3321,-0.2649988 z"
     style="fill:#6c5a42;fill-rule:evenodd;stroke-width:0.666663" />
  <path
     id="path12"
     d="m 12.666136,12.661144 c -0.659703,0 -1.32272,0.218079 -1.82749,0.666771 -0.504771,0.44869 -0.8386704,1.132474 -0.8386704,2.000363 0,0.86789 0.3338994,1.550713 0.8386704,1.999405 0.50477,0.448692 1.167787,0.666771 1.82749,0.666771 0.659703,0 1.322721,-0.218079 1.827492,-0.666771 0.504771,-0.448692 0.839657,-1.131515 0.839657,-1.999405 0,-0.867889 -0.334886,-1.551673 -0.839657,-2.000363 -0.504771,-0.448692 -1.167789,-0.666771 -1.827492,-0.666771 z"
     style="fill:#ffffff;fill-rule:evenodd;stroke-width:0.666663" />
  <path
     id="path14"
     d="m 13.333294,14.661135 c -0.326713,0 -0.657003,0.108 -0.911454,0.334185 -0.254449,0.226186 -0.421873,0.574558 -0.421873,0.999143 0,0.424585 0.167424,0.772956 0.421873,0.999143 0.254451,0.226185 0.584741,0.334183 0.911454,0.334183 0.326715,0 0.657005,-0.107999 0.911456,-0.334183 0.25445,-0.226187 0.421872,-0.574558 0.421872,-0.999143 0,-0.424585 -0.167422,-0.772957 -0.421872,-0.999143 -0.254451,-0.226185 -0.584741,-0.334185 -0.911456,-0.334185 z"
     style="fill:#3f3f3f;fill-rule:evenodd;stroke-width:0.666663" />
  <path
     id="path16"
     d="m 13.999957,20.660575 c 0.962479,0 1.839946,0.05725 2.635841,0 1.32215,-0.09686 2.484334,-9.34e-4 3.071906,-0.537201 -0.248539,-0.379405 -0.374437,-0.795594 -0.374437,-0.795594 0,0 0.804189,0.36224 1.192539,0.954723 0.387241,0.590831 -0.424531,0.95483 -0.525875,1.71076 -0.225612,-0.663918 -0.07841,-0.912927 -0.13542,-1.176757 -0.410042,0.669997 -1.116314,1.150528 -2.066256,1.176757 -1.011148,0.02771 -2.298376,-0.705661 -3.798298,-1.331623 z"
     style="opacity:0.3;fill-rule:evenodd;stroke-width:0.666663" />
  <path
     id="path20"
     d="m 7.9884149,14.661138 c -0.1183257,0 -0.2343618,0.0075 -0.3471544,0.026 -0.30078,0.049 -0.5792654,0.166399 -0.8193588,0.344498 -0.9603734,0.712447 -1.2132972,2.327089 -0.027064,4.017882 1.1862345,1.690842 2.7556709,1.953242 3.7160453,1.240794 0.960374,-0.712447 1.214231,-2.327089 0.028,-4.017882 C 9.7604126,15.162835 8.8166946,14.668688 7.9884143,14.661238 Z"
     style="fill:#3f3f3f;fill-rule:evenodd;stroke-width:0.666663" />
  <path
     id="path22"
     d="m 17.332782,12.661144 c -0.659703,0 -1.32272,0.218079 -1.82749,0.666771 -0.50477,0.44869 -0.83867,1.132474 -0.83867,2.000363 0,0.86789 0.3339,1.550713 0.83867,1.999405 0.50477,0.448692 1.167787,0.666771 1.82749,0.666771 0.659703,0 1.32272,-0.218079 1.827491,-0.666771 0.504771,-0.448692 0.839658,-1.131515 0.839658,-1.999405 0,-0.867889 -0.334887,-1.551673 -0.839658,-2.000363 -0.504771,-0.448692 -1.167788,-0.666771 -1.827491,-0.666771 z"
     style="fill:#ffffff;fill-rule:evenodd;stroke-width:0.666663" />
  <path
     id="path24"
     d="m 17.99994,14.661135 c -0.326713,0 -0.657003,0.108 -0.911454,0.334185 -0.25445,0.226186 -0.421873,0.574558 -0.421873,0.999143 0,0.424585 0.167423,0.772956 0.421873,0.999143 0.254451,0.226185 0.584741,0.334183 0.911454,0.334183 0.326714,0 0.657004,-0.107999 0.911455,-0.334183 0.254451,-0.226187 0.421873,-0.574558 0.421873,-0.999143 0,-0.424585 -0.167422,-0.772957 -0.421873,-0.999143 -0.254451,-0.226185 -0.584741,-0.334185 -0.911455,-0.334185 z"
     style="fill:#3f3f3f;fill-rule:evenodd;stroke-width:0.666663" />
</svg>
