<?xml version="1.0" encoding="UTF-8" standalone="no"?>
<svg
   xmlns:dc="http://purl.org/dc/elements/1.1/"
   xmlns:cc="http://creativecommons.org/ns#"
   xmlns:rdf="http://www.w3.org/1999/02/22-rdf-syntax-ns#"
   xmlns:svg="http://www.w3.org/2000/svg"
   xmlns="http://www.w3.org/2000/svg"
   xmlns:xlink="http://www.w3.org/1999/xlink"
   xmlns:sodipodi="http://sodipodi.sourceforge.net/DTD/sodipodi-0.dtd"
   xmlns:inkscape="http://www.inkscape.org/namespaces/inkscape"
   id="svg4569"
   height="32"
   width="32"
   version="1.0"
   sodipodi:docname="jockey.svg"
   inkscape:version="0.92.5 (2060ec1f9f, 2020-04-08)">
  <sodipodi:namedview
     pagecolor="#ffffff"
     bordercolor="#666666"
     borderopacity="1"
     objecttolerance="10"
     gridtolerance="10"
     guidetolerance="10"
     inkscape:pageopacity="0"
     inkscape:pageshadow="2"
     inkscape:window-width="1920"
     inkscape:window-height="1023"
     id="namedview45"
     showgrid="false"
     inkscape:zoom="10.82698"
     inkscape:cx="8.9503655"
     inkscape:cy="15.717144"
     inkscape:window-x="0"
     inkscape:window-y="25"
     inkscape:window-maximized="1"
     inkscape:current-layer="svg4569"
     inkscape:document-rotation="0" />
  <metadata
     id="metadata46">
    <rdf:RDF>
      <cc:Work
         rdf:about="">
        <dc:format>image/svg+xml</dc:format>
        <dc:type
           rdf:resource="http://purl.org/dc/dcmitype/StillImage" />
        <dc:title />
      </cc:Work>
    </rdf:RDF>
  </metadata>
  <defs
     id="defs4571">
    <linearGradient
       id="linearGradient3912">
      <stop
         offset="0"
         style="stop-color:#787878;stop-opacity:1"
         id="stop3914" />
      <stop
         offset="0.35046947"
         style="stop-color:#b4b4b4;stop-opacity:1"
         id="stop3916" />
      <stop
         offset="0.49417919"
         style="stop-color:#c8c8c8;stop-opacity:1"
         id="stop3918" />
      <stop
         offset="0.58907253"
         style="stop-color:#e6e6e6;stop-opacity:1"
         id="stop3920" />
      <stop
         offset="1"
         style="stop-color:#8c8c8c;stop-opacity:1"
         id="stop3922" />
    </linearGradient>
    <linearGradient
       id="linearGradient6592-2-7">
      <stop
         offset="0"
         style="stop-color:#ffffff;stop-opacity:0.27450982"
         id="stop6594-0-2" />
      <stop
         offset="1"
         style="stop-color:#ffffff;stop-opacity:0"
         id="stop6596-2-5" />
    </linearGradient>
    <linearGradient
       id="linearGradient10691-1">
      <stop
         offset="0"
         style="stop-color:#000000;stop-opacity:1"
         id="stop10693-3" />
      <stop
         offset="1"
         style="stop-color:#000000;stop-opacity:0"
         id="stop10695-1" />
    </linearGradient>
    <linearGradient
       gradientTransform="matrix(0.5959409,0,0,0.56726725,-197.43503,-25.182382)"
       gradientUnits="userSpaceOnUse"
       xlink:href="#linearGradient3912"
       id="linearGradient3221"
       y2="94.396416"
       x2="361.10583"
       y1="87.050117"
       x1="361.10583" />
    <radialGradient
       gradientTransform="matrix(19.609558,0,0,4.1283273,124.56278,120.73303)"
       gradientUnits="userSpaceOnUse"
       xlink:href="#linearGradient10691-1"
       id="radialGradient3226"
       fy="73.615715"
       fx="6.702713"
       r="7.228416"
       cy="73.615715"
       cx="6.702713" />
    <linearGradient
       id="linearGradient4084">
      <stop
         offset="0"
         style="stop-color:#ffffff;stop-opacity:1"
         id="stop4086" />
      <stop
         offset="0.01596775"
         style="stop-color:#ffffff;stop-opacity:0.23529412"
         id="stop4088" />
      <stop
         offset="0.99257565"
         style="stop-color:#ffffff;stop-opacity:0.15686275"
         id="stop4090" />
      <stop
         offset="1"
         style="stop-color:#ffffff;stop-opacity:0.39215687"
         id="stop4092" />
    </linearGradient>
    <linearGradient
       id="outerBackgroundGradient-5-0">
      <stop
         id="stop3864-8-6-4"
         offset="0"
         style="stop-color:#0036cb;stop-opacity:1" />
      <stop
         id="stop3866-9-1-86"
         offset="1"
         style="stop-color:#0fdb00;stop-opacity:1" />
    </linearGradient>
    <linearGradient
       xlink:href="#linearGradient6592-2-7"
       id="linearGradient3141"
       gradientUnits="userSpaceOnUse"
       gradientTransform="matrix(11.563494,0,0,11.697807,13.166596,124.82849)"
       x1="10"
       y1="-3"
       x2="20"
       y2="12" />
    <linearGradient
       xlink:href="#linearGradient4084"
       id="linearGradient3144"
       gradientUnits="userSpaceOnUse"
       gradientTransform="matrix(12.400257,0,0,8.6700979,-41.606263,-14.574369)"
       x1="23.99999"
       y1="5.7531762"
       x2="23.99999"
       y2="42.121033" />
    <linearGradient
       xlink:href="#outerBackgroundGradient-5-0"
       id="linearGradient3148"
       gradientUnits="userSpaceOnUse"
       gradientTransform="matrix(10.664852,0,0,13.003648,32.03815,146.26633)"
       x1="-2.5488214"
       y1="28.788479"
       x2="44.631618"
       y2="-12.349135" />
    <linearGradient
       id="linearGradient4054-5">
      <stop
         offset="0"
         style="stop-color:#ffffff;stop-opacity:1"
         id="stop4056-0" />
      <stop
         offset="0.01719457"
         style="stop-color:#ffffff;stop-opacity:0.23529412"
         id="stop4058-4" />
      <stop
         offset="1"
         style="stop-color:#ffffff;stop-opacity:0.15686275"
         id="stop4060-4" />
      <stop
         offset="1"
         style="stop-color:#ffffff;stop-opacity:0.39215687"
         id="stop4062-0" />
    </linearGradient>
    <linearGradient
       xlink:href="#linearGradient4054-5"
       id="linearGradient3152-7"
       gradientUnits="userSpaceOnUse"
       gradientTransform="matrix(4.5366797,0,0,3.1252681,27.212142,49.812456)"
       x1="47.546879"
       y1="121.84093"
       x2="47.546879"
       y2="99.079079" />
    <linearGradient
       xlink:href="#linearGradient10691-1"
       id="linearGradient3148-3"
       gradientUnits="userSpaceOnUse"
       gradientTransform="matrix(10.664852,0,0,12.508438,41.430903,566.40042)"
       x1="15"
       y1="24.618645"
       x2="15"
       y2="2" />
    <clipPath
       id="clip1">
      <rect
         width="384"
         height="384"
         x="0"
         y="0"
         id="rect10" />
    </clipPath>
    <mask
       id="mask0">
      <g
         id="g7"
         style="filter:url(#alpha)">
        <rect
           width="384"
           height="384"
           x="0"
           y="0"
           style="fill:#000000;fill-opacity:0.2"
           id="rect5" />
      </g>
    </mask>
    <filter
       id="alpha"
       width="1"
       height="1"
       x="0"
       y="0"
       filterUnits="objectBoundingBox">
      <feColorMatrix
         in="SourceGraphic"
         type="matrix"
         values="0 0 0 0 1 0 0 0 0 1 0 0 0 0 1 0 0 0 1 0"
         id="feColorMatrix2" />
    </filter>
    <clipPath
       id="clipPath873">
      <rect
         width="384"
         height="384"
         x="0"
         y="0"
         id="rect871" />
    </clipPath>
    <clipPath
       id="clip1-4">
      <rect
         width="384"
         height="384"
         x="0"
         y="0"
         id="rect10-0" />
    </clipPath>
    <clipPath
       id="clip1-48">
      <rect
         width="384"
         height="384"
         x="0"
         y="0"
         id="rect10-8" />
    </clipPath>
    <filter
       height="1.234"
       y="-0.117"
       width="1.2005714"
       x="-0.10028571"
       id="filter1075"
       style="color-interpolation-filters:sRGB"
       inkscape:collect="always">
      <feGaussianBlur
         id="feGaussianBlur1077"
         stdDeviation="1.17"
         inkscape:collect="always" />
    </filter>
    <linearGradient
       gradientTransform="matrix(0.42857142,0,0,0.42857142,9.1428536,7.1428568)"
       gradientUnits="userSpaceOnUse"
       y2="1.9356713"
       x2="15.879423"
       y1="30"
       x1="15.291743"
       id="linearGradient968"
       xlink:href="#linearGradient966"
       inkscape:collect="always" />
    <linearGradient
       id="linearGradient966"
       inkscape:collect="always">
      <stop
         id="stop962"
         offset="0"
         style="stop-color:#cccccc;stop-opacity:1" />
      <stop
         id="stop964"
         offset="1"
         style="stop-color:#e5e5e5;stop-opacity:0.99718523" />
    </linearGradient>
    <linearGradient
       gradientTransform="matrix(0.32142857,0,0,0.32142857,10.857139,-19.142857)"
       gradientUnits="userSpaceOnUse"
       y2="8.7173433"
       x2="16.300804"
       y1="23.890873"
       x1="16.725367"
       id="linearGradient851"
       xlink:href="#linearGradient849"
       inkscape:collect="always" />
    <linearGradient
       id="linearGradient849"
       inkscape:collect="always">
      <stop
         id="stop845"
         offset="0"
         style="stop-color:#00e3d8;stop-opacity:1" />
      <stop
         id="stop847"
         offset="1"
         style="stop-color:#004af5;stop-opacity:1" />
    </linearGradient>
    <filter
       height="1.216"
       y="-0.108"
       width="1.216"
       x="-0.108"
       id="filter866"
       style="color-interpolation-filters:sRGB"
       inkscape:collect="always">
      <feGaussianBlur
         id="feGaussianBlur868"
         stdDeviation="0.63"
         inkscape:collect="always" />
    </filter>
  </defs>
  <path
     d="M 2,4.0000004 V 24 h 10.117188 c 0,0 0.09504,2.065713 -0.351563,2.546875 -0.4466,0.481166 -1.335937,0.787109 -1.335937,0.787109 C 9.859444,27.384534 9.854727,28 10.429688,28 h 11.140625 c 0.574963,0 0.570365,-0.616113 0,-0.666016 0,0 -0.887392,-0.305945 -1.333984,-0.787109 C 19.789736,26.065715 19.882813,24 19.882813,24 H 30 V 4.0000004 Z"
     style="opacity:0.5;fill:#000000;fill-opacity:1;stroke:none;stroke-width:0.98559;filter:url(#filter1075)"
     id="rect1015-9" />
  <rect
     y="4"
     x="2"
     height="20"
     width="28"
     id="rect1015"
     style="opacity:1;fill:#000000;fill-opacity:1;stroke:none;stroke-width:0.98559" />
  <rect
     style="opacity:0.3;fill:#ffffff;fill-opacity:1;stroke:none;stroke-width:0.81614602"
     id="rect1015-2"
     width="24"
     height="16"
     x="4"
     y="6" />
  <path
     style="display:inline;overflow:visible;visibility:visible;fill:#d9d9d9;fill-opacity:1;fill-rule:nonzero;stroke:none;stroke-width:0.211325;stroke-linecap:round;stroke-linejoin:round;stroke-miterlimit:4;stroke-dasharray:none;stroke-dashoffset:0.5;stroke-opacity:1;marker:none;enable-background:new"
     id="rect1789"
     d="m 12.11778,24 c 0,0 0.09353,2.064325 -0.353073,2.545487 -0.4466,0.481166 -1.335253,0.787862 -1.335253,0.787862 C 9.8592092,27.383899 9.8544922,28 10.429454,28 h 11.141047 c 0.574963,0 0.570365,-0.616748 0,-0.666651 0,0 -0.888614,-0.306698 -1.335207,-0.787862 C 19.788701,26.064327 19.882221,24 19.882221,24 h -7.760455 z"
     inkscape:connector-curvature="0" />
  <path
     inkscape:connector-curvature="0"
     id="path4"
     d="m 15.696458,20 c -0.672454,0 -1.21373,-0.535116 -1.21373,-1.199916 v -0.5625 A 4.5518035,4.5000004 0 0 1 13.047166,17.41769 l -0.493196,0.28125 c -0.582362,0.3324 -1.322015,0.13628 -1.658242,-0.439453 L 10.59219,16.740513 c -0.336227,-0.575733 -0.13785,-1.306969 0.444512,-1.639369 l 0.49108,-0.280414 A 4.5518035,4.5000004 0 0 1 11.448193,14 a 4.5518035,4.5000004 0 0 1 0.07959,-0.820732 l -0.49108,-0.280412 c -0.582363,-0.3324 -0.78074,-1.063636 -0.444513,-1.639369 l 0.303538,-0.518974 c 0.336227,-0.575733 1.07588,-0.771852 1.658242,-0.439452 l 0.489808,0.279575 a 4.5518035,4.5000004 0 0 1 1.43895,-0.816964 V 9.199916 C 14.482728,8.535116 15.024004,8 15.696458,8 h 0.607076 c 0.672454,0 1.213729,0.535116 1.213729,1.199916 v 0.565849 a 4.5518035,4.5000004 0 0 1 1.435564,0.816546 l 0.493195,-0.28125 c 0.582362,-0.3324 1.322016,-0.136281 1.658243,0.439452 l 0.303537,0.518974 c 0.336226,0.575733 0.13785,1.306969 -0.444512,1.639369 l -0.49108,0.280412 A 4.5518035,4.5000004 0 0 1 20.551798,14 a 4.5518035,4.5000004 0 0 1 -0.07958,0.82073 l 0.49108,0.280414 c 0.582362,0.3324 0.780738,1.063636 0.444512,1.639369 l -0.303538,0.518974 c -0.336226,0.575733 -1.07588,0.771853 -1.658242,0.439453 l -0.48981,-0.279577 a 4.5518035,4.5000004 0 0 1 -1.438949,0.817383 v 0.563338 C 17.517267,19.464884 16.975991,20 16.303538,20 Z m 0.303538,-3.428989 c 1.436466,0 2.60103,-1.15131 2.60103,-2.57143 0,-1.420118 -1.164564,-2.571009 -2.60103,-2.571009 -1.436468,0 -2.60103,1.150891 -2.60103,2.571009 0,1.42012 1.164562,2.57143 2.60103,2.57143 z"
     style="fill:url(#linearGradient968);fill-opacity:1;stroke-width:0.2155157" />
  <circle
     transform="scale(1,-1)"
     r="2.5714285"
     cy="-14"
     cx="15.999996"
     id="path843"
     style="fill:url(#linearGradient851);fill-opacity:1;stroke-width:0.20611671" />
  <path
     inkscape:connector-curvature="0"
     id="path864"
     d="m -22.259207,-11.221829 c -3.854148,0 -7,3.1458515 -7,7.0000005 0,3.85414798 3.145852,7 7,7 3.854149,0 7,-3.14585202 7,-7 0,-3.854149 -3.145851,-7.0000005 -7,-7.0000005 z m 0,2.0000002 c 2.773269,0 5.000001,2.2267313 5,5.0000003 0,2.773268 -2.226731,4.99999998 -5,4.99999998 -2.773268,0 -5,-2.22673198 -5,-4.99999998 0,-2.773269 2.226732,-5.0000003 5,-5.0000003 z"
     style="color:#000000;font-style:normal;font-variant:normal;font-weight:normal;font-stretch:normal;font-size:medium;line-height:normal;font-family:sans-serif;font-variant-ligatures:normal;font-variant-position:normal;font-variant-caps:normal;font-variant-numeric:normal;font-variant-alternates:normal;font-feature-settings:normal;text-indent:0;text-align:start;text-decoration:none;text-decoration-line:none;text-decoration-style:solid;text-decoration-color:#000000;letter-spacing:normal;word-spacing:normal;text-transform:none;writing-mode:lr-tb;direction:ltr;text-orientation:mixed;dominant-baseline:auto;baseline-shift:baseline;text-anchor:start;white-space:normal;shape-padding:0;clip-rule:nonzero;display:inline;overflow:visible;visibility:visible;opacity:0.5;isolation:auto;mix-blend-mode:normal;color-interpolation:sRGB;color-interpolation-filters:linearRGB;solid-color:#000000;solid-opacity:1;vector-effect:none;fill:#000000;fill-opacity:1;fill-rule:nonzero;stroke:none;stroke-width:2;stroke-linecap:butt;stroke-linejoin:miter;stroke-miterlimit:4;stroke-dasharray:none;stroke-dashoffset:0;stroke-opacity:1;filter:url(#filter866);color-rendering:auto;image-rendering:auto;shape-rendering:auto;text-rendering:auto;enable-background:accumulate"
     transform="matrix(0.42857142,0,0,0.42857142,25.539657,16.237927)" />
  <circle
     style="fill:none;fill-opacity:1;stroke:#fffeff;stroke-width:0.85714281;stroke-miterlimit:4;stroke-dasharray:none;stroke-opacity:1"
     id="path843-8"
     cx="15.999996"
     cy="14"
     r="2.5714285" />
</svg>
