<?xml version="1.0" encoding="UTF-8" standalone="no"?>
<svg
   xmlns:dc="http://purl.org/dc/elements/1.1/"
   xmlns:cc="http://creativecommons.org/ns#"
   xmlns:rdf="http://www.w3.org/1999/02/22-rdf-syntax-ns#"
   xmlns:svg="http://www.w3.org/2000/svg"
   xmlns="http://www.w3.org/2000/svg"
   xmlns:sodipodi="http://sodipodi.sourceforge.net/DTD/sodipodi-0.dtd"
   xmlns:inkscape="http://www.inkscape.org/namespaces/inkscape"
   width="32"
   height="32"
   version="1.1"
   id="svg22"
   sodipodi:docname="ms-excel.svg"
   inkscape:version="1.0 (4035a4fb49, 2020-05-01)">
  <metadata
     id="metadata28">
    <rdf:RDF>
      <cc:Work
         rdf:about="">
        <dc:format>image/svg+xml</dc:format>
        <dc:type
           rdf:resource="http://purl.org/dc/dcmitype/StillImage" />
      </cc:Work>
    </rdf:RDF>
  </metadata>
  <defs
     id="defs26">
    <filter
       inkscape:collect="always"
       style="color-interpolation-filters:sRGB"
       id="filter883"
       x="-0.35059049"
       width="1.701181"
       y="-0.3132"
       height="1.6264">
      <feGaussianBlur
         inkscape:collect="always"
         stdDeviation="1.305"
         id="feGaussianBlur885" />
    </filter>
    <filter
       inkscape:collect="always"
       style="color-interpolation-filters:sRGB"
       id="filter887"
       x="-0.19575"
       width="1.3915"
       y="-0.19575"
       height="1.3915">
      <feGaussianBlur
         inkscape:collect="always"
         stdDeviation="1.305"
         id="feGaussianBlur889" />
    </filter>
    <filter
       inkscape:collect="always"
       style="color-interpolation-filters:sRGB"
       id="filter891"
       x="-0.1305"
       width="1.261"
       y="-0.22371429"
       height="1.4474286">
      <feGaussianBlur
         inkscape:collect="always"
         stdDeviation="1.305"
         id="feGaussianBlur893" />
    </filter>
    <filter
       inkscape:collect="always"
       style="color-interpolation-filters:sRGB"
       id="filter895"
       x="-0.261"
       width="1.522"
       y="-0.44742857"
       height="1.8948571">
      <feGaussianBlur
         inkscape:collect="always"
         stdDeviation="1.305"
         id="feGaussianBlur897" />
    </filter>
    <filter
       inkscape:collect="always"
       style="color-interpolation-filters:sRGB"
       id="filter899"
       x="-0.1305"
       width="1.261"
       y="-0.2088"
       height="1.4176">
      <feGaussianBlur
         inkscape:collect="always"
         stdDeviation="1.305"
         id="feGaussianBlur901" />
    </filter>
    <filter
       inkscape:collect="always"
       style="color-interpolation-filters:sRGB"
       id="filter903"
       x="-0.1305"
       width="1.261"
       y="-0.2088"
       height="1.4176">
      <feGaussianBlur
         inkscape:collect="always"
         stdDeviation="1.305"
         id="feGaussianBlur905" />
    </filter>
  </defs>
  <sodipodi:namedview
     inkscape:document-rotation="0"
     pagecolor="#ffffff"
     bordercolor="#666666"
     borderopacity="1"
     objecttolerance="10"
     gridtolerance="10"
     guidetolerance="10"
     inkscape:pageopacity="0"
     inkscape:pageshadow="2"
     inkscape:window-width="1920"
     inkscape:window-height="1021"
     id="namedview24"
     showgrid="false"
     inkscape:zoom="23.8125"
     inkscape:cx="14.950131"
     inkscape:cy="16"
     inkscape:window-x="0"
     inkscape:window-y="25"
     inkscape:window-maximized="1"
     inkscape:current-layer="svg22" />
  <path
     id="path4-3"
     d="m 31,23 v 5.6 C 31,29.376 30.376,30 29.6,30 H 8.4000004 c -0.776,0 -1.4,-0.624 -1.4,-1.4 V 15 H 18 l 1,1 z"
     style="fill:#030806;fill-opacity:1;filter:url(#filter903);opacity:0.5" />
  <path
     id="path6-6"
     d="M 8.4000004,2 H 19 l 12,7 v 8 H 20 L 19,16 7.0000004,9 V 3.4 c 0,-0.7756 0.624,-1.4 1.4,-1.4 z"
     style="fill:#030806;fill-opacity:1;filter:url(#filter899);opacity:0.5" />
  <path
     id="path8-7"
     d="M 19,2 H 29.6 C 30.376,2 31,2.6244 31,3.4 V 9 H 19 Z"
     style="fill:#030806;fill-opacity:1;filter:url(#filter895);opacity:0.5" />
  <path
     id="path10-5"
     d="m 19,16 h 12 v 7 H 19 Z M 7.0000004,9 H 19 v 7 H 7.0000004 Z"
     style="fill:#030806;fill-opacity:1;filter:url(#filter891);opacity:0.5" />
  <path
     id="path20-5"
     d="m 4.5335004,21 3.2357,-5.014 -2.9638,-4.986 h 2.385 l 1.9456,3.863 L 11.2,11 h 2.19 L 10.349,15.958 13.467,21 h -2.33 L 9.0174004,17.032 6.8766004,21 Z"
     style="fill:#030806;fill-opacity:1;filter:url(#filter883);opacity:0.5" />
  <path
     style="fill:#185c37"
     d="M 31,23 V 28.6 C 31,29.376 30.376,30 29.6,30 H 8.4 C 7.624,30 7,29.376 7,28.6 V 15 H 18 L 19,16 Z"
     id="path4" />
  <rect
     id="rect18-3"
     ry="1.4"
     rx="1.4"
     y="8"
     x="0.99999958"
     height="16"
     width="16"
     style="fill:#030806;fill-opacity:1;filter:url(#filter887);opacity:0.5" />
  <path
     style="fill:#21a366"
     d="M 8.4,2 H 19 L 31,9 V 17 H 20 L 19,16 7,9 V 3.4 C 7,2.6244 7.624,2 8.4,2 Z"
     id="path6" />
  <path
     style="fill:#33c481"
     d="M 19,2 H 29.6 C 30.376,2 31,2.6244 31,3.4 V 9 H 19 Z"
     id="path8" />
  <path
     style="fill:#107c41"
     d="M 19,16 H 31 V 23 H 19 Z M 7,9 H 19 V 16 H 7 Z"
     id="path10" />
  <rect
     style="fill:#0e6f3a"
     width="16"
     height="16"
     x="1"
     y="8"
     rx="1.4"
     ry="1.4"
     id="rect18" />
  <path
     style="fill:#ffffff"
     d="M 4.5335,21 7.7692,15.986 4.8054,11 H 7.1904 L 9.136,14.863 11.2,11 H 13.39 L 10.349,15.958 13.467,21 H 11.137 L 9.0174,17.032 6.8766,21 Z"
     id="path20" />
</svg>
