<?xml version="1.0" encoding="UTF-8" standalone="no"?>
<svg
   xmlns:dc="http://purl.org/dc/elements/1.1/"
   xmlns:cc="http://creativecommons.org/ns#"
   xmlns:rdf="http://www.w3.org/1999/02/22-rdf-syntax-ns#"
   xmlns:svg="http://www.w3.org/2000/svg"
   xmlns="http://www.w3.org/2000/svg"
   xmlns:sodipodi="http://sodipodi.sourceforge.net/DTD/sodipodi-0.dtd"
   xmlns:inkscape="http://www.inkscape.org/namespaces/inkscape"
   inkscape:version="1.0 (4035a4fb49, 2020-05-01)"
   sodipodi:docname="ms-word.svg"
   id="svg22"
   version="1.1"
   height="32"
   width="32">
  <metadata
     id="metadata28">
    <rdf:RDF>
      <cc:Work
         rdf:about="">
        <dc:format>image/svg+xml</dc:format>
        <dc:type
           rdf:resource="http://purl.org/dc/dcmitype/StillImage" />
      </cc:Work>
    </rdf:RDF>
  </metadata>
  <defs
     id="defs26">
    <filter
       height="1.2005714"
       y="-0.10028571"
       width="1.234"
       x="-0.117"
       id="filter853"
       style="color-interpolation-filters:sRGB"
       inkscape:collect="always">
      <feGaussianBlur
         id="feGaussianBlur855"
         stdDeviation="1.17"
         inkscape:collect="always" />
    </filter>
    <filter
       height="1.216"
       y="-0.108"
       width="1.216"
       x="-0.108"
       id="filter857"
       style="color-interpolation-filters:sRGB"
       inkscape:collect="always">
      <feGaussianBlur
         id="feGaussianBlur859"
         stdDeviation="0.72"
         inkscape:collect="always" />
    </filter>
  </defs>
  <sodipodi:namedview
     inkscape:current-layer="svg22"
     inkscape:window-maximized="1"
     inkscape:window-y="25"
     inkscape:window-x="0"
     inkscape:cy="16"
     inkscape:cx="16"
     inkscape:zoom="23.8125"
     showgrid="false"
     id="namedview24"
     inkscape:window-height="1021"
     inkscape:window-width="1920"
     inkscape:pageshadow="2"
     inkscape:pageopacity="0"
     guidetolerance="10"
     gridtolerance="10"
     objecttolerance="10"
     borderopacity="1"
     bordercolor="#666666"
     pagecolor="#ffffff" />
  <rect
     id="rect2"
     ry="1.4"
     rx="1.4"
     y="2"
     x="7"
     height="28"
     width="24"
     style="opacity:0.5;filter:url(#filter853)" />
  <path
     id="path4"
     d="M 8.4,2 C 7.625,2 7,2.6248 7,3.4004 V 9 L 19,13 31,9 V 3.4004 C 31,2.6248 30.375,2 29.6,2 Z"
     style="fill:#41a5ee" />
  <path
     id="path6"
     d="M 7,9 H 31 V 16 L 19,20 7,16 Z"
     style="fill:#2b7cd3" />
  <path
     id="path8"
     d="M 7,16 H 31 V 23 L 19,27 7,23 Z"
     style="fill:#1650a7" />
  <path
     id="path10"
     d="M 7,23 V 28.6 C 7,29.375 7.625,30 8.4,30 H 29.6 C 30.375,30 31,29.375 31,28.6 V 23 Z"
     style="fill:#103f91" />
  <rect
     id="rect16"
     ry="1.4"
     rx="1.4"
     y="8"
     x="1"
     height="16"
     width="16"
     style="opacity:0.5;filter:url(#filter857)" />
  <rect
     id="rect18"
     ry="1.4"
     rx="1.4"
     y="8"
     x="1"
     height="16"
     width="16"
     style="fill:#185abd" />
  <path
     id="path20"
     d="M 12.95,21 H 11.15 L 9.05,14.1 6.85,21 H 5.05 L 3.05,11 H 4.85 L 6.25,18 8.35,11 H 9.85 L 11.85,18 13.25,11 H 14.95 Z"
     style="fill:#ffffff" />
</svg>
