<?xml version="1.0" encoding="UTF-8" standalone="no"?>
<svg
   xmlns:dc="http://purl.org/dc/elements/1.1/"
   xmlns:cc="http://creativecommons.org/ns#"
   xmlns:rdf="http://www.w3.org/1999/02/22-rdf-syntax-ns#"
   xmlns:svg="http://www.w3.org/2000/svg"
   xmlns="http://www.w3.org/2000/svg"
   xmlns:xlink="http://www.w3.org/1999/xlink"
   xmlns:sodipodi="http://sodipodi.sourceforge.net/DTD/sodipodi-0.dtd"
   xmlns:inkscape="http://www.inkscape.org/namespaces/inkscape"
   inkscape:version="1.0 (4035a4fb49, 2020-05-01)"
   sodipodi:docname="multimedia-audio-player.svg"
   id="svg22"
   version="1"
   height="32"
   width="32">
  <metadata
     id="metadata28">
    <rdf:RDF>
      <cc:Work
         rdf:about="">
        <dc:format>image/svg+xml</dc:format>
        <dc:type
           rdf:resource="http://purl.org/dc/dcmitype/StillImage" />
        <dc:title />
      </cc:Work>
    </rdf:RDF>
  </metadata>
  <defs
     id="defs26">
    <linearGradient
       id="linearGradient849"
       inkscape:collect="always">
      <stop
         id="stop845"
         offset="0"
         style="stop-color:#ffffff;stop-opacity:1" />
      <stop
         id="stop847"
         offset="1"
         style="stop-color:#d9d9d9;stop-opacity:1" />
    </linearGradient>
    <linearGradient
       id="linearGradient2344"
       inkscape:collect="always">
      <stop
         id="stop2340"
         offset="0"
         style="stop-color:#ffc033;stop-opacity:1" />
      <stop
         id="stop2342"
         offset="1"
         style="stop-color:#ff4a4a;stop-opacity:1" />
    </linearGradient>
    <linearGradient
       gradientTransform="matrix(0.49999995,0,0,0.49999995,31.999998,31.999997)"
       gradientUnits="userSpaceOnUse"
       y2="-63.831791"
       x2="-0.16484457"
       y1="-15.385712"
       x1="-49.331135"
       id="linearGradient2346"
       xlink:href="#linearGradient2344"
       inkscape:collect="always" />
    <filter
       inkscape:collect="always"
       style="color-interpolation-filters:sRGB"
       id="filter841"
       x="-0.108"
       width="1.216"
       y="-0.108"
       height="1.216">
      <feGaussianBlur
         inkscape:collect="always"
         stdDeviation="1.26"
         id="feGaussianBlur843" />
    </filter>
    <linearGradient
       gradientTransform="translate(8.94e-4,-2.982e-4)"
       inkscape:collect="always"
       xlink:href="#linearGradient849"
       id="linearGradient851-7"
       x1="16"
       y1="4.000001"
       x2="16"
       y2="27.999998"
       gradientUnits="userSpaceOnUse" />
    <filter
       height="1.216"
       y="-0.108"
       width="1.216"
       x="-0.108"
       id="filter925"
       style="color-interpolation-filters:sRGB"
       inkscape:collect="always">
      <feGaussianBlur
         id="feGaussianBlur927"
         stdDeviation="1.08"
         inkscape:collect="always" />
    </filter>
  </defs>
  <sodipodi:namedview
     inkscape:document-rotation="0"
     inkscape:current-layer="svg22"
     inkscape:window-maximized="1"
     inkscape:window-y="0"
     inkscape:window-x="0"
     inkscape:cy="18.044222"
     inkscape:cx="5.2447185"
     inkscape:zoom="14.75"
     showgrid="false"
     id="namedview24"
     inkscape:window-height="999"
     inkscape:window-width="1920"
     inkscape:pageshadow="2"
     inkscape:pageopacity="0"
     guidetolerance="10"
     gridtolerance="10"
     objecttolerance="10"
     borderopacity="1"
     bordercolor="#666666"
     pagecolor="#ffffff" />
  <rect
     id="rect8-4"
     transform="matrix(0,1,1,0,0,0)"
     ry="14"
     rx="14"
     y="2"
     x="2"
     height="28"
     width="28"
     style="opacity:0.5;fill:#000000;fill-opacity:1;stroke-width:0.7;filter:url(#filter841)" />
  <rect
     id="rect8"
     transform="matrix(0,1,1,0,0,0)"
     ry="13.999999"
     rx="13.999999"
     y="2.0000002"
     x="2.0000005"
     height="27.999998"
     width="27.999998"
     style="fill:url(#linearGradient2346);fill-opacity:1;stroke-width:0.69999993" />
  <path
     inkscape:connector-curvature="0"
     d=""
     cx="32"
     cy="32"
     r="24"
     id="path2348"
     style="opacity:0.2;fill:#ffffff;fill-opacity:1;stroke:none;stroke-width:1.02921343;stroke-miterlimit:4;stroke-dasharray:none;stroke-opacity:1" />
  <path
     id="path898-7"
     style="opacity:0.5;fill:#000000;fill-opacity:1;stroke:none;stroke-width:0.71931;stroke-miterlimit:4;stroke-dasharray:none;stroke-opacity:0;filter:url(#filter925)"
     d="M 16,5 A 11.999999,11.999999 0 0 0 3.9999998,17 11.999999,11.999999 0 0 0 16,29 11.999999,11.999999 0 0 0 28,17 11.999999,11.999999 0 0 0 16,5 Z m 3.519531,6 C 19.795936,11.04536 20.000003,11.286902 20,11.609375 l -0.02344,8.386719 c -0.04555,0.312912 -0.211075,0.616629 -0.46875,0.869141 -0.257674,0.252511 -0.607117,0.453714 -1.021484,0.558593 -0.51939,0.131457 -1.035603,0.08682 -1.449219,-0.08789 -0.413616,-0.174705 -0.724601,-0.47861 -0.835937,-0.871094 -0.111337,-0.392488 -0.0052,-0.801186 0.259765,-1.144531 0.26499,-0.343345 0.68764,-0.622454 1.207032,-0.753907 0.575655,-0.145705 1.132106,-0.05646 1.564453,0.164063 v -5.083984 l -5.388672,1.40625 -0.02344,6.443359 c -0.04555,0.312903 -0.21107,0.616627 -0.468746,0.869141 -0.257675,0.252513 -0.607118,0.453725 -1.021484,0.558593 -0.51939,0.13146 -1.035604,0.08681 -1.449219,-0.08789 -0.413615,-0.174703 -0.7246,-0.480559 -0.835937,-0.873047 -0.1113372,-0.39248 -0.0048,-0.801185 0.259765,-1.144531 0.264586,-0.343347 0.68764,-0.620498 1.207032,-0.751954 0.575659,-0.145696 1.130159,-0.05645 1.5625,0.164063 V 13.41211 c 0,-0.42996 0.34317,-0.871142 0.769531,-0.982422 z" />
  <path
     d="M 16,3.9999998 A 11.999999,11.999999 0 0 0 4,16 11.999999,11.999999 0 0 0 16,28 11.999999,11.999999 0 0 0 28,16 11.999999,11.999999 0 0 0 16,3.9999998 Z M 19.519531,10 C 19.795936,10.04536 20.000003,10.286902 20,10.609375 l -0.02344,8.386719 c -0.04555,0.312912 -0.211075,0.616629 -0.46875,0.869141 -0.257674,0.252511 -0.607117,0.453714 -1.021484,0.558593 -0.51939,0.131457 -1.035603,0.08682 -1.449219,-0.08789 -0.413616,-0.174705 -0.724601,-0.47861 -0.835937,-0.871094 -0.111337,-0.392488 -0.0052,-0.801186 0.259765,-1.144531 0.26499,-0.343345 0.68764,-0.622454 1.207032,-0.753907 0.575655,-0.145705 1.132106,-0.05646 1.564453,0.164063 v -5.083984 l -5.388672,1.40625 -0.02344,6.443359 c -0.04555,0.312903 -0.21107,0.616627 -0.468746,0.869141 -0.257675,0.252513 -0.607118,0.453725 -1.021484,0.558593 -0.51939,0.13146 -1.035604,0.08681 -1.449219,-0.08789 -0.413615,-0.174703 -0.7246,-0.480559 -0.835937,-0.873047 -0.111337,-0.39248 -0.0048,-0.801185 0.259765,-1.144531 0.264586,-0.343347 0.68764,-0.620498 1.207032,-0.751954 0.575659,-0.145696 1.130159,-0.05645 1.5625,0.164063 V 12.41211 c 0,-0.42996 0.34317,-0.871142 0.769531,-0.982422 z"
     style="opacity:1;fill:url(#linearGradient851-7);fill-opacity:1;stroke:none;stroke-width:0.71931;stroke-miterlimit:4;stroke-dasharray:none;stroke-opacity:0"
     id="path898" />
</svg>
