<?xml version="1.0" encoding="UTF-8" standalone="no"?>
<svg
   xmlns:dc="http://purl.org/dc/elements/1.1/"
   xmlns:cc="http://creativecommons.org/ns#"
   xmlns:rdf="http://www.w3.org/1999/02/22-rdf-syntax-ns#"
   xmlns:svg="http://www.w3.org/2000/svg"
   xmlns="http://www.w3.org/2000/svg"
   xmlns:xlink="http://www.w3.org/1999/xlink"
   xmlns:sodipodi="http://sodipodi.sourceforge.net/DTD/sodipodi-0.dtd"
   xmlns:inkscape="http://www.inkscape.org/namespaces/inkscape"
   inkscape:version="1.0.1 (3bc2e813f5, 2020-09-07)"
   sodipodi:docname="pidgin.svg"
   id="svg18"
   version="1"
   height="32"
   width="32">
  <metadata
     id="metadata24">
    <rdf:RDF>
      <cc:Work
         rdf:about="">
        <dc:format>image/svg+xml</dc:format>
        <dc:type
           rdf:resource="http://purl.org/dc/dcmitype/StillImage" />
        <dc:title />
      </cc:Work>
    </rdf:RDF>
  </metadata>
  <defs
     id="defs22">
    <linearGradient
       id="linearGradient922"
       inkscape:collect="always">
      <stop
         id="stop918"
         offset="0"
         style="stop-color:#ce37ff;stop-opacity:1" />
      <stop
         id="stop920"
         offset="1"
         style="stop-color:#4c1cff;stop-opacity:1" />
    </linearGradient>
    <linearGradient
       gradientUnits="userSpaceOnUse"
       y2="30"
       x2="16"
       y1="2"
       x1="16"
       id="linearGradient924"
       xlink:href="#linearGradient922"
       inkscape:collect="always" />
    <filter
       inkscape:collect="always"
       style="color-interpolation-filters:sRGB"
       id="filter60401"
       x="-0.075"
       width="1.15"
       y="-0.075"
       height="1.15">
      <feGaussianBlur
         inkscape:collect="always"
         stdDeviation="0.875"
         id="feGaussianBlur60403" />
    </filter>
    <filter
       inkscape:collect="always"
       style="color-interpolation-filters:sRGB"
       id="filter60405"
       x="-0.075"
       width="1.15"
       y="-0.075"
       height="1.15">
      <feGaussianBlur
         inkscape:collect="always"
         stdDeviation="0.5"
         id="feGaussianBlur60407" />
    </filter>
  </defs>
  <sodipodi:namedview
     inkscape:current-layer="svg18"
     inkscape:window-maximized="1"
     inkscape:window-y="0"
     inkscape:window-x="0"
     inkscape:cy="18.878607"
     inkscape:cx="9.248888"
     inkscape:zoom="16"
     inkscape:guide-bbox="true"
     showguides="true"
     showgrid="false"
     id="namedview20"
     inkscape:window-height="1000"
     inkscape:window-width="1920"
     inkscape:pageshadow="2"
     inkscape:pageopacity="0"
     guidetolerance="10"
     gridtolerance="10"
     objecttolerance="10"
     borderopacity="1"
     bordercolor="#666666"
     pagecolor="#ffffff"
     inkscape:document-rotation="0" />
  <path
     id="rect849-3-6"
     style="opacity:0.5;fill:#000000;fill-opacity:1;stroke-width:2.53224;filter:url(#filter60401)"
     d="M 27.385937,2 C 28.83474,2 30,3.1652602 30,4.6140625 V 21.785937 C 30,23.234739 28.83474,24.4 27.385937,24.4 H 7.6 L 2,30 v -5.6 0 C 2,21.785937 2,23.234739 2,21.785937 V 4.6140625 C 2,3.1652602 3.165261,2 4.614063,2 Z"
     sodipodi:nodetypes="ssssccccssss" />
  <path
     sodipodi:nodetypes="ssssccccssss"
     d="M 27.385937,2 C 28.83474,2 30,3.1652602 30,4.6140625 V 21.785937 C 30,23.234739 28.83474,24.4 27.385937,24.4 H 7.6 L 2,30 v -5.6 0 C 2,21.785937 2,23.234739 2,21.785937 V 4.6140625 C 2,3.1652602 3.165261,2 4.614063,2 Z"
     style="opacity:1;fill:url(#linearGradient924);fill-opacity:1;stroke-width:2.53224"
     id="rect849-3" />
  <path
     sodipodi:nodetypes="ssssccccssss"
     d="m 15.495479,14 c -0.827887,0 -1.49375,0.665863 -1.49375,1.49375 v 9.812499 c 0,0.827887 0.665863,1.493751 1.49375,1.493751 h 11.30625 l 3.2,3.2 v -3.2 0 c 0,-1.493751 0,-0.665864 0,-1.493751 V 15.49375 C 30.001729,14.665863 29.335865,14 28.507979,14 Z"
     style="opacity:0.5;fill:#000000;fill-opacity:1;stroke-width:1.44699;filter:url(#filter60405)"
     id="rect849-3-7-2" />
  <path
     id="rect849-3-7"
     style="opacity:1;fill:#e5e5e5;fill-opacity:1;stroke-width:1.44699"
     d="m 15.495479,14 c -0.827887,0 -1.49375,0.665863 -1.49375,1.49375 v 9.812499 c 0,0.827887 0.665863,1.493751 1.49375,1.493751 h 11.30625 l 3.2,3.2 v -3.2 0 c 0,-1.493751 0,-0.665864 0,-1.493751 V 15.49375 C 30.001729,14.665863 29.335865,14 28.507979,14 Z"
     sodipodi:nodetypes="ssssccccssss" />
</svg>
