<?xml version="1.0" encoding="UTF-8" standalone="no"?>
<svg
   xmlns:dc="http://purl.org/dc/elements/1.1/"
   xmlns:cc="http://creativecommons.org/ns#"
   xmlns:rdf="http://www.w3.org/1999/02/22-rdf-syntax-ns#"
   xmlns:svg="http://www.w3.org/2000/svg"
   xmlns="http://www.w3.org/2000/svg"
   xmlns:sodipodi="http://sodipodi.sourceforge.net/DTD/sodipodi-0.dtd"
   xmlns:inkscape="http://www.inkscape.org/namespaces/inkscape"
   width="32"
   height="32"
   version="1"
   id="svg12"
   sodipodi:docname="preferences-system-firewall.svg"
   inkscape:version="0.92.5 (2060ec1f9f, 2020-04-08)">
  <metadata
     id="metadata18">
    <rdf:RDF>
      <cc:Work
         rdf:about="">
        <dc:format>image/svg+xml</dc:format>
        <dc:type
           rdf:resource="http://purl.org/dc/dcmitype/StillImage" />
        <dc:title></dc:title>
      </cc:Work>
    </rdf:RDF>
  </metadata>
  <defs
     id="defs16">
    <filter
       inkscape:collect="always"
       style="color-interpolation-filters:sRGB"
       id="filter836"
       x="-0.10992857"
       width="1.2198571"
       y="-0.10613793"
       height="1.2122759">
      <feGaussianBlur
         inkscape:collect="always"
         stdDeviation="1.2825"
         id="feGaussianBlur838" />
    </filter>
    <filter
       inkscape:collect="always"
       style="color-interpolation-filters:sRGB"
       id="filter840"
       x="-0.11025"
       width="1.2205"
       y="-0.10584"
       height="1.21168">
      <feGaussianBlur
         inkscape:collect="always"
         stdDeviation="1.1025"
         id="feGaussianBlur842" />
    </filter>
  </defs>
  <sodipodi:namedview
     pagecolor="#ffffff"
     bordercolor="#666666"
     borderopacity="1"
     objecttolerance="10"
     gridtolerance="10"
     guidetolerance="10"
     inkscape:pageopacity="0"
     inkscape:pageshadow="2"
     inkscape:window-width="1920"
     inkscape:window-height="1023"
     id="namedview14"
     showgrid="false"
     inkscape:zoom="20.85965"
     inkscape:cx="14.245172"
     inkscape:cy="16.052474"
     inkscape:window-x="0"
     inkscape:window-y="25"
     inkscape:window-maximized="1"
     inkscape:current-layer="svg12" />
  <path
     style="opacity:0.5;filter:url(#filter836)"
     d="M 5.375,1.5 C 3.5196443,1.5 2,3.070553 2,4.9003906 V 9.099609 c 0,0.939076 0.4083792,1.800522 1.0488281,2.425782 C 2.4049283,12.163318 2,13.041862 2,14 v 4 c 0,0.958138 0.4049283,1.836682 1.0488281,2.474609 C 2.4083792,21.099869 2,21.961315 2,22.900391 v 4.199218 C 2,28.929447 3.5196436,30.5 5.375,30.5 h 8.25 C 14.549204,30.5 15.388732,30.10952 16,29.492188 16.611268,30.10952 17.450796,30.5 18.375,30.5 h 8.25 C 28.480356,30.5 30,28.929447 30,27.099609 V 22.900391 C 30,21.961315 29.591621,21.099869 28.951172,20.474609 29.595072,19.836682 30,18.958138 30,18 V 14 C 30,13.041862 29.595072,12.163318 28.951172,11.525391 29.591621,10.900131 30,10.038685 30,9.099609 V 4.9003906 C 30,3.070553 28.480356,1.5 26.625,1.5 h -8.25 C 17.450796,1.5 16.611268,1.89048 16,2.5078125 15.388732,1.89048 14.549204,1.5 13.625,1.5 Z"
     id="path2"
     inkscape:connector-curvature="0" />
  <path
     style="fill:#4f4f4f"
     d="M 5.375,1 C 3.5196443,1 2,2.570553 2,4.4003906 L 2,8.5996094 C 2,9.538685 2.4083792,10.400131 3.0488281,11.025391 2.4049283,11.663318 2,12.541862 2,13.5 l 0,4 c 0,0.958138 0.4049283,1.836682 1.0488281,2.474609 C 2.4083792,20.599869 2,21.461315 2,22.400391 l 0,4.199218 C 2,28.429447 3.5196436,30 5.375,30 l 8.25,0 C 14.549204,30 15.388732,29.60952 16,28.992188 16.611268,29.60952 17.450796,30 18.375,30 l 8.25,0 C 28.480356,30 30,28.429447 30,26.599609 l 0,-4.199218 C 30,21.461315 29.591621,20.599869 28.951172,19.974609 29.595072,19.336682 30,18.458138 30,17.5 l 0,-4 C 30,12.541862 29.595072,11.663318 28.951172,11.025391 29.591621,10.400131 30,9.538685 30,8.5996094 L 30,4.4003906 C 30,2.570553 28.480356,1 26.625,1 l -8.25,0 C 17.450796,1 16.611268,1.39048 16,2.0078125 15.388732,1.39048 14.549204,1 13.625,1 Z"
     id="path4" />
  <path
     style="opacity:0.5;filter:url(#filter840)"
     d="M 5.375,4 C 4.61325,4 4,4.6247906 4,5.4003906 L 4,9.5996094 C 4,10.375209 4.61325,11 5.375,11 l 8.25,0 C 14.386751,11 15,10.375209 15,9.5996094 L 15,5.4003906 C 15,4.6247906 14.386751,4 13.625,4 l -8.25,0 z m 13,0 C 17.613249,4 17,4.6247906 17,5.4003906 l 0,4.1992188 C 17,10.375209 17.613249,11 18.375,11 l 8.25,0 C 27.38675,11 28,10.375209 28,9.5996094 L 28,5.4003906 C 28,4.6247906 27.38675,4 26.625,4 l -8.25,0 z M 5.5,13 C 4.669,13 4,13.669 4,14.5 l 0,4 C 4,19.331 4.669,20 5.5,20 l 2,0 C 8.331,20 9,19.331 9,18.5 l 0,-4 C 9,13.669 8.331,13 7.5,13 l -2,0 z m 6.75,0 C 11.557499,13 11,13.624791 11,14.400391 l 0,4.199218 C 11,19.375209 11.557499,20 12.25,20 l 7.5,0 C 20.4425,20 21,19.375209 21,18.599609 l 0,-4.199218 C 21,13.624791 20.4425,13 19.75,13 l -7.5,0 z M 24.5,13 C 23.669,13 23,13.669 23,14.5 l 0,4 c 0,0.831 0.669,1.5 1.5,1.5 l 2,0 c 0.831,0 1.5,-0.669 1.5,-1.5 l 0,-4 C 28,13.669 27.331,13 26.5,13 l -2,0 z M 5.375,22 C 4.61325,22 4,22.624791 4,23.400391 l 0,4.199218 C 4,28.375209 4.61325,29 5.375,29 l 8.25,0 C 14.386751,29 15,28.375209 15,27.599609 l 0,-4.199218 C 15,22.624791 14.386751,22 13.625,22 l -8.25,0 z m 13,0 C 17.613249,22 17,22.624791 17,23.400391 l 0,4.199218 C 17,28.375209 17.613249,29 18.375,29 l 8.25,0 C 27.38675,29 28,28.375209 28,27.599609 l 0,-4.199218 C 28,22.624791 27.38675,22 26.625,22 l -8.25,0 z"
     id="path6" />
  <path
     style="fill:#f45c49"
     d="M 5.375,3 C 4.61325,3 4,3.6247906 4,4.4003906 L 4,8.5996094 C 4,9.375209 4.61325,10 5.375,10 l 8.25,0 C 14.386751,10 15,9.375209 15,8.5996094 L 15,4.4003906 C 15,3.6247906 14.386751,3 13.625,3 l -8.25,0 z m 13,0 C 17.613249,3 17,3.6247906 17,4.4003906 l 0,4.1992188 C 17,9.375209 17.613249,10 18.375,10 l 8.25,0 C 27.38675,10 28,9.375209 28,8.5996094 L 28,4.4003906 C 28,3.6247906 27.38675,3 26.625,3 l -8.25,0 z M 5.5,12 C 4.669,12 4,12.669 4,13.5 l 0,4 C 4,18.331 4.669,19 5.5,19 l 2,0 C 8.331,19 9,18.331 9,17.5 l 0,-4 C 9,12.669 8.331,12 7.5,12 l -2,0 z m 6.75,0 C 11.557499,12 11,12.624791 11,13.400391 l 0,4.199218 C 11,18.375209 11.557499,19 12.25,19 l 7.5,0 C 20.4425,19 21,18.375209 21,17.599609 l 0,-4.199218 C 21,12.624791 20.4425,12 19.75,12 l -7.5,0 z M 24.5,12 C 23.669,12 23,12.669 23,13.5 l 0,4 c 0,0.831 0.669,1.5 1.5,1.5 l 2,0 c 0.831,0 1.5,-0.669 1.5,-1.5 l 0,-4 C 28,12.669 27.331,12 26.5,12 l -2,0 z M 5.375,21 C 4.61325,21 4,21.624791 4,22.400391 l 0,4.199218 C 4,27.375209 4.61325,28 5.375,28 l 8.25,0 C 14.386751,28 15,27.375209 15,26.599609 l 0,-4.199218 C 15,21.624791 14.386751,21 13.625,21 l -8.25,0 z m 13,0 C 17.613249,21 17,21.624791 17,22.400391 l 0,4.199218 C 17,27.375209 17.613249,28 18.375,28 l 8.25,0 C 27.38675,28 28,27.375209 28,26.599609 l 0,-4.199218 C 28,21.624791 27.38675,21 26.625,21 l -8.25,0 z"
     id="path8" />
</svg>
