<?xml version="1.0" encoding="UTF-8" standalone="no"?>
<svg
   xmlns:dc="http://purl.org/dc/elements/1.1/"
   xmlns:cc="http://creativecommons.org/ns#"
   xmlns:rdf="http://www.w3.org/1999/02/22-rdf-syntax-ns#"
   xmlns:svg="http://www.w3.org/2000/svg"
   xmlns="http://www.w3.org/2000/svg"
   xmlns:xlink="http://www.w3.org/1999/xlink"
   xmlns:sodipodi="http://sodipodi.sourceforge.net/DTD/sodipodi-0.dtd"
   xmlns:inkscape="http://www.inkscape.org/namespaces/inkscape"
   width="32"
   height="32"
   version="1"
   id="svg20"
   sodipodi:docname="cs-user.svg"
   inkscape:version="1.0 (4035a4fb49, 2020-05-01)">
  <metadata
     id="metadata26">
    <rdf:RDF>
      <cc:Work
         rdf:about="">
        <dc:format>image/svg+xml</dc:format>
        <dc:type
           rdf:resource="http://purl.org/dc/dcmitype/StillImage" />
      </cc:Work>
    </rdf:RDF>
  </metadata>
  <defs
     id="defs24">
    <linearGradient
       id="linearGradient849"
       inkscape:collect="always">
      <stop
         id="stop845"
         offset="0"
         style="stop-color:#fefefe;stop-opacity:1" />
      <stop
         id="stop847"
         offset="1"
         style="stop-color:#e5e5e5;stop-opacity:1" />
    </linearGradient>
    <linearGradient
       inkscape:collect="always"
       id="linearGradient863">
      <stop
         style="stop-color:#ffc152;stop-opacity:1"
         offset="0"
         id="stop859" />
      <stop
         style="stop-color:#ff5f5f;stop-opacity:1"
         offset="1"
         id="stop861" />
    </linearGradient>
    <filter
       inkscape:collect="always"
       style="color-interpolation-filters:sRGB"
       id="filter851"
       x="-0.12728571"
       width="1.2545714"
       y="-0.093789474"
       height="1.1875789">
      <feGaussianBlur
         inkscape:collect="always"
         stdDeviation="0.7425"
         id="feGaussianBlur853" />
    </filter>
    <filter
       inkscape:collect="always"
       style="color-interpolation-filters:sRGB"
       id="filter855"
       x="-0.108"
       width="1.216"
       y="-0.108"
       height="1.216">
      <feGaussianBlur
         inkscape:collect="always"
         stdDeviation="1.26"
         id="feGaussianBlur857" />
    </filter>
    <linearGradient
       inkscape:collect="always"
       xlink:href="#linearGradient863"
       id="linearGradient865"
       x1="2"
       y1="16"
       x2="30"
       y2="16"
       gradientUnits="userSpaceOnUse" />
    <linearGradient
       gradientUnits="userSpaceOnUse"
       y2="25"
       x2="16"
       y1="6"
       x1="16"
       id="linearGradient851"
       xlink:href="#linearGradient849"
       inkscape:collect="always" />
  </defs>
  <sodipodi:namedview
     inkscape:document-rotation="0"
     pagecolor="#ffffff"
     bordercolor="#666666"
     borderopacity="1"
     objecttolerance="10"
     gridtolerance="10"
     guidetolerance="10"
     inkscape:pageopacity="0"
     inkscape:pageshadow="2"
     inkscape:window-width="1920"
     inkscape:window-height="999"
     id="namedview22"
     showgrid="false"
     inkscape:zoom="23.8125"
     inkscape:cx="14.950131"
     inkscape:cy="16"
     inkscape:window-x="0"
     inkscape:window-y="0"
     inkscape:window-maximized="1"
     inkscape:current-layer="svg20" />
  <circle
     style="opacity:0.5;fill:#00100f;filter:url(#filter855)"
     cx="16"
     cy="16"
     r="14"
     id="circle2" />
  <circle
     style="fill:url(#linearGradient865);fill-opacity:1"
     cx="16"
     cy="16"
     r="14"
     id="circle4" />
  <g
     style="opacity:0.5;filter:url(#filter851)"
     transform="translate(0,1)"
     id="g10">
    <path
       d="m 16,6 c -2.2096,0 -4,1.7912 -4,4 0,2.2088 1.7904,4 4,4 2.2096,0 4,-1.7912 4,-4 0,-2.2088 -1.7904,-4 -4,-4 z"
       id="path6" />
    <path
       d="m 16,16.000001 c -6.9993,0.0042 -7,4.430769 -7,4.430769 v 1.8 c 0,0 1.292299,2.76923 7,2.76923 5.707701,0 7,-2.76923 7,-2.76923 v -1.8 c 0,0 0,-4.433538 -6.9986,-4.430769 z"
       id="path8" />
  </g>
  <g
     style="fill-opacity:1;fill:url(#linearGradient851)"
     id="g16">
    <path
       style="fill:url(#linearGradient851);fill-opacity:1"
       d="m 16,6 c -2.2096,0 -4,1.7912 -4,4 0,2.2088 1.7904,4 4,4 2.2096,0 4,-1.7912 4,-4 0,-2.2088 -1.7904,-4 -4,-4 z"
       id="path12" />
    <path
       style="fill:url(#linearGradient851);fill-opacity:1"
       d="m 16,16.000001 c -6.9993,0.0042 -7,4.430769 -7,4.430769 v 1.8 c 0,0 1.292299,2.76923 7,2.76923 5.707701,0 7,-2.76923 7,-2.76923 v -1.8 c 0,0 0,-4.433538 -6.9986,-4.430769 z"
       id="path14" />
  </g>
</svg>
