<?xml version="1.0" encoding="UTF-8" standalone="no"?>
<svg
   xmlns:dc="http://purl.org/dc/elements/1.1/"
   xmlns:cc="http://creativecommons.org/ns#"
   xmlns:rdf="http://www.w3.org/1999/02/22-rdf-syntax-ns#"
   xmlns:svg="http://www.w3.org/2000/svg"
   xmlns="http://www.w3.org/2000/svg"
   xmlns:xlink="http://www.w3.org/1999/xlink"
   xmlns:sodipodi="http://sodipodi.sourceforge.net/DTD/sodipodi-0.dtd"
   xmlns:inkscape="http://www.inkscape.org/namespaces/inkscape"
   sodipodi:docname="aptdaemon-working.svg"
   inkscape:version="1.0 (4035a4fb49, 2020-05-01)"
   id="svg8"
   version="1.1"
   viewBox="0 0 8.4666665 8.4666669"
   height="32"
   width="32">
  <defs
     id="defs2">
    <linearGradient
       id="linearGradient934"
       x1="0"
       y1="1"
       x2="0"
       y2="0">
      <stop
         style="stop-color:#dedede;stop-opacity:0"
         stop-color="#ECECEC"
         offset="0"
         id="stop930" />
      <stop
         style="stop-color:#f2f2f2;stop-opacity:1"
         stop-color="#FFF"
         offset="1"
         id="stop932" />
    </linearGradient>
    <linearGradient
       id="linearGradient867"
       inkscape:collect="always">
      <stop
         id="stop863"
         offset="0"
         style="stop-color:#f49696;stop-opacity:1;" />
      <stop
         id="stop865"
         offset="1"
         style="stop-color:#c85eee;stop-opacity:1" />
    </linearGradient>
    <linearGradient
       y2="0"
       x2="1"
       y1="0"
       x1="0"
       id="backGrad">
      <stop
         id="stop7"
         offset="0"
         stop-color="#D9D9D9" />
      <stop
         id="stop9"
         offset="1"
         stop-color="#EEE" />
    </linearGradient>
    <linearGradient
       y2="2.5099801"
       x2="48.406759"
       y1="2.5099801"
       x1="52.590059"
       xlink:href="#backGrad"
       id="rightbackfoldGrad"
       gradientTransform="scale(0.83666003,1.1952286)"
       gradientUnits="userSpaceOnUse" />
    <linearGradient
       y2="6.8946149"
       x2="5.9829303"
       y1="6.8946149"
       x1="1.5954481"
       xlink:href="#frontGrad"
       id="leftfrontfoldGrad"
       gradientTransform="scale(1.2535663,0.79772404)"
       gradientUnits="userSpaceOnUse" />
    <linearGradient
       y2="0"
       x2="0"
       y1="1"
       x1="0"
       id="frontGrad">
      <stop
         id="stop2"
         offset="0"
         stop-color="#ECECEC" />
      <stop
         id="stop4"
         offset="1"
         stop-color="#FFF" />
    </linearGradient>
    <linearGradient
       y2="2.4192836"
       x2="9.5235031"
       y1="19.085414"
       x1="9.5235031"
       id="handleGrad"
       gradientTransform="matrix(0.20743998,0,0,0.11483281,0.52916682,0.25174582)"
       gradientUnits="userSpaceOnUse">
      <stop
         id="stop16"
         offset="0"
         stop-color="#E6E6E6" />
      <stop
         id="stop18"
         offset="1"
         stop-color="#FFF" />
    </linearGradient>
    <linearGradient
       gradientTransform="matrix(-1.1666666,0,0,-1.0909091,-0.70555391,-0.72159042)"
       gradientUnits="userSpaceOnUse"
       y2="-2.3802865"
       x2="-4.0528383"
       y1="-7.8902173"
       x1="-4.2216949"
       id="linearGradient969-3"
       xlink:href="#handleGrad"
       inkscape:collect="always" />
    <filter
       inkscape:collect="always"
       style="color-interpolation-filters:sRGB"
       id="filter2026"
       x="-0.10799768"
       width="1.2159954"
       y="-0.10800232"
       height="1.2160046">
      <feGaussianBlur
         inkscape:collect="always"
         stdDeviation="0.33336783"
         id="feGaussianBlur2028" />
    </filter>
    <linearGradient
       gradientUnits="userSpaceOnUse"
       y2="7.383431"
       x2="0.44750023"
       y1="7.3529735"
       x1="7.9144983"
       id="linearGradient869"
       xlink:href="#linearGradient867"
       inkscape:collect="always" />
    <linearGradient
       gradientUnits="userSpaceOnUse"
       y2="3.1622334"
       x2="4.2729545"
       y1="0.5291667"
       x1="4.2729545"
       id="linearGradient928"
       xlink:href="#linearGradient867"
       inkscape:collect="always" />
  </defs>
  <sodipodi:namedview
     inkscape:window-maximized="1"
     inkscape:window-y="25"
     inkscape:window-x="0"
     inkscape:window-height="1020"
     inkscape:window-width="1920"
     units="px"
     showgrid="false"
     inkscape:document-rotation="0"
     inkscape:current-layer="layer1"
     inkscape:document-units="px"
     inkscape:cy="4.0822042"
     inkscape:cx="6.5010376"
     inkscape:zoom="11.549594"
     inkscape:pageshadow="2"
     inkscape:pageopacity="0.0"
     borderopacity="1.0"
     bordercolor="#666666"
     pagecolor="#ffffff"
     id="base" />
  <metadata
     id="metadata5">
    <rdf:RDF>
      <cc:Work
         rdf:about="">
        <dc:format>image/svg+xml</dc:format>
        <dc:type
           rdf:resource="http://purl.org/dc/dcmitype/StillImage" />
        <dc:title />
      </cc:Work>
    </rdf:RDF>
  </metadata>
  <g
     id="layer1"
     inkscape:groupmode="layer"
     inkscape:label="Capa 1">
    <path
       id="rect850-2-3"
       style="opacity:0.5;fill:#000000;fill-opacity:1;stroke-width:0.523708;filter:url(#filter2026)"
       d="m 4.1863076,0.53159172 c -0.091957,0.007 -0.184558,0.030162 -0.273885,0.07028 C 3.7337685,0.68210672 3.5663214,0.82360342 3.4008259,1.0256183 3.2793083,1.1739514 3.1577963,1.3687043 3.0359903,1.5873411 H 0.53433431 c -0.0015,0.017342 -0.005168,0.034472 -0.005168,0.052193 v 5.6689045 c 0,0.348406 0.30022667,0.6289022 0.67282719,0.6289022 h 6.0626789 c 0.3726008,0 0.6728272,-0.2804962 0.6728272,-0.6289022 V 1.6395341 c 0,-0.017722 -0.00416,-0.034851 -0.00568,-0.052193 H 5.4751179 C 5.4385983,1.5247854 5.402557,1.4588417 5.365564,1.4007893 5.0928984,0.97290012 4.8086746,0.65956572 4.457609,0.55898012 4.3698427,0.53383382 4.2782649,0.52459222 4.1863076,0.53159172 Z m 0.023771,0.322461 c 0.052617,-0.00413 0.1040468,0.00222 0.157613,0.01757 0.2142657,0.06139 0.4705729,0.30482668 0.7245038,0.70331618 0.00242,0.0038 0.00481,0.00857 0.00723,0.012402 H 3.4065104 C 3.4900161,1.448817 3.5721364,1.3269668 3.6509399,1.2307738 3.7948505,1.0551066 3.9287712,0.95131432 4.045231,0.89901122 c 0.05823,-0.026152 0.1122307,-0.040824 0.1648476,-0.0449585 z" />
    <path
       d="m 0.53459418,1.5875003 c -0.00152,0.017342 -0.00543,0.034143 -0.00543,0.051864 v 5.6689984 c 0,0.348406 0.3002264,0.6291371 0.67282712,0.6291371 h 6.0626786 c 0.3726009,0 0.6728274,-0.2807311 0.6728274,-0.6291371 v -5.668998 c 0,-0.017722 -0.00391,-0.034522 -0.00543,-0.051864 z"
       style="opacity:1;fill:url(#linearGradient969-3);fill-opacity:1.0;stroke-width:0.523709"
       id="rect850-2" />
    <rect
       style="opacity:0.2;fill:#000000;fill-opacity:1;stroke:none;stroke-width:0.11517;stroke-miterlimit:4;stroke-dasharray:none;stroke-opacity:1"
       id="rect1982"
       width="7.4083333"
       height="0.5291667"
       x="0.53459418"
       y="1.5875003" />
    <path
       id="rect850"
       style="opacity:1;fill:url(#linearGradient869);fill-opacity:1;stroke-width:0.523709"
       d="M 7.9375025,6.8791666 H 0.52916918 v 0.4294312 c 0,0.348406 0.3002264,0.6289021 0.67282702,0.6289021 h 6.062679 c 0.3726011,0 0.6728273,-0.2804961 0.6728273,-0.6289021 z" />
    <circle
       style="opacity:0.5;fill:#000000;fill-opacity:1;stroke:none;stroke-width:0.0148706;stroke-miterlimit:4;stroke-dasharray:none;stroke-opacity:1"
       id="path2030"
       cx="2.5594766"
       cy="3.0427084"
       r="0.26458335" />
    <circle
       r="0.26458335"
       cy="3.0427084"
       cx="5.9795833"
       id="path2030-0"
       style="opacity:0.5;fill:#000000;fill-opacity:1;stroke:none;stroke-width:0.0148706;stroke-miterlimit:4;stroke-dasharray:none;stroke-opacity:1" />
    <path
       style="fill:none;stroke:url(#linearGradient928);stroke-width:0.324792px;stroke-linecap:butt;stroke-linejoin:miter;stroke-opacity:1"
       d="M 2.5487126,3.1076623 C 3.92279,-0.74362401 4.9944672,0.59207867 5.9996835,3.0677664"
       id="path1505"
       sodipodi:nodetypes="cc" />
    <path
       d="m 4.2333333,3.175 c -0.879475,0 -1.5875,0.7080272 -1.5875,1.5874977 0,0.8794796 0.708025,1.5875069 1.5875,1.5875069 0.879475,0 1.5875,-0.7080273 1.5875,-1.5875069 0,-0.8794705 -0.708025,-1.5874977 -1.5875,-1.5874977 z m 0,0.6803571 c 0.125639,0 0.2267856,0.1011532 0.2267856,0.2267835 V 4.7624977 H 4.6869047 A 0.22680839,0.22680839 0 0 1 4.8472492,5.1496345 L 4.3936779,5.6032014 a 0.22680839,0.22680839 0 0 1 -0.3206892,0 L 3.6194173,5.1496345 A 0.22680839,0.22680839 0 0 1 3.7797619,4.7624954 H 4.0065476 V 4.0821383 c 0,-0.1256302 0.1011466,-0.2267835 0.2267857,-0.2267812 z"
       fill="currentColor"
       style="color:#122036;opacity:0;fill:#000000;fill-opacity:1;stroke:none;stroke-width:0.226785"
       class="ColorScheme-Text"
       id="path4" />
  </g>
</svg>
