<?xml version="1.0" encoding="UTF-8" standalone="no"?>
<svg
   xmlns:dc="http://purl.org/dc/elements/1.1/"
   xmlns:cc="http://creativecommons.org/ns#"
   xmlns:rdf="http://www.w3.org/1999/02/22-rdf-syntax-ns#"
   xmlns:svg="http://www.w3.org/2000/svg"
   xmlns="http://www.w3.org/2000/svg"
   xmlns:xlink="http://www.w3.org/1999/xlink"
   xmlns:sodipodi="http://sodipodi.sourceforge.net/DTD/sodipodi-0.dtd"
   xmlns:inkscape="http://www.inkscape.org/namespaces/inkscape"
   width="32"
   height="32"
   viewBox="0 0 8.4666665 8.4666669"
   version="1.1"
   id="svg8"
   inkscape:version="1.0 (4035a4fb49, 2020-05-01)"
   sodipodi:docname="system-software-install.svg">
  <defs
     id="defs2">
    <linearGradient
       id="linearGradient967"
       inkscape:collect="always">
      <stop
         id="stop963"
         offset="0"
         style="stop-color:#8c3eff;stop-opacity:1" />
      <stop
         id="stop965"
         offset="1"
         style="stop-color:#ff3dd7;stop-opacity:1" />
    </linearGradient>
    <linearGradient
       id="backGrad"
       x1="0"
       y1="0"
       x2="1"
       y2="0">
      <stop
         stop-color="#D9D9D9"
         offset="0"
         id="stop7" />
      <stop
         stop-color="#EEE"
         offset="1"
         id="stop9" />
    </linearGradient>
    <linearGradient
       gradientUnits="userSpaceOnUse"
       gradientTransform="scale(0.83666003,1.1952286)"
       id="rightbackfoldGrad"
       xlink:href="#backGrad"
       x1="52.590059"
       y1="2.5099801"
       x2="48.406759"
       y2="2.5099801" />
    <linearGradient
       gradientUnits="userSpaceOnUse"
       gradientTransform="scale(1.2535663,0.79772404)"
       id="leftfrontfoldGrad"
       xlink:href="#frontGrad"
       x1="1.5954481"
       y1="6.8946149"
       x2="5.9829303"
       y2="6.8946149" />
    <linearGradient
       id="frontGrad"
       x1="0"
       y1="1"
       x2="0"
       y2="0">
      <stop
         stop-color="#ECECEC"
         offset="0"
         id="stop2" />
      <stop
         stop-color="#FFF"
         offset="1"
         id="stop4" />
    </linearGradient>
    <linearGradient
       gradientUnits="userSpaceOnUse"
       gradientTransform="matrix(0.20743998,0,0,0.11483281,0.52916682,0.25174582)"
       id="handleGrad"
       x1="9.5235031"
       y1="19.085414"
       x2="9.5235031"
       y2="2.4192836">
      <stop
         stop-color="#E6E6E6"
         offset="0"
         id="stop16" />
      <stop
         stop-color="#FFF"
         offset="1"
         id="stop18" />
    </linearGradient>
    <linearGradient
       inkscape:collect="always"
       xlink:href="#linearGradient967"
       id="linearGradient969-3"
       x1="-0.72647876"
       y1="-8.3804264"
       x2="-7.9087429"
       y2="-0.75710112"
       gradientUnits="userSpaceOnUse"
       gradientTransform="matrix(-1.1666666,0,0,-1.0909091,-0.70555391,-0.72159042)" />
    <filter
       height="1.2160046"
       y="-0.10800232"
       width="1.2159954"
       x="-0.10799768"
       id="filter2026"
       style="color-interpolation-filters:sRGB"
       inkscape:collect="always">
      <feGaussianBlur
         id="feGaussianBlur2028"
         stdDeviation="0.33336783"
         inkscape:collect="always" />
    </filter>
  </defs>
  <sodipodi:namedview
     id="base"
     pagecolor="#ffffff"
     bordercolor="#666666"
     borderopacity="1.0"
     inkscape:pageopacity="0.0"
     inkscape:pageshadow="2"
     inkscape:zoom="46.198377"
     inkscape:cx="20.095649"
     inkscape:cy="15.760825"
     inkscape:document-units="px"
     inkscape:current-layer="layer1"
     inkscape:document-rotation="0"
     showgrid="false"
     units="px"
     inkscape:window-width="1920"
     inkscape:window-height="1002"
     inkscape:window-x="0"
     inkscape:window-y="0"
     inkscape:window-maximized="1" />
  <metadata
     id="metadata5">
    <rdf:RDF>
      <cc:Work
         rdf:about="">
        <dc:format>image/svg+xml</dc:format>
        <dc:type
           rdf:resource="http://purl.org/dc/dcmitype/StillImage" />
        <dc:title />
      </cc:Work>
    </rdf:RDF>
  </metadata>
  <g
     inkscape:label="Capa 1"
     inkscape:groupmode="layer"
     id="layer1">
    <path
       d="m 4.1863076,0.53159172 c -0.091957,0.007 -0.184558,0.030162 -0.273885,0.07028 C 3.7337685,0.68210672 3.5663214,0.82360342 3.4008259,1.0256183 3.2793083,1.1739514 3.1577963,1.3687043 3.0359903,1.5873411 H 0.53433431 c -0.0015,0.017342 -0.005168,0.034472 -0.005168,0.052193 v 5.6689045 c 0,0.348406 0.30022667,0.6289022 0.67282719,0.6289022 h 6.0626789 c 0.3726008,0 0.6728272,-0.2804962 0.6728272,-0.6289022 V 1.6395341 c 0,-0.017722 -0.00416,-0.034851 -0.00568,-0.052193 H 5.4751179 C 5.4385983,1.5247854 5.402557,1.4588417 5.365564,1.4007893 5.0928984,0.97290012 4.8086746,0.65956572 4.457609,0.55898012 4.3698427,0.53383382 4.2782649,0.52459222 4.1863076,0.53159172 Z m 0.023771,0.322461 c 0.052617,-0.00413 0.1040468,0.00222 0.157613,0.01757 0.2142657,0.06139 0.4705729,0.30482668 0.7245038,0.70331618 0.00242,0.0038 0.00481,0.00857 0.00723,0.012402 H 3.4065104 C 3.4900161,1.448817 3.5721364,1.3269668 3.6509399,1.2307738 3.7948505,1.0551066 3.9287712,0.95131432 4.045231,0.89901122 c 0.05823,-0.026152 0.1122307,-0.040824 0.1648476,-0.0449585 z"
       style="opacity:0.5;fill:#000000;fill-opacity:1;stroke-width:0.523708;filter:url(#filter2026)"
       id="rect850-2-3" />
    <path
       id="rect850-2"
       style="opacity:1;fill:url(#linearGradient969-3);fill-opacity:1;stroke-width:0.523709"
       d="m 0.53459418,1.5875003 c -0.00152,0.017342 -0.00543,0.034143 -0.00543,0.051864 v 5.6689984 c 0,0.348406 0.3002264,0.6291371 0.67282712,0.6291371 h 6.0626786 c 0.3726009,0 0.6728274,-0.2807311 0.6728274,-0.6291371 v -5.668998 c 0,-0.017722 -0.00391,-0.034522 -0.00543,-0.051864 z" />
    <rect
       y="1.5875003"
       x="0.53459418"
       height="0.5291667"
       width="7.4083333"
       id="rect1982"
       style="opacity:0.2;fill:#000000;fill-opacity:1;stroke:none;stroke-width:0.11517;stroke-miterlimit:4;stroke-dasharray:none;stroke-opacity:1" />
    <path
       d="M 7.9375025,6.8791666 H 0.52916918 v 0.4294312 c 0,0.348406 0.3002264,0.6289021 0.67282702,0.6289021 h 6.062679 c 0.3726011,0 0.6728273,-0.2804961 0.6728273,-0.6289021 z"
       style="opacity:0.4;fill:#ffffff;fill-opacity:1;stroke-width:0.523709"
       id="rect850" />
    <circle
       r="0.26458335"
       cy="3.0427084"
       cx="2.5594766"
       id="path2030"
       style="opacity:0.5;fill:#000000;fill-opacity:1;stroke:none;stroke-width:0.0148706;stroke-miterlimit:4;stroke-dasharray:none;stroke-opacity:1" />
    <circle
       style="opacity:0.5;fill:#000000;fill-opacity:1;stroke:none;stroke-width:0.0148706;stroke-miterlimit:4;stroke-dasharray:none;stroke-opacity:1"
       id="path2030-0"
       cx="5.9795833"
       cy="3.0427084"
       r="0.26458335" />
    <path
       sodipodi:nodetypes="cc"
       id="path1505"
       d="M 2.5487126,3.1076623 C 3.92279,-0.74362401 4.9944672,0.59207867 5.9996835,3.0677664"
       style="fill:none;stroke:#e5e5e5;stroke-width:0.324792px;stroke-linecap:butt;stroke-linejoin:miter;stroke-opacity:1" />
    <path
       id="path4"
       class="ColorScheme-Text"
       style="color:#122036;opacity:0.4;fill:#ffffff;fill-opacity:1;stroke:none;stroke-width:0.226785"
       fill="currentColor"
       d="m 4.2333333,3.175 c -0.879475,0 -1.5875,0.7080272 -1.5875,1.5874977 0,0.8794796 0.708025,1.5875069 1.5875,1.5875069 0.879475,0 1.5875,-0.7080273 1.5875,-1.5875069 0,-0.8794705 -0.708025,-1.5874977 -1.5875,-1.5874977 z m 0,0.6803571 c 0.125639,0 0.2267856,0.1011532 0.2267856,0.2267835 V 4.7624977 H 4.6869047 A 0.22680839,0.22680839 0 0 1 4.8472492,5.1496345 L 4.3936779,5.6032014 a 0.22680839,0.22680839 0 0 1 -0.3206892,0 L 3.6194173,5.1496345 A 0.22680839,0.22680839 0 0 1 3.7797619,4.7624954 H 4.0065476 V 4.0821383 c 0,-0.1256302 0.1011466,-0.2267835 0.2267857,-0.2267812 z" />
  </g>
</svg>
