<?xml version="1.0" encoding="UTF-8" standalone="no"?>
<svg
   xmlns:dc="http://purl.org/dc/elements/1.1/"
   xmlns:cc="http://creativecommons.org/ns#"
   xmlns:rdf="http://www.w3.org/1999/02/22-rdf-syntax-ns#"
   xmlns:svg="http://www.w3.org/2000/svg"
   xmlns="http://www.w3.org/2000/svg"
   xmlns:sodipodi="http://sodipodi.sourceforge.net/DTD/sodipodi-0.dtd"
   xmlns:inkscape="http://www.inkscape.org/namespaces/inkscape"
   inkscape:version="1.0 (4035a4fb49, 2020-05-01)"
   sodipodi:docname="appimagekit-teams-for-linux.svg"
   id="svg34"
   version="1.1"
   height="32"
   width="32">
  <metadata
     id="metadata40">
    <rdf:RDF>
      <cc:Work
         rdf:about="">
        <dc:format>image/svg+xml</dc:format>
        <dc:type
           rdf:resource="http://purl.org/dc/dcmitype/StillImage" />
      </cc:Work>
    </rdf:RDF>
  </metadata>
  <defs
     id="defs38">
    <filter
       height="1.216"
       y="-0.108"
       width="1.216"
       x="-0.108"
       id="filter865"
       style="color-interpolation-filters:sRGB"
       inkscape:collect="always">
      <feGaussianBlur
         id="feGaussianBlur867"
         stdDeviation="0.675"
         inkscape:collect="always" />
    </filter>
    <filter
       height="1.3528"
       y="-0.17640001"
       width="1.3528"
       x="-0.17640001"
       id="filter899"
       style="color-interpolation-filters:sRGB"
       inkscape:collect="always">
      <feGaussianBlur
         id="feGaussianBlur901"
         stdDeviation="1.1025"
         inkscape:collect="always" />
    </filter>
    <filter
       height="1.4851001"
       y="-0.24255003"
       width="1.3528"
       x="-0.17640002"
       id="filter903"
       style="color-interpolation-filters:sRGB"
       inkscape:collect="always">
      <feGaussianBlur
         id="feGaussianBlur905"
         stdDeviation="1.1025"
         inkscape:collect="always" />
    </filter>
    <filter
       height="1.588"
       y="-0.29400001"
       width="1.588"
       x="-0.29400001"
       id="filter907"
       style="color-interpolation-filters:sRGB"
       inkscape:collect="always">
      <feGaussianBlur
         id="feGaussianBlur909"
         stdDeviation="1.1025"
         inkscape:collect="always" />
    </filter>
    <filter
       height="1.756"
       y="-0.37800001"
       width="1.756"
       x="-0.37800001"
       id="filter911"
       style="color-interpolation-filters:sRGB"
       inkscape:collect="always">
      <feGaussianBlur
         id="feGaussianBlur913"
         stdDeviation="1.1025"
         inkscape:collect="always" />
    </filter>
    <filter
       height="1.588"
       y="-0.29400001"
       width="1.588"
       x="-0.29400001"
       id="filter915"
       style="color-interpolation-filters:sRGB"
       inkscape:collect="always">
      <feGaussianBlur
         id="feGaussianBlur917"
         stdDeviation="1.1025"
         inkscape:collect="always" />
    </filter>
    <filter
       height="1.6860001"
       y="-0.34300005"
       width="1.588"
       x="-0.29400001"
       id="filter919"
       style="color-interpolation-filters:sRGB"
       inkscape:collect="always">
      <feGaussianBlur
         id="feGaussianBlur921"
         stdDeviation="1.1025"
         inkscape:collect="always" />
    </filter>
  </defs>
  <sodipodi:namedview
     inkscape:current-layer="svg34"
     inkscape:window-maximized="1"
     inkscape:window-y="27"
     inkscape:window-x="53"
     inkscape:cy="21.629629"
     inkscape:cx="16"
     inkscape:zoom="23.8125"
     showgrid="false"
     id="namedview36"
     inkscape:window-height="1019"
     inkscape:window-width="1867"
     inkscape:pageshadow="2"
     inkscape:pageopacity="0"
     guidetolerance="10"
     gridtolerance="10"
     objecttolerance="10"
     borderopacity="1"
     bordercolor="#666666"
     pagecolor="#ffffff" />
  <path
     style="fill:#000000;fill-opacity:1;filter:url(#filter919);opacity:0.5"
     d="M 22.964286,12.999715 C 22.430072,12.999715 22,13.429786 22,13.964 V 14.285429 20.159034 20.714 H 22.177037 30.822963 31 V 20.159034 14.285429 13.964 c 0,-0.534214 -0.430072,-0.964285 -0.964286,-0.964285 z"
     id="path6-3" />
  <circle
     style="fill:#000000;fill-opacity:1;filter:url(#filter915);opacity:0.5"
     cx="26.499998"
     cy="20.500002"
     r="4.5"
     id="circle8-6" />
  <circle
     style="fill:#000000;fill-opacity:1;filter:url(#filter911);opacity:0.5"
     cx="26.499998"
     cy="8.5"
     r="3.5"
     id="circle10-7" />
  <circle
     style="fill:#000000;fill-opacity:1;filter:url(#filter907);opacity:0.5"
     cx="17.5"
     cy="7.5"
     r="4.5"
     id="circle12-5" />
  <path
     style="fill:#000000;fill-opacity:1;filter:url(#filter903);opacity:0.5"
     d="M 11.704546,12.99991 C 10.760227,12.99991 10,13.760137 10,14.704455 v 1.704546 5.795454 1.022727 h 0.346235 c 0.310537,0.412496 0.799934,0.681818 1.358311,0.681818 h 11.590907 c 0.558377,0 1.047774,-0.269322 1.35831,-0.681818 h 0.346236 v -1.022727 -5.795454 -1.704546 c 0,-0.944318 -0.760228,-1.704545 -1.704546,-1.704545 z"
     id="path14-3" />
  <circle
     style="fill:#000000;fill-opacity:1;filter:url(#filter899);opacity:0.5"
     cx="17.5"
     cy="23.500002"
     r="7.5"
     id="circle18-5" />
  <path
     id="path6"
     d="M 22.964286,11.999715 C 22.430072,11.999715 22,12.429786 22,12.964 V 13.285429 19.159034 19.714 H 22.177037 30.822963 31 V 19.159034 13.285429 12.964 c 0,-0.534214 -0.430072,-0.964285 -0.964286,-0.964285 z"
     style="fill:#5059c9" />
  <circle
     id="circle8"
     r="4.5"
     cy="19.5"
     cx="26.5"
     style="fill:#5059c9" />
  <circle
     id="circle10"
     r="3.5"
     cy="7.5"
     cx="26.5"
     style="fill:#5059c9" />
  <circle
     id="circle12"
     r="4.5"
     cy="6.5"
     cx="17.5"
     style="fill:#7b83eb" />
  <path
     id="path14"
     d="m 11.704546,11.99991 c -0.944319,0 -1.7045462,0.760227 -1.7045462,1.704545 v 1.704546 5.795454 1.022727 h 0.3462352 c 0.310537,0.412496 0.799934,0.681818 1.358311,0.681818 h 11.590907 c 0.558377,0 1.047774,-0.269322 1.35831,-0.681818 h 0.346236 v -1.022727 -5.795454 -1.704546 c 0,-0.944318 -0.760228,-1.704545 -1.704546,-1.704545 z"
     style="fill:#7b83eb" />
  <circle
     id="circle18"
     r="7.5"
     cy="22.5"
     cx="17.5"
     style="fill:#7b83eb" />
  <rect
     id="rect20"
     ry="1.023"
     rx="1.023"
     y="9"
     x="2"
     height="15"
     width="15"
     style="opacity:0.5;filter:url(#filter865)" />
  <rect
     id="rect22"
     ry="1.023"
     rx="1.023"
     y="8"
     x="2"
     height="15"
     width="15"
     style="fill:#5059c9" />
  <rect
     id="rect26"
     y="11"
     x="5"
     height="3"
     width="9"
     style="fill:#ffffff" />
  <rect
     id="rect28"
     transform="rotate(90)"
     y="-11"
     x="13"
     height="3"
     width="7"
     style="fill:#ffffff" />
</svg>
