<?xml version="1.0" encoding="UTF-8" standalone="no"?>
<svg
   xmlns:dc="http://purl.org/dc/elements/1.1/"
   xmlns:cc="http://creativecommons.org/ns#"
   xmlns:rdf="http://www.w3.org/1999/02/22-rdf-syntax-ns#"
   xmlns:svg="http://www.w3.org/2000/svg"
   xmlns="http://www.w3.org/2000/svg"
   xmlns:xlink="http://www.w3.org/1999/xlink"
   xmlns:sodipodi="http://sodipodi.sourceforge.net/DTD/sodipodi-0.dtd"
   xmlns:inkscape="http://www.inkscape.org/namespaces/inkscape"
   width="32"
   height="32"
   viewBox="0 0 8.4666665 8.4666669"
   version="1.1"
   id="svg8"
   inkscape:version="0.92.5 (2060ec1f9f, 2020-04-08)"
   sodipodi:docname="utilities-log-viewer.svg">
  <defs
     id="defs2">
    <linearGradient
       inkscape:collect="always"
       id="linearGradient904">
      <stop
         style="stop-color:#fd3d52;stop-opacity:1;"
         offset="0"
         id="stop900" />
      <stop
         style="stop-color:#e6021b;stop-opacity:1"
         offset="1"
         id="stop902" />
    </linearGradient>
    <filter
       height="1.2005714"
       y="-0.10028571"
       width="1.234"
       x="-0.117"
       id="filter5051"
       style="color-interpolation-filters:sRGB"
       inkscape:collect="always">
      <feGaussianBlur
         id="feGaussianBlur5053"
         stdDeviation="0.3095625"
         inkscape:collect="always" />
    </filter>
    <filter
       height="1.216"
       y="-0.108"
       width="1.216"
       x="-0.108"
       id="filter862"
       style="color-interpolation-filters:sRGB"
       inkscape:collect="always">
      <feGaussianBlur
         id="feGaussianBlur864"
         stdDeviation="1.26"
         inkscape:collect="always" />
    </filter>
    <filter
       height="1.21612"
       y="-0.10805998"
       width="1.2158802"
       x="-0.10794009"
       id="filter843"
       style="color-interpolation-filters:sRGB"
       inkscape:collect="always">
      <feGaussianBlur
         id="feGaussianBlur845"
         stdDeviation="0.63050655"
         inkscape:collect="always" />
    </filter>
    <linearGradient
       inkscape:collect="always"
       xlink:href="#linearGradient904"
       id="linearGradient906"
       x1="3.6449835"
       y1="-5.8208334"
       x2="7.9966829"
       y2="-5.8208334"
       gradientUnits="userSpaceOnUse" />
  </defs>
  <sodipodi:namedview
     id="base"
     pagecolor="#ffffff"
     bordercolor="#666666"
     borderopacity="1.0"
     inkscape:pageopacity="0.0"
     inkscape:pageshadow="2"
     inkscape:zoom="36.018252"
     inkscape:cx="24.629506"
     inkscape:cy="9.0602111"
     inkscape:document-units="px"
     inkscape:current-layer="layer1"
     inkscape:document-rotation="0"
     showgrid="false"
     units="px"
     inkscape:window-width="1920"
     inkscape:window-height="1023"
     inkscape:window-x="0"
     inkscape:window-y="25"
     inkscape:window-maximized="1" />
  <metadata
     id="metadata5">
    <rdf:RDF>
      <cc:Work
         rdf:about="">
        <dc:format>image/svg+xml</dc:format>
        <dc:type
           rdf:resource="http://purl.org/dc/dcmitype/StillImage" />
        <dc:title></dc:title>
      </cc:Work>
    </rdf:RDF>
  </metadata>
  <g
     inkscape:label="Capa 1"
     inkscape:groupmode="layer"
     id="layer1">
    <rect
       y="0.5291667"
       x="1.0583334"
       height="7.4083333"
       width="6.3499999"
       id="rect833-3"
       style="opacity:0.5;fill:#000000;fill-opacity:1;stroke:none;stroke-width:2.29353;filter:url(#filter5051)" />
    <rect
       style="opacity:1;fill:#e5e5e5;fill-opacity:1;stroke:none;stroke-width:2.29353"
       id="rect833"
       width="6.3499999"
       height="7.4083333"
       x="1.0583334"
       y="0.5291667" />
    <path
       inkscape:connector-curvature="0"
       style="opacity:0.4;fill:none;stroke:#000000;stroke-width:0.127908px;stroke-linecap:butt;stroke-linejoin:miter;stroke-opacity:1"
       id="path3475"
       d="m 2.1166667,1.651454 h 0.3988697 z m 0.4573703,0 h 0.3722781 z m 0.4307791,0 h 0.3297317 z m 0.3829145,0 h 0.1435931 z m 0.202094,0 h 0.3190952 z m 0.3829143,0 h 0.8402849 z m 0.8934672,0 h 0.6435093 z m 0.6966921,0 H 5.7596739 Z M 2.1166667,2.0387358 h 0.6222362 z m 0.691374,0 h 0.2978219 z m 0.351005,0 h 0.1489112 z m 0.2074121,0 h 0.271231 z m 0.3297315,0 h 0.2765496 z m 0.3297324,0 H 4.467337 Z m 0.4999157,0 h 0.5743723 z m 0.6275546,0 h 0.3829148 z m 0.4360974,0 h 0.095729 z M 2.1166667,2.4233132 h 0.5265078 z m 0.5796902,0 h 0.8615579 z m 0.9147405,0 h 0.4201425 z m 0.473325,0 h 0.3935511 z m 0.4467339,0 h 0.3350498 z m 0.3882321,0 0.5265082,0.00541 z m 0.5743721,0.00541 H 6.35 Z M 2.1166667,2.8133 h 0.7286019 z m 0.7871029,0 h 0.7871018 z m 0.8402844,0 h 0.3137773 z m 0.3669596,0 h 0.7392379 z m 0.7871021,0 h 0.5052348 z m 0.5637355,0 h 0.2020935 z m 0.2552761,0 h 0.1116835 z m 0.1701845,0 H 6.2010891 Z M 2.1166667,3.2005822 h 0.2712311 z m 0.3563234,0 h 1.005151 z M 2.1166667,3.8460523 h 0.3988697 z m 0.4573703,0 h 0.36696 z m 0.4307791,0 h 0.3297317 z m 0.3829145,0 h 0.1435931 z m 0.202094,0 h 0.3190952 z m 0.3829143,0 h 0.8349663 z m 0.8934672,0 h 0.6381912 z m 0.6913735,0 h 0.2020943 z m 0.2552766,0 H 6.2914994 Z M 2.1166667,4.2333338 h 0.6701009 z m 0.7232835,0 h 0.7179646 z m 0.7711472,0 H 3.887647 Z m 0.3297322,0 h 0.6754188 z m 0.7286011,0 h 0.8509215 z m 0.9094219,0 H 5.8926299 Z M 2.1166667,4.6206155 h 0.7286019 z m 0.7871029,0 h 0.7871018 z m 0.8402844,0 h 0.3137773 z m 0.3669596,0 h 0.7392379 z m 0.7871021,0 h 0.5052348 z m 0.5637355,0 h 0.2020935 z m 0.2552761,0 h 0.1116835 z m 0.1701845,0 h 0.3137773 z m -3.7706451,0.387282 h 0.6222362 z m 0.691374,0 h 0.2978219 z m 0.351005,0 h 0.1489112 z m 0.2074121,0 h 0.271231 z m 0.3297315,0 h 0.2765496 z m 0.3297324,0 H 4.467337 Z m 0.4999157,0 h 0.5743723 z m 0.6275546,0 h 0.3829148 z m 0.4360974,0 h 0.095729 z M 2.1166667,5.6506633 h 0.5265078 z m 0.5796902,0 h 0.8615579 z m 0.9147405,0 h 0.4201425 z m 0.473325,0 h 0.3935511 z m 0.4467339,0 h 0.3350498 z m 0.3882321,0 0.5265082,0.00541 z m 0.5743721,0.00541 H 6.35 Z M 2.1166667,6.0406488 h 0.6222362 z m 0.691374,0 h 0.2978219 z m 0.351005,0 h 0.1489112 z m 0.2074121,0 h 0.271231 z m 0.3297315,0 h 0.2765496 z m 0.3297324,0 H 4.467337 Z m 0.4999157,0 h 0.5743723 z m 0.6275546,0 h 0.3829148 z m 0.4360974,0 h 0.095729 z m -3.4728227,0.387282 h 0.6594644 z m 0.7179651,0 H 3.042044 Z m 0.2605945,0 h 0.473325 z m 0.5265076,0 h 0.6966919 z m 0.7551923,0 h 0.4733253 z m 0.5211895,0 h 0.101047 z m 0.1542296,0 h 0.6009632 z m 0.664782,0 H 6.0309046 Z M 2.1166667,6.8152126 h 0.6594644 z m 0.7179651,0 h 0.2978224 z m 0.351005,0 h 0.4680067 z m 0.5211895,0 h 0.5052343 z m 0.563735,0 h 0.2020938 z m 0.2552761,0 h 0.1116838 z m 0.1701845,0 h 0.3137778 z" />
    <rect
       style="opacity:0.5;fill:#000000;fill-opacity:1;filter:url(#filter862)"
       width="28"
       height="28"
       x="3.0240002"
       y="3.0240002"
       rx="14"
       ry="14"
       id="rect4-4"
       transform="matrix(0.15541785,0,0,0.15541785,3.1749999,3.1749999)" />
    <rect
       transform="rotate(90)"
       id="rect4"
       ry="2.1758497"
       rx="2.1758497"
       y="-7.9966831"
       x="3.6449835"
       height="4.3516994"
       width="4.3516994"
       style="fill:url(#linearGradient906);fill-opacity:1;stroke-width:0.15541784" />
    <path
       inkscape:connector-curvature="0"
       style="opacity:0.5;filter:url(#filter843)"
       id="path6"
       d="m 18.545,11.0205 c -3.0288,0 -5.5312,2.4746 -5.5312,5.5 0,1.1499 0.38921,2.2078 1,3.0938 l -3.6875,3.6875 a 1.0055,1.0055 0 0 0 1.4063,1.4375 l 3.6875,-3.6875 c 0.88729,0.61091 1.973,0.96875 3.125,0.96875 3.0289,0 5.5,-2.4746 5.5,-5.5 0,-3.0254 -2.4711,-5.5 -5.5,-5.5 z m 0,2 c 1.9474,0 3.5,1.5548 3.5,3.5 0,1.9451 -1.5526,3.5 -3.5,3.5 -1.9474,0 -3.5,-1.5549 -3.5,-3.5 0,-1.9452 1.5526,-3.5 3.5,-3.5 z"
       transform="matrix(0.15541785,0,0,0.15541785,3.1749999,3.1749999)" />
    <path
       inkscape:connector-curvature="0"
       style="fill:#ffffff;stroke-width:0.15541784"
       id="path10"
       d="m 6.0572238,4.7320537 c -0.4707294,0 -0.8596472,0.384597 -0.8596472,0.8547981 0,0.178715 0.06049,0.3431315 0.1554184,0.4808316 L 4.7798916,6.6407867 A 0.15627265,0.15627265 0 0 0 4.9984559,6.8641999 L 5.5715591,6.2910965 c 0.1379,0.094946 0.3066394,0.1505618 0.4856809,0.1505618 0.470745,0 0.854798,-0.384597 0.854798,-0.8547983 0,-0.4702008 -0.384053,-0.8547981 -0.854798,-0.8547981 z m 0,0.3108356 c 0.3026608,0 0.5439624,0.2416436 0.5439624,0.5439625 0,0.3023031 -0.2413016,0.5439622 -0.5439624,0.5439622 -0.3026607,0 -0.5439623,-0.2416591 -0.5439623,-0.5439622 0,-0.3023189 0.2413016,-0.5439625 0.5439623,-0.5439625 z" />
  </g>
</svg>
