<?xml version="1.0" encoding="UTF-8" standalone="no"?>
<svg
   xmlns:dc="http://purl.org/dc/elements/1.1/"
   xmlns:cc="http://creativecommons.org/ns#"
   xmlns:rdf="http://www.w3.org/1999/02/22-rdf-syntax-ns#"
   xmlns:svg="http://www.w3.org/2000/svg"
   xmlns="http://www.w3.org/2000/svg"
   xmlns:xlink="http://www.w3.org/1999/xlink"
   xmlns:sodipodi="http://sodipodi.sourceforge.net/DTD/sodipodi-0.dtd"
   xmlns:inkscape="http://www.inkscape.org/namespaces/inkscape"
   inkscape:version="1.0.1 (3bc2e813f5, 2020-09-07)"
   sodipodi:docname="virtualbox.svg"
   id="svg16"
   version="1"
   height="32"
   width="32">
  <metadata
     id="metadata22">
    <rdf:RDF>
      <cc:Work
         rdf:about="">
        <dc:format>image/svg+xml</dc:format>
        <dc:type
           rdf:resource="http://purl.org/dc/dcmitype/StillImage" />
      </cc:Work>
    </rdf:RDF>
  </metadata>
  <defs
     id="defs20">
    <linearGradient
       id="linearGradient875"
       inkscape:collect="always">
      <stop
         id="stop871"
         offset="0"
         style="stop-color:#0066cc;stop-opacity:1;" />
      <stop
         id="stop873"
         offset="1"
         style="stop-color:#0099ff;stop-opacity:1" />
    </linearGradient>
    <linearGradient
       gradientUnits="userSpaceOnUse"
       y2="30"
       x2="16"
       y1="2"
       x1="16"
       id="linearGradient877"
       xlink:href="#linearGradient875"
       inkscape:collect="always" />
    <filter
       inkscape:collect="always"
       style="color-interpolation-filters:sRGB"
       id="filter40300"
       x="-0.075"
       width="1.15"
       y="-0.075"
       height="1.15">
      <feGaussianBlur
         inkscape:collect="always"
         stdDeviation="0.875"
         id="feGaussianBlur40302" />
    </filter>
  </defs>
  <sodipodi:namedview
     inkscape:current-layer="svg16"
     inkscape:window-maximized="1"
     inkscape:window-y="0"
     inkscape:window-x="0"
     inkscape:cy="16"
     inkscape:cx="14.974359"
     inkscape:zoom="24.375"
     showgrid="false"
     id="namedview18"
     inkscape:window-height="1000"
     inkscape:window-width="1920"
     inkscape:pageshadow="2"
     inkscape:pageopacity="0"
     guidetolerance="10"
     gridtolerance="10"
     objecttolerance="10"
     borderopacity="1"
     bordercolor="#666666"
     pagecolor="#ffffff"
     inkscape:document-rotation="0" />
  <rect
     id="rect2"
     ry="1.4"
     rx="1.4"
     y="2"
     x="2"
     height="28"
     width="28"
     style="opacity:0.5;filter:url(#filter40300)" />
  <rect
     id="rect4"
     ry="1.4"
     rx="1.4"
     y="2"
     x="2"
     height="28"
     width="28"
     style="fill:url(#linearGradient877);fill-opacity:1" />
  <path
     id="path6"
     d="M 4.1,13.5 H 9 l 2.8,7.89 3.5,-10.29 2.45,5.6 2.45,-6.3 2.8,8.1 h 4.2"
     style="fill:none;stroke:none;stroke-width:3;stroke-linecap:square" />
  <path
     id="path10"
     d="M 6.0996094 5 C 5.4902094 5 5 5.4902094 5 6.0996094 L 5 12 L 10.058594 12 L 11.769531 16.822266 L 15.125 6.9570312 L 17.667969 12.771484 L 20.283203 6.0488281 L 24.068359 17 L 27 17 L 27 6.0996094 C 27 5.4902094 26.509791 5 25.900391 5 L 6.0996094 5 z M 20.117188 14.75 L 17.832031 20.628906 L 15.476562 15.244141 L 11.830078 25.958984 L 7.9414062 15 L 5 15 L 5 25.900391 C 5 26.509791 5.4902094 27 6.0996094 27 L 25.900391 27 C 26.509791 27 27 26.509791 27 25.900391 L 27 20 L 21.931641 20 L 20.117188 14.75 z"
     style="fill:#f9feff;fill-opacity:1;opacity:0.7" />
</svg>
