<?xml version="1.0" encoding="UTF-8" standalone="no"?>
<svg
   xmlns:dc="http://purl.org/dc/elements/1.1/"
   xmlns:cc="http://creativecommons.org/ns#"
   xmlns:rdf="http://www.w3.org/1999/02/22-rdf-syntax-ns#"
   xmlns:svg="http://www.w3.org/2000/svg"
   xmlns="http://www.w3.org/2000/svg"
   xmlns:sodipodi="http://sodipodi.sourceforge.net/DTD/sodipodi-0.dtd"
   xmlns:inkscape="http://www.inkscape.org/namespaces/inkscape"
   inkscape:version="1.0 (4035a4fb49, 2020-05-01)"
   sodipodi:docname="wps-office2019-kprometheus.svg"
   id="svg12"
   version="1"
   height="32"
   width="32">
  <metadata
     id="metadata18">
    <rdf:RDF>
      <cc:Work
         rdf:about="">
        <dc:format>image/svg+xml</dc:format>
        <dc:type
           rdf:resource="http://purl.org/dc/dcmitype/StillImage" />
      </cc:Work>
    </rdf:RDF>
  </metadata>
  <defs
     id="defs16">
    <filter
       height="1.2789746"
       y="-0.13948728"
       width="1.1762207"
       x="-0.088110336"
       id="filter3159"
       style="color-interpolation-filters:sRGB"
       inkscape:collect="always">
      <feGaussianBlur
         id="feGaussianBlur3161"
         stdDeviation="0.697507"
         inkscape:collect="always" />
    </filter>
    <filter
       height="1.2044286"
       y="-0.10221429"
       width="1.22896"
       x="-0.11448"
       id="filter3163"
       style="color-interpolation-filters:sRGB"
       inkscape:collect="always">
      <feGaussianBlur
         id="feGaussianBlur3165"
         stdDeviation="1.1925"
         inkscape:collect="always" />
    </filter>
  </defs>
  <sodipodi:namedview
     inkscape:current-layer="svg12"
     inkscape:window-maximized="1"
     inkscape:window-y="0"
     inkscape:window-x="0"
     inkscape:cy="16"
     inkscape:cx="16"
     inkscape:zoom="24.375"
     showgrid="false"
     id="namedview14"
     inkscape:window-height="1002"
     inkscape:window-width="1920"
     inkscape:pageshadow="2"
     inkscape:pageopacity="0"
     guidetolerance="10"
     gridtolerance="10"
     objecttolerance="10"
     borderopacity="1"
     bordercolor="#666666"
     pagecolor="#ffffff" />
  <path
     id="path2"
     d="m 16.574599,2.0000005 v 0.00137 a 3.1706083,3.1835191 0 0 0 -1.660157,0.423828 L 5.5855576,7.8337689 A 3.1706083,3.1835191 0 0 0 4,10.591377 v 10.81715 a 3.1706083,3.1835191 0 0 0 1.5855576,2.75624 l 9.3288844,5.408575 a 3.1706083,3.1835191 0 0 0 3.171115,0 l 9.328885,-5.408575 A 3.1706083,3.1835191 0 0 0 29,21.408527 V 10.591377 A 3.1706083,3.1835191 0 0 0 27.414442,7.8337689 L 18.085557,2.4251943 A 3.1706083,3.1835191 0 0 0 16.574599,2.0000005 Z"
     style="opacity:0.5;filter:url(#filter3163)" />
  <path
     id="path4"
     d="m 16.574599,2.0000002 v 0.00137 a 3.1706083,3.1835191 0 0 0 -1.660157,0.423828 L 5.5855576,7.8337686 A 3.1706083,3.1835191 0 0 0 4,10.591377 v 10.81715 a 3.1706083,3.1835191 0 0 0 1.5855576,2.75624 l 9.3288844,5.408575 a 3.1706083,3.1835191 0 0 0 3.171115,0 l 9.328885,-5.408575 A 3.1706083,3.1835191 0 0 0 29,21.408527 V 10.591377 A 3.1706083,3.1835191 0 0 0 27.414442,7.8337686 L 18.085557,2.425194 A 3.1706083,3.1835191 0 0 0 16.574599,2.0000002 Z"
     style="fill:#2975e6" />
  <path
     id="path6"
     d="m 8,12 a 1.0002488,1.0002488 0 0 0 -0.8886719,1.457031 l 5.1367189,10 a 1.0002488,1.0002488 0 0 0 1.748047,0.05469 l 1.789062,-3 0.431641,-0.722657 1.199219,-2.009765 0.818359,-1.371094 L 19.669922,14 h 3.572266 l -4.140626,6.958984 -1.27539,-2.404296 -1.199219,2.009765 1.539063,2.904297 a 1.0002488,1.0002488 0 0 0 1.74414,0.04297 l 5.949219,-10 A 1.0002488,1.0002488 0 0 0 25,12 h -5.898438 a 1.0002488,1.0002488 0 0 0 -0.859374,0.488281 l -1.431641,2.400391 -0.445313,0.746094 -1.207031,2.021484 -0.71875,1.207031 L 13.203125,20.9375 9.6386719,14 h 3.6347661 l 1.480468,2.871094 1.205078,-2.023438 -1.1875,-2.30664 A 1.0002488,1.0002488 0 0 0 13.882812,12 Z"
     style="opacity:0.5;filter:url(#filter3159)" />
  <path
     id="path8"
     d="M 8 11 A 1.0002488 1.0002488 0 0 0 7.1113281 12.457031 L 12.248047 22.457031 A 1.0002488 1.0002488 0 0 0 13.996094 22.511719 L 15.785156 19.511719 L 16.216797 18.789062 L 17.416016 16.779297 L 18.234375 15.408203 L 19.669922 13 L 23.242188 13 L 19.101562 19.958984 L 17.826172 17.554688 L 16.626953 19.564453 L 18.166016 22.46875 A 1.0002488 1.0002488 0 0 0 19.910156 22.511719 L 25.859375 12.511719 A 1.0002488 1.0002488 0 0 0 25 11 L 19.101562 11 A 1.0002488 1.0002488 0 0 0 18.242188 11.488281 L 16.810547 13.888672 L 16.365234 14.634766 L 15.158203 16.65625 L 14.439453 17.863281 L 13.203125 19.9375 L 9.6386719 13 L 13.273438 13 L 14.753906 15.871094 L 15.958984 13.847656 L 14.771484 11.541016 A 1.0002488 1.0002488 0 0 0 13.882812 11 L 8 11 z"
     style="fill:#ffffff" />
</svg>
