<?xml version="1.0" encoding="UTF-8" standalone="no"?>
<svg
   xmlns:dc="http://purl.org/dc/elements/1.1/"
   xmlns:cc="http://creativecommons.org/ns#"
   xmlns:rdf="http://www.w3.org/1999/02/22-rdf-syntax-ns#"
   xmlns:svg="http://www.w3.org/2000/svg"
   xmlns="http://www.w3.org/2000/svg"
   xmlns:xlink="http://www.w3.org/1999/xlink"
   xmlns:sodipodi="http://sodipodi.sourceforge.net/DTD/sodipodi-0.dtd"
   xmlns:inkscape="http://www.inkscape.org/namespaces/inkscape"
   inkscape:version="1.0.1 (3bc2e813f5, 2020-09-07)"
   sodipodi:docname="xchat.svg"
   id="svg18"
   version="1"
   height="32"
   width="32">
  <metadata
     id="metadata24">
    <rdf:RDF>
      <cc:Work
         rdf:about="">
        <dc:format>image/svg+xml</dc:format>
        <dc:type
           rdf:resource="http://purl.org/dc/dcmitype/StillImage" />
        <dc:title></dc:title>
      </cc:Work>
    </rdf:RDF>
  </metadata>
  <defs
     id="defs22">
    <linearGradient
       inkscape:collect="always"
       id="linearGradient961">
      <stop
         style="stop-color:#f2f2f2;stop-opacity:1;"
         offset="0"
         id="stop957" />
      <stop
         style="stop-color:#ffffff;stop-opacity:1"
         offset="1"
         id="stop959" />
    </linearGradient>
    <linearGradient
       id="linearGradient922"
       inkscape:collect="always">
      <stop
         id="stop918"
         offset="0"
         style="stop-color:#ffc955;stop-opacity:1" />
      <stop
         id="stop920"
         offset="1"
         style="stop-color:#ec6060;stop-opacity:1" />
    </linearGradient>
    <linearGradient
       inkscape:collect="always"
       xlink:href="#linearGradient922"
       id="linearGradient908"
       x1="48.420128"
       y1="0.16935705"
       x2="76.373047"
       y2="27.998047"
       gradientUnits="userSpaceOnUse"
       gradientTransform="translate(-46.373047,2.0019531)" />
    <filter
       inkscape:collect="always"
       style="color-interpolation-filters:sRGB"
       id="filter934"
       x="-0.075000001"
       width="1.15"
       y="-0.074999999"
       height="1.15">
      <feGaussianBlur
         inkscape:collect="always"
         stdDeviation="0.87500001"
         id="feGaussianBlur936" />
    </filter>
    <filter
       inkscape:collect="always"
       style="color-interpolation-filters:sRGB"
       id="filter953"
       x="-0.075"
       width="1.15"
       y="-0.075"
       height="1.15">
      <feGaussianBlur
         inkscape:collect="always"
         stdDeviation="0.5"
         id="feGaussianBlur955" />
    </filter>
    <linearGradient
       inkscape:collect="always"
       xlink:href="#linearGradient961"
       id="linearGradient963"
       x1="21.751211"
       y1="25.449255"
       x2="22.190363"
       y2="13.958333"
       gradientUnits="userSpaceOnUse" />
  </defs>
  <sodipodi:namedview
     inkscape:current-layer="svg18"
     inkscape:window-maximized="1"
     inkscape:window-y="25"
     inkscape:window-x="0"
     inkscape:cy="14.299495"
     inkscape:cx="26.498005"
     inkscape:zoom="16"
     inkscape:guide-bbox="true"
     showguides="true"
     showgrid="false"
     id="namedview20"
     inkscape:window-height="963"
     inkscape:window-width="1920"
     inkscape:pageshadow="2"
     inkscape:pageopacity="0"
     guidetolerance="10"
     gridtolerance="10"
     objecttolerance="10"
     borderopacity="1"
     bordercolor="#666666"
     pagecolor="#ffffff"
     inkscape:document-rotation="0" />
  <path
     id="rect843-6"
     style="opacity:0.5;fill:#000000;fill-opacity:1;stroke-width:1.19418;filter:url(#filter934)"
     d="M 8.539062,1.9999996 C 4.916603,1.9999996 2,4.9146497 2,8.537109 V 14 15.460937 30 c 1.458229,-3.386084 2.331019,-7.120697 8,-8 H 23.460937 C 27.083397,22 30,19.083396 30,15.460937 V 8.537109 C 30,4.9146496 27.083397,1.9999996 23.460937,1.9999996 Z"
     sodipodi:nodetypes="ssccccsssss" />
  <path
     id="rect843"
     style="opacity:1;fill:url(#linearGradient908);fill-opacity:1;stroke-width:1.19418"
     d="M 8.539062,1.9999999 C 4.916603,1.9999999 2,4.91465 2,8.5371093 V 14 15.460937 30 c 1.458229,-3.386084 2.331019,-7.120697 8,-8 H 23.460937 C 27.083397,22 30,19.083396 30,15.460937 V 8.5371093 C 30,4.9146499 27.083397,1.9999999 23.460937,1.9999999 Z"
     sodipodi:nodetypes="ssccccsssss" />
  <path
     id="rect843-7-2"
     style="opacity:0.5;fill:#000000;fill-opacity:1;stroke-width:0.682389;filter:url(#filter953)"
     d="M 26.263393,14 C 28.33337,14 30,15.665514 30,17.735491 V 20.857143 21.691964 30 C 29.166726,28.065095 28.667989,25.93103 25.428571,25.428571 H 17.736607 C 15.66663,25.428571 14,23.761941 14,21.691964 V 17.735491 C 14,15.665514 15.66663,14 17.736607,14 Z"
     sodipodi:nodetypes="ssccccsssss" />
  <path
     id="rect843-7"
     style="opacity:1;fill:url(#linearGradient963);fill-opacity:1;stroke-width:0.682389"
     d="M 26.263393,14 C 28.33337,14 30,15.665514 30,17.735491 V 20.857143 21.691964 30 C 29.166726,28.065095 28.667989,25.93103 25.428571,25.428571 H 17.736607 C 15.66663,25.428571 14,23.761941 14,21.691964 V 17.735491 C 14,15.665514 15.66663,14 17.736607,14 Z"
     sodipodi:nodetypes="ssccccsssss" />
  <circle
     style="opacity:0.4;fill:#000000;fill-opacity:1;stroke:none;stroke-width:0.415844"
     id="path1068"
     cx="18"
     cy="20"
     r="1.5" />
  <circle
     style="opacity:0.4;fill:#000000;fill-opacity:1;stroke:none;stroke-width:0.415844"
     id="path1068-6"
     cx="22"
     cy="20"
     r="1.5" />
  <circle
     style="opacity:0.4;fill:#000000;fill-opacity:1;stroke:none;stroke-width:0.415844"
     id="path1068-2"
     cx="26"
     cy="20"
     r="1.5" />
</svg>
