<?xml version="1.0" encoding="UTF-8" standalone="no"?>
<svg
   xmlns:dc="http://purl.org/dc/elements/1.1/"
   xmlns:cc="http://creativecommons.org/ns#"
   xmlns:rdf="http://www.w3.org/1999/02/22-rdf-syntax-ns#"
   xmlns:svg="http://www.w3.org/2000/svg"
   xmlns="http://www.w3.org/2000/svg"
   xmlns:xlink="http://www.w3.org/1999/xlink"
   xmlns:sodipodi="http://sodipodi.sourceforge.net/DTD/sodipodi-0.dtd"
   xmlns:inkscape="http://www.inkscape.org/namespaces/inkscape"
   width="32"
   height="32"
   version="1"
   id="svg18"
   sodipodi:docname="xchat.svg"
   inkscape:version="1.0 (4035a4fb49, 2020-05-01)">
  <metadata
     id="metadata24">
    <rdf:RDF>
      <cc:Work
         rdf:about="">
        <dc:format>image/svg+xml</dc:format>
        <dc:type
           rdf:resource="http://purl.org/dc/dcmitype/StillImage" />
        <dc:title></dc:title>
      </cc:Work>
    </rdf:RDF>
  </metadata>
  <defs
     id="defs22">
    <linearGradient
       inkscape:collect="always"
       id="linearGradient922">
      <stop
         style="stop-color:#ffc637;stop-opacity:1"
         offset="0"
         id="stop918" />
      <stop
         style="stop-color:#ff1c1c;stop-opacity:1"
         offset="1"
         id="stop920" />
    </linearGradient>
    <linearGradient
       inkscape:collect="always"
       xlink:href="#linearGradient922"
       id="linearGradient924"
       x1="16"
       y1="2"
       x2="16"
       y2="30"
       gradientUnits="userSpaceOnUse" />
    <filter
       inkscape:collect="always"
       style="color-interpolation-filters:sRGB"
       id="filter950"
       x="-0.108"
       width="1.216"
       y="-0.108"
       height="1.216">
      <feGaussianBlur
         inkscape:collect="always"
         stdDeviation="1.26"
         id="feGaussianBlur952" />
    </filter>
    <filter
       inkscape:collect="always"
       style="color-interpolation-filters:sRGB"
       id="filter969"
       x="-0.108"
       width="1.216"
       y="-0.108"
       height="1.216">
      <feGaussianBlur
         inkscape:collect="always"
         stdDeviation="0.72"
         id="feGaussianBlur971" />
    </filter>
  </defs>
  <sodipodi:namedview
     inkscape:document-rotation="0"
     pagecolor="#ffffff"
     bordercolor="#666666"
     borderopacity="1"
     objecttolerance="10"
     gridtolerance="10"
     guidetolerance="10"
     inkscape:pageopacity="0"
     inkscape:pageshadow="2"
     inkscape:window-width="1920"
     inkscape:window-height="1001"
     id="namedview20"
     showgrid="false"
     showguides="true"
     inkscape:guide-bbox="true"
     inkscape:zoom="16"
     inkscape:cx="9.248888"
     inkscape:cy="18.878607"
     inkscape:window-x="0"
     inkscape:window-y="0"
     inkscape:window-maximized="1"
     inkscape:current-layer="svg18" />
  <path
     sodipodi:nodetypes="ssssccccssss"
     d="M 27.385937,2 C 28.83474,2 30,3.1652602 30,4.6140625 V 21.785937 C 30,23.234739 28.83474,24.4 27.385937,24.4 H 7.6 L 2,30 v -5.6 0 C 2,21.785937 2,23.234739 2,21.785937 V 4.6140625 C 2,3.1652602 3.165261,2 4.614063,2 Z"
     style="opacity:0.5;fill:#000000;fill-opacity:1;stroke-width:2.53224;filter:url(#filter950)"
     id="rect849-3-6" />
  <path
     id="rect849-3"
     style="opacity:1;fill:url(#linearGradient924);fill-opacity:1;stroke-width:2.53224"
     d="M 27.385937,2 C 28.83474,2 30,3.1652602 30,4.6140625 V 21.785937 C 30,23.234739 28.83474,24.4 27.385937,24.4 H 7.6 L 2,30 v -5.6 0 C 2,21.785937 2,23.234739 2,21.785937 V 4.6140625 C 2,3.1652602 3.165261,2 4.614063,2 Z"
     sodipodi:nodetypes="ssssccccssss" />
  <path
     id="rect849-3-7-2"
     style="opacity:0.5;fill:#000000;fill-opacity:1;stroke-width:1.44699;filter:url(#filter969)"
     d="m 15.495479,14 c -0.827887,0 -1.49375,0.665863 -1.49375,1.49375 v 9.812499 c 0,0.827887 0.665863,1.493751 1.49375,1.493751 h 11.30625 l 3.2,3.2 v -3.2 0 c 0,-1.493751 0,-0.665864 0,-1.493751 V 15.49375 C 30.001729,14.665863 29.335865,14 28.507979,14 Z"
     sodipodi:nodetypes="ssssccccssss" />
  <path
     sodipodi:nodetypes="ssssccccssss"
     d="m 15.495479,14 c -0.827887,0 -1.49375,0.665863 -1.49375,1.49375 v 9.812499 c 0,0.827887 0.665863,1.493751 1.49375,1.493751 h 11.30625 l 3.2,3.2 v -3.2 0 c 0,-1.493751 0,-0.665864 0,-1.493751 V 15.49375 C 30.001729,14.665863 29.335865,14 28.507979,14 Z"
     style="opacity:1;fill:#e5e5e5;fill-opacity:1;stroke-width:1.44699"
     id="rect849-3-7" />
</svg>
